<ttFont>
    <TTGlyph name="A" xMin="-10" yMin="0" xMax="575" yMax="605">
      <contour>
        <pt x="413" y="151" on="1"/>
        <pt x="394" y="204" on="1"/>
        <pt x="166" y="204" on="1"/>
        <pt x="146" y="151" on="1"/>
        <pt x="116" y="26" on="1"/>
        <pt x="159" y="21" on="1"/>
        <pt x="158" y="0" on="1"/>
        <pt x="-9" y="0" on="1"/>
        <pt x="-10" y="19" on="1"/>
        <pt x="20" y="26" on="1"/>
        <pt x="246" y="579" on="1"/>
        <pt x="208" y="586" on="1"/>
        <pt x="209" y="605" on="1"/>
        <pt x="373" y="605" on="1"/>
        <pt x="374" y="586" on="1"/>
        <pt x="336" y="579" on="1"/>
        <pt x="545" y="26" on="1"/>
        <pt x="575" y="19" on="1"/>
        <pt x="574" y="0" on="1"/>
        <pt x="396" y="0" on="1"/>
        <pt x="395" y="21" on="1"/>
        <pt x="438" y="26" on="1"/>
      </contour>
      <contour>
        <pt x="285" y="507" on="1"/>
        <pt x="192" y="271" on="1"/>
        <pt x="370" y="271" on="1"/>
      </contour>
    </TTGlyph>
    <TTGlyph name="AE" xMin="-50" yMin="-27" xMax="706" yMax="634">
      <contour>
        <pt x="664" y="527" on="1"/>
        <pt x="557" y="537" on="1"/>
        <pt x="409" y="537" on="1"/>
        <pt x="400" y="407" on="1"/>
        <pt x="400" y="361" on="1"/>
        <pt x="592" y="361" on="1"/>
        <pt x="600" y="390" on="1"/>
        <pt x="619" y="390" on="1"/>
        <pt x="613" y="253" on="1"/>
        <pt x="594" y="253" on="1"/>
        <pt x="589" y="293" on="1"/>
        <pt x="400" y="293" on="1"/>
        <pt x="400" y="197" on="1"/>
        <pt x="409" y="68" on="1"/>
        <pt x="557" y="68" on="1"/>
        <pt x="672" y="79" on="1"/>
        <pt x="689" y="119" on="1"/>
        <pt x="706" y="115" on="1"/>
        <pt x="675" y="-27" on="1"/>
        <pt x="657" y="-26" on="1"/>
        <pt x="658" y="0" on="1"/>
        <pt x="269" y="0" on="1"/>
        <pt x="268" y="19" on="1"/>
        <pt x="309" y="26" on="1"/>
        <pt x="321" y="204" on="1"/>
        <pt x="156" y="204" on="1"/>
        <pt x="129" y="151" on="1"/>
        <pt x="82" y="25" on="1"/>
        <pt x="122" y="21" on="1"/>
        <pt x="121" y="0" on="1"/>
        <pt x="-49" y="0" on="1"/>
        <pt x="-50" y="19" on="1"/>
        <pt x="-17" y="26" on="1"/>
        <pt x="284" y="579" on="1"/>
        <pt x="246" y="586" on="1"/>
        <pt x="247" y="605" on="1"/>
        <pt x="667" y="605" on="1"/>
        <pt x="675" y="634" on="1"/>
        <pt x="694" y="634" on="1"/>
        <pt x="688" y="487" on="1"/>
        <pt x="669" y="487" on="1"/>
      </contour>
      <contour>
        <pt x="191" y="271" on="1"/>
        <pt x="321" y="271" on="1"/>
        <pt x="321" y="518" on="1"/>
      </contour>
    </TTGlyph>
    <TTGlyph name="Aacute" xMin="-10" yMin="0" xMax="575" yMax="752">
      <contour>
        <pt x="413" y="151" on="1"/>
        <pt x="394" y="204" on="1"/>
        <pt x="166" y="204" on="1"/>
        <pt x="146" y="151" on="1"/>
        <pt x="116" y="26" on="1"/>
        <pt x="159" y="21" on="1"/>
        <pt x="158" y="0" on="1"/>
        <pt x="-9" y="0" on="1"/>
        <pt x="-10" y="19" on="1"/>
        <pt x="20" y="26" on="1"/>
        <pt x="246" y="579" on="1"/>
        <pt x="208" y="586" on="1"/>
        <pt x="209" y="605" on="1"/>
        <pt x="373" y="605" on="1"/>
        <pt x="374" y="586" on="1"/>
        <pt x="336" y="579" on="1"/>
        <pt x="545" y="26" on="1"/>
        <pt x="575" y="19" on="1"/>
        <pt x="574" y="0" on="1"/>
        <pt x="396" y="0" on="1"/>
        <pt x="395" y="21" on="1"/>
        <pt x="438" y="26" on="1"/>
      </contour>
      <contour>
        <pt x="285" y="507" on="1"/>
        <pt x="192" y="271" on="1"/>
        <pt x="370" y="271" on="1"/>
      </contour>
      <contour>
        <pt x="247" y="645" on="1"/>
        <pt x="236" y="663" on="1"/>
        <pt x="339" y="752" on="1"/>
        <pt x="402" y="752" on="0"/>
        <pt x="437" y="721" on="1"/>
        <pt x="437" y="706" on="1"/>
      </contour>
    </TTGlyph>
    <TTGlyph name="Acircumflex" xMin="-10" yMin="0" xMax="575" yMax="754">
      <contour>
        <pt x="413" y="151" on="1"/>
        <pt x="394" y="204" on="1"/>
        <pt x="166" y="204" on="1"/>
        <pt x="146" y="151" on="1"/>
        <pt x="116" y="26" on="1"/>
        <pt x="159" y="21" on="1"/>
        <pt x="158" y="0" on="1"/>
        <pt x="-9" y="0" on="1"/>
        <pt x="-10" y="19" on="1"/>
        <pt x="20" y="26" on="1"/>
        <pt x="246" y="579" on="1"/>
        <pt x="208" y="586" on="1"/>
        <pt x="209" y="605" on="1"/>
        <pt x="373" y="605" on="1"/>
        <pt x="374" y="586" on="1"/>
        <pt x="336" y="579" on="1"/>
        <pt x="545" y="26" on="1"/>
        <pt x="575" y="19" on="1"/>
        <pt x="574" y="0" on="1"/>
        <pt x="396" y="0" on="1"/>
        <pt x="395" y="21" on="1"/>
        <pt x="438" y="26" on="1"/>
      </contour>
      <contour>
        <pt x="285" y="507" on="1"/>
        <pt x="192" y="271" on="1"/>
        <pt x="370" y="271" on="1"/>
      </contour>
      <contour>
        <pt x="180" y="645" on="1"/>
        <pt x="169" y="664" on="1"/>
        <pt x="289" y="754" on="1"/>
        <pt x="296" y="754" on="1"/>
        <pt x="416" y="663" on="1"/>
        <pt x="405" y="645" on="1"/>
        <pt x="292" y="683" on="1"/>
      </contour>
    </TTGlyph>
    <TTGlyph name="Adieresis" xMin="-10" yMin="0" xMax="575" yMax="767">
      <contour>
        <pt x="413" y="151" on="1"/>
        <pt x="394" y="204" on="1"/>
        <pt x="166" y="204" on="1"/>
        <pt x="146" y="151" on="1"/>
        <pt x="116" y="26" on="1"/>
        <pt x="159" y="21" on="1"/>
        <pt x="158" y="0" on="1"/>
        <pt x="-9" y="0" on="1"/>
        <pt x="-10" y="19" on="1"/>
        <pt x="20" y="26" on="1"/>
        <pt x="246" y="579" on="1"/>
        <pt x="208" y="586" on="1"/>
        <pt x="209" y="605" on="1"/>
        <pt x="373" y="605" on="1"/>
        <pt x="374" y="586" on="1"/>
        <pt x="336" y="579" on="1"/>
        <pt x="545" y="26" on="1"/>
        <pt x="575" y="19" on="1"/>
        <pt x="574" y="0" on="1"/>
        <pt x="396" y="0" on="1"/>
        <pt x="395" y="21" on="1"/>
        <pt x="438" y="26" on="1"/>
      </contour>
      <contour>
        <pt x="285" y="507" on="1"/>
        <pt x="192" y="271" on="1"/>
        <pt x="370" y="271" on="1"/>
      </contour>
      <contour>
        <pt x="313" y="706" on="1"/>
        <pt x="340" y="746" on="0"/>
        <pt x="371" y="767" on="1"/>
        <pt x="407" y="742" on="0"/>
        <pt x="432" y="706" on="1"/>
        <pt x="409" y="670" on="0"/>
        <pt x="371" y="645" on="1"/>
        <pt x="338" y="666" on="0"/>
      </contour>
      <contour>
        <pt x="152" y="706" on="1"/>
        <pt x="177" y="744" on="0"/>
        <pt x="213" y="767" on="1"/>
        <pt x="243" y="744" on="0"/>
        <pt x="271" y="706" on="1"/>
        <pt x="243" y="666" on="0"/>
        <pt x="213" y="645" on="1"/>
        <pt x="176" y="669" on="0"/>
      </contour>
    </TTGlyph>
    <TTGlyph name="Agrave" xMin="-10" yMin="0" xMax="575" yMax="752">
      <contour>
        <pt x="413" y="151" on="1"/>
        <pt x="394" y="204" on="1"/>
        <pt x="166" y="204" on="1"/>
        <pt x="146" y="151" on="1"/>
        <pt x="116" y="26" on="1"/>
        <pt x="159" y="21" on="1"/>
        <pt x="158" y="0" on="1"/>
        <pt x="-9" y="0" on="1"/>
        <pt x="-10" y="19" on="1"/>
        <pt x="20" y="26" on="1"/>
        <pt x="246" y="579" on="1"/>
        <pt x="208" y="586" on="1"/>
        <pt x="209" y="605" on="1"/>
        <pt x="373" y="605" on="1"/>
        <pt x="374" y="586" on="1"/>
        <pt x="336" y="579" on="1"/>
        <pt x="545" y="26" on="1"/>
        <pt x="575" y="19" on="1"/>
        <pt x="574" y="0" on="1"/>
        <pt x="396" y="0" on="1"/>
        <pt x="395" y="21" on="1"/>
        <pt x="438" y="26" on="1"/>
      </contour>
      <contour>
        <pt x="285" y="507" on="1"/>
        <pt x="192" y="271" on="1"/>
        <pt x="370" y="271" on="1"/>
      </contour>
      <contour>
        <pt x="345" y="663" on="1"/>
        <pt x="334" y="645" on="1"/>
        <pt x="144" y="706" on="1"/>
        <pt x="144" y="721" on="1"/>
        <pt x="179" y="752" on="0"/>
        <pt x="242" y="752" on="1"/>
      </contour>
    </TTGlyph>
    <TTGlyph name="Aring" xMin="-10" yMin="0" xMax="575" yMax="796">
      <contour>
        <pt x="413" y="151" on="1"/>
        <pt x="394" y="204" on="1"/>
        <pt x="166" y="204" on="1"/>
        <pt x="146" y="151" on="1"/>
        <pt x="116" y="26" on="1"/>
        <pt x="159" y="21" on="1"/>
        <pt x="158" y="0" on="1"/>
        <pt x="-9" y="0" on="1"/>
        <pt x="-10" y="19" on="1"/>
        <pt x="20" y="26" on="1"/>
        <pt x="246" y="579" on="1"/>
        <pt x="208" y="586" on="1"/>
        <pt x="209" y="605" on="1"/>
        <pt x="373" y="605" on="1"/>
        <pt x="374" y="586" on="1"/>
        <pt x="336" y="579" on="1"/>
        <pt x="545" y="26" on="1"/>
        <pt x="575" y="19" on="1"/>
        <pt x="574" y="0" on="1"/>
        <pt x="396" y="0" on="1"/>
        <pt x="395" y="21" on="1"/>
        <pt x="438" y="26" on="1"/>
      </contour>
      <contour>
        <pt x="285" y="507" on="1"/>
        <pt x="192" y="271" on="1"/>
        <pt x="370" y="271" on="1"/>
      </contour>
      <contour>
        <pt x="259" y="796" on="0"/>
        <pt x="325" y="796" on="0"/>
        <pt x="369" y="753" on="0"/>
        <pt x="369" y="688" on="0"/>
        <pt x="325" y="645" on="0"/>
        <pt x="259" y="645" on="0"/>
        <pt x="215" y="688" on="0"/>
        <pt x="215" y="753" on="0"/>
      </contour>
      <contour>
        <pt x="275" y="677" on="0"/>
        <pt x="309" y="677" on="0"/>
        <pt x="330" y="701" on="0"/>
        <pt x="330" y="739" on="0"/>
        <pt x="309" y="762" on="0"/>
        <pt x="275" y="762" on="0"/>
        <pt x="253" y="739" on="0"/>
        <pt x="253" y="701" on="0"/>
      </contour>
    </TTGlyph>
    <TTGlyph name="Atilde" xMin="-10" yMin="0" xMax="575" yMax="748">
      <contour>
        <pt x="413" y="151" on="1"/>
        <pt x="394" y="204" on="1"/>
        <pt x="166" y="204" on="1"/>
        <pt x="146" y="151" on="1"/>
        <pt x="116" y="26" on="1"/>
        <pt x="159" y="21" on="1"/>
        <pt x="158" y="0" on="1"/>
        <pt x="-9" y="0" on="1"/>
        <pt x="-10" y="19" on="1"/>
        <pt x="20" y="26" on="1"/>
        <pt x="246" y="579" on="1"/>
        <pt x="208" y="586" on="1"/>
        <pt x="209" y="605" on="1"/>
        <pt x="373" y="605" on="1"/>
        <pt x="374" y="586" on="1"/>
        <pt x="336" y="579" on="1"/>
        <pt x="545" y="26" on="1"/>
        <pt x="575" y="19" on="1"/>
        <pt x="574" y="0" on="1"/>
        <pt x="396" y="0" on="1"/>
        <pt x="395" y="21" on="1"/>
        <pt x="438" y="26" on="1"/>
      </contour>
      <contour>
        <pt x="285" y="507" on="1"/>
        <pt x="192" y="271" on="1"/>
        <pt x="370" y="271" on="1"/>
      </contour>
      <contour>
        <pt x="412" y="748" on="1"/>
        <pt x="430" y="735" on="1"/>
        <pt x="397" y="680" on="0"/>
        <pt x="369" y="653" on="0"/>
        <pt x="319" y="653" on="0"/>
        <pt x="225" y="690" on="1"/>
        <pt x="178" y="645" on="1"/>
        <pt x="160" y="658" on="1"/>
        <pt x="191" y="711" on="0"/>
        <pt x="219" y="741" on="0"/>
        <pt x="266" y="741" on="0"/>
        <pt x="366" y="704" on="1"/>
      </contour>
    </TTGlyph>
    <TTGlyph name="B" xMin="60" yMin="-4" xMax="492" yMax="608">
      <contour>
        <pt x="90" y="27" on="1"/>
        <pt x="102" y="198" on="1"/>
        <pt x="102" y="408" on="1"/>
        <pt x="90" y="578" on="1"/>
        <pt x="60" y="585" on="1"/>
        <pt x="61" y="604" on="1"/>
        <pt x="230" y="608" on="0"/>
        <pt x="261" y="608" on="1"/>
        <pt x="467" y="608" on="0"/>
        <pt x="467" y="447" on="1"/>
        <pt x="467" y="354" on="0"/>
        <pt x="386" y="314" on="1"/>
        <pt x="492" y="271" on="0"/>
        <pt x="492" y="66" on="0"/>
        <pt x="366" y="-4" on="0"/>
        <pt x="229" y="-4" on="1"/>
        <pt x="164" y="-4" on="0"/>
        <pt x="61" y="1" on="1"/>
        <pt x="60" y="20" on="1"/>
      </contour>
      <contour>
        <pt x="181" y="197" on="1"/>
        <pt x="190" y="63" on="1"/>
        <pt x="234" y="57" on="0"/>
        <pt x="263" y="57" on="1"/>
        <pt x="399" y="57" on="0"/>
        <pt x="399" y="171" on="1"/>
        <pt x="399" y="232" on="0"/>
        <pt x="329" y="285" on="0"/>
        <pt x="248" y="285" on="1"/>
        <pt x="242" y="285" on="0"/>
        <pt x="181" y="282" on="1"/>
      </contour>
      <contour>
        <pt x="181" y="407" on="1"/>
        <pt x="181" y="340" on="1"/>
        <pt x="213" y="337" on="0"/>
        <pt x="240" y="337" on="1"/>
        <pt x="313" y="337" on="0"/>
        <pt x="344" y="363" on="1"/>
        <pt x="374" y="388" on="0"/>
        <pt x="374" y="443" on="1"/>
        <pt x="374" y="548" on="0"/>
        <pt x="253" y="548" on="1"/>
        <pt x="228" y="548" on="0"/>
        <pt x="190" y="542" on="1"/>
      </contour>
    </TTGlyph>
    <TTGlyph name="C" xMin="50" yMin="-20" xMax="523" yMax="620">
      <contour>
        <pt x="234" y="554" on="0"/>
        <pt x="146" y="425" on="0"/>
        <pt x="146" y="186" on="0"/>
        <pt x="239" y="51" on="0"/>
        <pt x="398" y="51" on="0"/>
        <pt x="488" y="103" on="1"/>
        <pt x="505" y="143" on="1"/>
        <pt x="523" y="139" on="1"/>
        <pt x="488" y="-20" on="1"/>
        <pt x="468" y="-20" on="1"/>
        <pt x="469" y="5" on="1"/>
        <pt x="402" y="-15" on="0"/>
        <pt x="319" y="-15" on="1"/>
        <pt x="192" y="-15" on="0"/>
        <pt x="50" y="147" on="0"/>
        <pt x="50" y="444" on="0"/>
        <pt x="204" y="620" on="0"/>
        <pt x="336" y="620" on="1"/>
        <pt x="402" y="620" on="0"/>
        <pt x="476" y="595" on="1"/>
        <pt x="483" y="620" on="1"/>
        <pt x="502" y="620" on="1"/>
        <pt x="495" y="466" on="1"/>
        <pt x="476" y="466" on="1"/>
        <pt x="469" y="508" on="1"/>
        <pt x="381" y="554" on="0"/>
        <pt x="316" y="554" on="1"/>
      </contour>
    </TTGlyph>
    <TTGlyph name="Ccedilla" xMin="50" yMin="-221" xMax="523" yMax="620">
      <contour>
        <pt x="234" y="554" on="0"/>
        <pt x="146" y="425" on="0"/>
        <pt x="146" y="186" on="0"/>
        <pt x="239" y="51" on="0"/>
        <pt x="398" y="51" on="0"/>
        <pt x="488" y="103" on="1"/>
        <pt x="505" y="143" on="1"/>
        <pt x="523" y="139" on="1"/>
        <pt x="488" y="-20" on="1"/>
        <pt x="468" y="-20" on="1"/>
        <pt x="469" y="5" on="1"/>
        <pt x="411" y="-13" on="0"/>
        <pt x="350" y="-14" on="1"/>
        <pt x="328" y="-59" on="1"/>
        <pt x="381" y="-79" on="0"/>
        <pt x="414" y="-107" on="0"/>
        <pt x="414" y="-132" on="1"/>
        <pt x="414" y="-172" on="0"/>
        <pt x="355" y="-221" on="0"/>
        <pt x="273" y="-221" on="0"/>
        <pt x="237" y="-207" on="1"/>
        <pt x="242" y="-178" on="1"/>
        <pt x="273" y="-189" on="0"/>
        <pt x="329" y="-189" on="0"/>
        <pt x="360" y="-165" on="0"/>
        <pt x="360" y="-128" on="0"/>
        <pt x="333" y="-113" on="0"/>
        <pt x="273" y="-97" on="1"/>
        <pt x="316" y="-15" on="1"/>
        <pt x="190" y="-13" on="0"/>
        <pt x="50" y="148" on="0"/>
        <pt x="50" y="444" on="0"/>
        <pt x="204" y="620" on="0"/>
        <pt x="336" y="620" on="1"/>
        <pt x="402" y="620" on="0"/>
        <pt x="476" y="595" on="1"/>
        <pt x="483" y="620" on="1"/>
        <pt x="502" y="620" on="1"/>
        <pt x="495" y="466" on="1"/>
        <pt x="476" y="466" on="1"/>
        <pt x="469" y="508" on="1"/>
        <pt x="381" y="554" on="0"/>
        <pt x="316" y="554" on="1"/>
      </contour>
    </TTGlyph>
    <TTGlyph name="D" xMin="60" yMin="-3" xMax="589" yMax="608">
      <contour>
        <pt x="90" y="27" on="1"/>
        <pt x="102" y="198" on="1"/>
        <pt x="102" y="407" on="1"/>
        <pt x="90" y="578" on="1"/>
        <pt x="60" y="585" on="1"/>
        <pt x="61" y="604" on="1"/>
        <pt x="183" y="608" on="0"/>
        <pt x="296" y="608" on="1"/>
        <pt x="445" y="608" on="0"/>
        <pt x="589" y="466" on="0"/>
        <pt x="589" y="312" on="1"/>
        <pt x="589" y="-3" on="0"/>
        <pt x="285" y="-3" on="1"/>
        <pt x="61" y="1" on="1"/>
        <pt x="60" y="20" on="1"/>
      </contour>
      <contour>
        <pt x="181" y="197" on="1"/>
        <pt x="189" y="77" on="1"/>
        <pt x="239" y="61" on="0"/>
        <pt x="302" y="61" on="1"/>
        <pt x="498" y="61" on="0"/>
        <pt x="498" y="296" on="1"/>
        <pt x="498" y="424" on="0"/>
        <pt x="394" y="548" on="0"/>
        <pt x="286" y="548" on="1"/>
        <pt x="239" y="548" on="0"/>
        <pt x="190" y="532" on="1"/>
        <pt x="181" y="406" on="1"/>
      </contour>
    </TTGlyph>
    <TTGlyph name="Delta" xMin="10" yMin="0" xMax="520" yMax="621">
      <contour>
        <pt x="520" y="0" on="1"/>
        <pt x="10" y="0" on="1"/>
        <pt x="222" y="618" on="1"/>
        <pt x="304" y="621" on="1"/>
      </contour>
      <contour>
        <pt x="107" y="65" on="1"/>
        <pt x="404" y="65" on="1"/>
        <pt x="253" y="531" on="1"/>
      </contour>
    </TTGlyph>
    <TTGlyph name="E" xMin="60" yMin="-27" xMax="487" yMax="634">
      <contour>
        <pt x="445" y="527" on="1"/>
        <pt x="338" y="537" on="1"/>
        <pt x="190" y="537" on="1"/>
        <pt x="181" y="407" on="1"/>
        <pt x="181" y="361" on="1"/>
        <pt x="373" y="361" on="1"/>
        <pt x="381" y="390" on="1"/>
        <pt x="400" y="390" on="1"/>
        <pt x="394" y="253" on="1"/>
        <pt x="375" y="253" on="1"/>
        <pt x="370" y="293" on="1"/>
        <pt x="181" y="293" on="1"/>
        <pt x="181" y="197" on="1"/>
        <pt x="190" y="68" on="1"/>
        <pt x="338" y="68" on="1"/>
        <pt x="453" y="79" on="1"/>
        <pt x="470" y="119" on="1"/>
        <pt x="487" y="115" on="1"/>
        <pt x="456" y="-27" on="1"/>
        <pt x="438" y="-26" on="1"/>
        <pt x="439" y="0" on="1"/>
        <pt x="61" y="0" on="1"/>
        <pt x="60" y="19" on="1"/>
        <pt x="90" y="26" on="1"/>
        <pt x="102" y="198" on="1"/>
        <pt x="102" y="408" on="1"/>
        <pt x="90" y="579" on="1"/>
        <pt x="60" y="586" on="1"/>
        <pt x="61" y="605" on="1"/>
        <pt x="448" y="605" on="1"/>
        <pt x="456" y="634" on="1"/>
        <pt x="475" y="634" on="1"/>
        <pt x="469" y="487" on="1"/>
        <pt x="450" y="487" on="1"/>
      </contour>
    </TTGlyph>
    <TTGlyph name="Eacute" xMin="60" yMin="-27" xMax="487" yMax="750">
      <contour>
        <pt x="445" y="527" on="1"/>
        <pt x="338" y="537" on="1"/>
        <pt x="190" y="537" on="1"/>
        <pt x="181" y="407" on="1"/>
        <pt x="181" y="361" on="1"/>
        <pt x="373" y="361" on="1"/>
        <pt x="381" y="390" on="1"/>
        <pt x="400" y="390" on="1"/>
        <pt x="394" y="253" on="1"/>
        <pt x="375" y="253" on="1"/>
        <pt x="370" y="293" on="1"/>
        <pt x="181" y="293" on="1"/>
        <pt x="181" y="197" on="1"/>
        <pt x="190" y="68" on="1"/>
        <pt x="338" y="68" on="1"/>
        <pt x="453" y="79" on="1"/>
        <pt x="470" y="119" on="1"/>
        <pt x="487" y="115" on="1"/>
        <pt x="456" y="-27" on="1"/>
        <pt x="438" y="-26" on="1"/>
        <pt x="439" y="0" on="1"/>
        <pt x="61" y="0" on="1"/>
        <pt x="60" y="19" on="1"/>
        <pt x="90" y="26" on="1"/>
        <pt x="102" y="198" on="1"/>
        <pt x="102" y="408" on="1"/>
        <pt x="90" y="579" on="1"/>
        <pt x="60" y="586" on="1"/>
        <pt x="61" y="605" on="1"/>
        <pt x="448" y="605" on="1"/>
        <pt x="456" y="634" on="1"/>
        <pt x="475" y="634" on="1"/>
        <pt x="469" y="487" on="1"/>
        <pt x="450" y="487" on="1"/>
      </contour>
      <contour>
        <pt x="231" y="645" on="1"/>
        <pt x="220" y="663" on="1"/>
        <pt x="352" y="750" on="1"/>
        <pt x="421" y="719" on="1"/>
        <pt x="421" y="706" on="1"/>
      </contour>
    </TTGlyph>
    <TTGlyph name="Ecircumflex" xMin="60" yMin="-27" xMax="487" yMax="754">
      <contour>
        <pt x="445" y="527" on="1"/>
        <pt x="338" y="537" on="1"/>
        <pt x="190" y="537" on="1"/>
        <pt x="181" y="407" on="1"/>
        <pt x="181" y="361" on="1"/>
        <pt x="373" y="361" on="1"/>
        <pt x="381" y="390" on="1"/>
        <pt x="400" y="390" on="1"/>
        <pt x="394" y="253" on="1"/>
        <pt x="375" y="253" on="1"/>
        <pt x="370" y="293" on="1"/>
        <pt x="181" y="293" on="1"/>
        <pt x="181" y="197" on="1"/>
        <pt x="190" y="68" on="1"/>
        <pt x="338" y="68" on="1"/>
        <pt x="453" y="79" on="1"/>
        <pt x="470" y="119" on="1"/>
        <pt x="487" y="115" on="1"/>
        <pt x="456" y="-27" on="1"/>
        <pt x="438" y="-26" on="1"/>
        <pt x="439" y="0" on="1"/>
        <pt x="61" y="0" on="1"/>
        <pt x="60" y="19" on="1"/>
        <pt x="90" y="26" on="1"/>
        <pt x="102" y="198" on="1"/>
        <pt x="102" y="408" on="1"/>
        <pt x="90" y="579" on="1"/>
        <pt x="60" y="586" on="1"/>
        <pt x="61" y="605" on="1"/>
        <pt x="448" y="605" on="1"/>
        <pt x="456" y="634" on="1"/>
        <pt x="475" y="634" on="1"/>
        <pt x="469" y="487" on="1"/>
        <pt x="450" y="487" on="1"/>
      </contour>
      <contour>
        <pt x="158" y="645" on="1"/>
        <pt x="147" y="664" on="1"/>
        <pt x="267" y="754" on="1"/>
        <pt x="274" y="754" on="1"/>
        <pt x="394" y="663" on="1"/>
        <pt x="383" y="645" on="1"/>
        <pt x="270" y="683" on="1"/>
      </contour>
    </TTGlyph>
    <TTGlyph name="Edieresis" xMin="60" yMin="-27" xMax="487" yMax="767">
      <contour>
        <pt x="445" y="527" on="1"/>
        <pt x="338" y="537" on="1"/>
        <pt x="190" y="537" on="1"/>
        <pt x="181" y="407" on="1"/>
        <pt x="181" y="361" on="1"/>
        <pt x="373" y="361" on="1"/>
        <pt x="381" y="390" on="1"/>
        <pt x="400" y="390" on="1"/>
        <pt x="394" y="253" on="1"/>
        <pt x="375" y="253" on="1"/>
        <pt x="370" y="293" on="1"/>
        <pt x="181" y="293" on="1"/>
        <pt x="181" y="197" on="1"/>
        <pt x="190" y="68" on="1"/>
        <pt x="338" y="68" on="1"/>
        <pt x="445" y="78" on="1"/>
        <pt x="453" y="79" on="1"/>
        <pt x="470" y="119" on="1"/>
        <pt x="487" y="115" on="1"/>
        <pt x="456" y="-27" on="1"/>
        <pt x="438" y="-26" on="1"/>
        <pt x="439" y="0" on="1"/>
        <pt x="61" y="0" on="1"/>
        <pt x="60" y="19" on="1"/>
        <pt x="90" y="26" on="1"/>
        <pt x="102" y="198" on="1"/>
        <pt x="102" y="408" on="1"/>
        <pt x="90" y="579" on="1"/>
        <pt x="60" y="586" on="1"/>
        <pt x="61" y="605" on="1"/>
        <pt x="448" y="605" on="1"/>
        <pt x="456" y="634" on="1"/>
        <pt x="475" y="634" on="1"/>
        <pt x="469" y="487" on="1"/>
        <pt x="450" y="487" on="1"/>
      </contour>
      <contour>
        <pt x="292" y="706" on="1"/>
        <pt x="319" y="746" on="0"/>
        <pt x="350" y="767" on="1"/>
        <pt x="386" y="742" on="0"/>
        <pt x="411" y="706" on="1"/>
        <pt x="388" y="670" on="0"/>
        <pt x="350" y="645" on="1"/>
        <pt x="317" y="666" on="0"/>
      </contour>
      <contour>
        <pt x="131" y="706" on="1"/>
        <pt x="156" y="744" on="0"/>
        <pt x="192" y="767" on="1"/>
        <pt x="222" y="744" on="0"/>
        <pt x="250" y="706" on="1"/>
        <pt x="222" y="666" on="0"/>
        <pt x="192" y="645" on="1"/>
        <pt x="155" y="669" on="0"/>
      </contour>
    </TTGlyph>
    <TTGlyph name="Egrave" xMin="60" yMin="-27" xMax="487" yMax="752">
      <contour>
        <pt x="445" y="527" on="1"/>
        <pt x="338" y="537" on="1"/>
        <pt x="190" y="537" on="1"/>
        <pt x="181" y="407" on="1"/>
        <pt x="181" y="361" on="1"/>
        <pt x="373" y="361" on="1"/>
        <pt x="381" y="390" on="1"/>
        <pt x="400" y="390" on="1"/>
        <pt x="394" y="253" on="1"/>
        <pt x="375" y="253" on="1"/>
        <pt x="370" y="293" on="1"/>
        <pt x="181" y="293" on="1"/>
        <pt x="181" y="197" on="1"/>
        <pt x="190" y="68" on="1"/>
        <pt x="338" y="68" on="1"/>
        <pt x="453" y="79" on="1"/>
        <pt x="470" y="119" on="1"/>
        <pt x="487" y="115" on="1"/>
        <pt x="456" y="-27" on="1"/>
        <pt x="438" y="-26" on="1"/>
        <pt x="439" y="0" on="1"/>
        <pt x="61" y="0" on="1"/>
        <pt x="60" y="19" on="1"/>
        <pt x="90" y="26" on="1"/>
        <pt x="102" y="198" on="1"/>
        <pt x="102" y="408" on="1"/>
        <pt x="90" y="579" on="1"/>
        <pt x="60" y="586" on="1"/>
        <pt x="61" y="605" on="1"/>
        <pt x="448" y="605" on="1"/>
        <pt x="456" y="634" on="1"/>
        <pt x="475" y="634" on="1"/>
        <pt x="469" y="487" on="1"/>
        <pt x="450" y="487" on="1"/>
      </contour>
      <contour>
        <pt x="342" y="663" on="1"/>
        <pt x="331" y="645" on="1"/>
        <pt x="141" y="706" on="1"/>
        <pt x="141" y="721" on="1"/>
        <pt x="176" y="752" on="0"/>
        <pt x="239" y="752" on="1"/>
      </contour>
    </TTGlyph>
    <TTGlyph name="Eth" xMin="37" yMin="-3" xMax="589" yMax="608">
      <contour>
        <pt x="90" y="27" on="1"/>
        <pt x="102" y="198" on="1"/>
        <pt x="102" y="293" on="1"/>
        <pt x="37" y="293" on="1"/>
        <pt x="46" y="361" on="1"/>
        <pt x="102" y="361" on="1"/>
        <pt x="102" y="407" on="1"/>
        <pt x="90" y="578" on="1"/>
        <pt x="60" y="585" on="1"/>
        <pt x="61" y="604" on="1"/>
        <pt x="183" y="608" on="0"/>
        <pt x="296" y="608" on="1"/>
        <pt x="445" y="608" on="0"/>
        <pt x="589" y="466" on="0"/>
        <pt x="589" y="312" on="1"/>
        <pt x="589" y="-3" on="0"/>
        <pt x="285" y="-3" on="1"/>
        <pt x="61" y="1" on="1"/>
        <pt x="60" y="20" on="1"/>
      </contour>
      <contour>
        <pt x="181" y="197" on="1"/>
        <pt x="189" y="77" on="1"/>
        <pt x="239" y="61" on="0"/>
        <pt x="302" y="61" on="1"/>
        <pt x="498" y="61" on="0"/>
        <pt x="498" y="296" on="1"/>
        <pt x="498" y="424" on="0"/>
        <pt x="394" y="548" on="0"/>
        <pt x="286" y="548" on="1"/>
        <pt x="239" y="548" on="0"/>
        <pt x="190" y="532" on="1"/>
        <pt x="181" y="406" on="1"/>
        <pt x="181" y="361" on="1"/>
        <pt x="334" y="361" on="1"/>
        <pt x="327" y="293" on="1"/>
        <pt x="181" y="293" on="1"/>
      </contour>
    </TTGlyph>
    <TTGlyph name="Euro" xMin="40" yMin="-24" xMax="483" yMax="514">
      <contour>
        <pt x="181" y="250" on="1"/>
        <pt x="181" y="228" on="0"/>
        <pt x="182" y="221" on="1"/>
        <pt x="380" y="221" on="1"/>
        <pt x="380" y="185" on="1"/>
        <pt x="186" y="185" on="1"/>
        <pt x="197" y="118" on="0"/>
        <pt x="269" y="43" on="0"/>
        <pt x="381" y="43" on="0"/>
        <pt x="449" y="85" on="1"/>
        <pt x="466" y="125" on="1"/>
        <pt x="483" y="121" on="1"/>
        <pt x="451" y="-24" on="1"/>
        <pt x="431" y="-24" on="1"/>
        <pt x="432" y="1" on="1"/>
        <pt x="378" y="-15" on="0"/>
        <pt x="316" y="-15" on="1"/>
        <pt x="220" y="-15" on="0"/>
        <pt x="102" y="89" on="0"/>
        <pt x="88" y="185" on="1"/>
        <pt x="40" y="185" on="1"/>
        <pt x="40" y="221" on="1"/>
        <pt x="85" y="221" on="1"/>
        <pt x="85" y="238" on="1"/>
        <pt x="85" y="264" on="0"/>
        <pt x="86" y="273" on="1"/>
        <pt x="40" y="273" on="1"/>
        <pt x="40" y="309" on="1"/>
        <pt x="91" y="309" on="1"/>
        <pt x="108" y="402" on="0"/>
        <pt x="238" y="507" on="0"/>
        <pt x="335" y="507" on="1"/>
        <pt x="386" y="507" on="0"/>
        <pt x="452" y="489" on="1"/>
        <pt x="459" y="514" on="1"/>
        <pt x="478" y="514" on="1"/>
        <pt x="472" y="377" on="1"/>
        <pt x="453" y="377" on="1"/>
        <pt x="446" y="420" on="1"/>
        <pt x="377" y="454" on="0"/>
        <pt x="323" y="454" on="1"/>
        <pt x="207" y="454" on="0"/>
        <pt x="185" y="309" on="1"/>
        <pt x="390" y="309" on="1"/>
        <pt x="390" y="273" on="1"/>
        <pt x="181" y="273" on="1"/>
      </contour>
    </TTGlyph>
    <TTGlyph name="F" xMin="60" yMin="0" xMax="475" yMax="634">
      <contour>
        <pt x="181" y="197" on="1"/>
        <pt x="193" y="26" on="1"/>
        <pt x="237" y="21" on="1"/>
        <pt x="236" y="0" on="1"/>
        <pt x="61" y="0" on="1"/>
        <pt x="60" y="19" on="1"/>
        <pt x="90" y="26" on="1"/>
        <pt x="102" y="198" on="1"/>
        <pt x="102" y="408" on="1"/>
        <pt x="90" y="579" on="1"/>
        <pt x="60" y="586" on="1"/>
        <pt x="61" y="605" on="1"/>
        <pt x="448" y="605" on="1"/>
        <pt x="456" y="634" on="1"/>
        <pt x="475" y="634" on="1"/>
        <pt x="469" y="487" on="1"/>
        <pt x="450" y="487" on="1"/>
        <pt x="445" y="527" on="1"/>
        <pt x="338" y="537" on="1"/>
        <pt x="190" y="537" on="1"/>
        <pt x="181" y="407" on="1"/>
        <pt x="181" y="336" on="1"/>
        <pt x="373" y="336" on="1"/>
        <pt x="381" y="365" on="1"/>
        <pt x="400" y="365" on="1"/>
        <pt x="394" y="228" on="1"/>
        <pt x="375" y="228" on="1"/>
        <pt x="370" y="268" on="1"/>
        <pt x="181" y="268" on="1"/>
      </contour>
    </TTGlyph>
    <TTGlyph name="G" xMin="50" yMin="-15" xMax="575" yMax="620">
      <contour>
        <pt x="545" y="244" on="1"/>
        <pt x="544" y="78" on="1"/>
        <pt x="551" y="38" on="1"/>
        <pt x="462" y="-15" on="0"/>
        <pt x="192" y="-15" on="0"/>
        <pt x="50" y="147" on="0"/>
        <pt x="50" y="444" on="0"/>
        <pt x="213" y="620" on="0"/>
        <pt x="353" y="620" on="1"/>
        <pt x="424" y="620" on="0"/>
        <pt x="503" y="595" on="1"/>
        <pt x="510" y="620" on="1"/>
        <pt x="529" y="620" on="1"/>
        <pt x="522" y="466" on="1"/>
        <pt x="503" y="466" on="1"/>
        <pt x="496" y="508" on="1"/>
        <pt x="403" y="554" on="0"/>
        <pt x="330" y="554" on="1"/>
        <pt x="241" y="554" on="0"/>
        <pt x="146" y="425" on="0"/>
        <pt x="146" y="186" on="0"/>
        <pt x="239" y="51" on="0"/>
        <pt x="388" y="51" on="0"/>
        <pt x="469" y="93" on="1"/>
        <pt x="463" y="244" on="1"/>
        <pt x="423" y="249" on="1"/>
        <pt x="424" y="270" on="1"/>
        <pt x="574" y="270" on="1"/>
        <pt x="575" y="251" on="1"/>
      </contour>
    </TTGlyph>
    <TTGlyph name="H" xMin="60" yMin="0" xMax="610" yMax="605">
      <contour>
        <pt x="193" y="579" on="1"/>
        <pt x="181" y="407" on="1"/>
        <pt x="181" y="353" on="1"/>
        <pt x="489" y="353" on="1"/>
        <pt x="489" y="408" on="1"/>
        <pt x="477" y="579" on="1"/>
        <pt x="437" y="584" on="1"/>
        <pt x="438" y="605" on="1"/>
        <pt x="609" y="605" on="1"/>
        <pt x="610" y="586" on="1"/>
        <pt x="580" y="579" on="1"/>
        <pt x="568" y="407" on="1"/>
        <pt x="568" y="197" on="1"/>
        <pt x="580" y="26" on="1"/>
        <pt x="610" y="19" on="1"/>
        <pt x="609" y="0" on="1"/>
        <pt x="438" y="0" on="1"/>
        <pt x="437" y="21" on="1"/>
        <pt x="477" y="26" on="1"/>
        <pt x="489" y="198" on="1"/>
        <pt x="489" y="286" on="1"/>
        <pt x="181" y="286" on="1"/>
        <pt x="181" y="197" on="1"/>
        <pt x="193" y="26" on="1"/>
        <pt x="233" y="21" on="1"/>
        <pt x="232" y="0" on="1"/>
        <pt x="61" y="0" on="1"/>
        <pt x="60" y="19" on="1"/>
        <pt x="90" y="26" on="1"/>
        <pt x="102" y="198" on="1"/>
        <pt x="102" y="408" on="1"/>
        <pt x="90" y="579" on="1"/>
        <pt x="60" y="586" on="1"/>
        <pt x="61" y="605" on="1"/>
        <pt x="232" y="605" on="1"/>
        <pt x="233" y="584" on="1"/>
      </contour>
    </TTGlyph>
    <TTGlyph name="I" xMin="60" yMin="0" xMax="223" yMax="605">
      <contour>
        <pt x="90" y="26" on="1"/>
        <pt x="102" y="198" on="1"/>
        <pt x="102" y="408" on="1"/>
        <pt x="90" y="579" on="1"/>
        <pt x="60" y="586" on="1"/>
        <pt x="61" y="605" on="1"/>
        <pt x="222" y="605" on="1"/>
        <pt x="223" y="586" on="1"/>
        <pt x="193" y="579" on="1"/>
        <pt x="181" y="407" on="1"/>
        <pt x="181" y="197" on="1"/>
        <pt x="193" y="26" on="1"/>
        <pt x="223" y="19" on="1"/>
        <pt x="222" y="0" on="1"/>
        <pt x="61" y="0" on="1"/>
        <pt x="60" y="19" on="1"/>
      </contour>
    </TTGlyph>
    <TTGlyph name="Iacute" xMin="60" yMin="0" xMax="271" yMax="752">
      <contour>
        <pt x="90" y="26" on="1"/>
        <pt x="102" y="198" on="1"/>
        <pt x="102" y="408" on="1"/>
        <pt x="90" y="579" on="1"/>
        <pt x="60" y="586" on="1"/>
        <pt x="61" y="605" on="1"/>
        <pt x="222" y="605" on="1"/>
        <pt x="223" y="586" on="1"/>
        <pt x="193" y="579" on="1"/>
        <pt x="181" y="407" on="1"/>
        <pt x="181" y="197" on="1"/>
        <pt x="193" y="26" on="1"/>
        <pt x="223" y="19" on="1"/>
        <pt x="222" y="0" on="1"/>
        <pt x="61" y="0" on="1"/>
        <pt x="60" y="19" on="1"/>
      </contour>
      <contour>
        <pt x="81" y="645" on="1"/>
        <pt x="70" y="663" on="1"/>
        <pt x="173" y="752" on="1"/>
        <pt x="236" y="752" on="0"/>
        <pt x="271" y="721" on="1"/>
        <pt x="271" y="706" on="1"/>
      </contour>
    </TTGlyph>
    <TTGlyph name="Icircumflex" xMin="18" yMin="0" xMax="265" yMax="754">
      <contour>
        <pt x="90" y="26" on="1"/>
        <pt x="102" y="198" on="1"/>
        <pt x="102" y="408" on="1"/>
        <pt x="90" y="579" on="1"/>
        <pt x="60" y="586" on="1"/>
        <pt x="61" y="605" on="1"/>
        <pt x="222" y="605" on="1"/>
        <pt x="223" y="586" on="1"/>
        <pt x="193" y="579" on="1"/>
        <pt x="181" y="407" on="1"/>
        <pt x="181" y="197" on="1"/>
        <pt x="193" y="26" on="1"/>
        <pt x="223" y="19" on="1"/>
        <pt x="222" y="0" on="1"/>
        <pt x="61" y="0" on="1"/>
        <pt x="60" y="19" on="1"/>
      </contour>
      <contour>
        <pt x="29" y="645" on="1"/>
        <pt x="18" y="664" on="1"/>
        <pt x="138" y="754" on="1"/>
        <pt x="145" y="754" on="1"/>
        <pt x="265" y="663" on="1"/>
        <pt x="254" y="645" on="1"/>
        <pt x="141" y="683" on="1"/>
      </contour>
    </TTGlyph>
    <TTGlyph name="Idieresis" xMin="2" yMin="0" xMax="282" yMax="767">
      <contour>
        <pt x="90" y="26" on="1"/>
        <pt x="102" y="198" on="1"/>
        <pt x="102" y="408" on="1"/>
        <pt x="90" y="579" on="1"/>
        <pt x="60" y="586" on="1"/>
        <pt x="61" y="605" on="1"/>
        <pt x="222" y="605" on="1"/>
        <pt x="223" y="586" on="1"/>
        <pt x="193" y="579" on="1"/>
        <pt x="181" y="407" on="1"/>
        <pt x="181" y="197" on="1"/>
        <pt x="193" y="26" on="1"/>
        <pt x="223" y="19" on="1"/>
        <pt x="222" y="0" on="1"/>
        <pt x="61" y="0" on="1"/>
        <pt x="60" y="19" on="1"/>
      </contour>
      <contour>
        <pt x="163" y="706" on="1"/>
        <pt x="190" y="746" on="0"/>
        <pt x="221" y="767" on="1"/>
        <pt x="257" y="742" on="0"/>
        <pt x="282" y="706" on="1"/>
        <pt x="259" y="670" on="0"/>
        <pt x="221" y="645" on="1"/>
        <pt x="188" y="666" on="0"/>
      </contour>
      <contour>
        <pt x="2" y="706" on="1"/>
        <pt x="27" y="744" on="0"/>
        <pt x="63" y="767" on="1"/>
        <pt x="93" y="744" on="0"/>
        <pt x="121" y="706" on="1"/>
        <pt x="93" y="666" on="0"/>
        <pt x="63" y="645" on="1"/>
        <pt x="26" y="669" on="0"/>
      </contour>
    </TTGlyph>
    <TTGlyph name="Igrave" xMin="15" yMin="0" xMax="223" yMax="752">
      <contour>
        <pt x="90" y="26" on="1"/>
        <pt x="102" y="198" on="1"/>
        <pt x="102" y="408" on="1"/>
        <pt x="90" y="579" on="1"/>
        <pt x="60" y="586" on="1"/>
        <pt x="61" y="605" on="1"/>
        <pt x="222" y="605" on="1"/>
        <pt x="223" y="586" on="1"/>
        <pt x="193" y="579" on="1"/>
        <pt x="181" y="407" on="1"/>
        <pt x="181" y="197" on="1"/>
        <pt x="193" y="26" on="1"/>
        <pt x="223" y="19" on="1"/>
        <pt x="222" y="0" on="1"/>
        <pt x="61" y="0" on="1"/>
        <pt x="60" y="19" on="1"/>
      </contour>
      <contour>
        <pt x="216" y="663" on="1"/>
        <pt x="205" y="645" on="1"/>
        <pt x="15" y="706" on="1"/>
        <pt x="15" y="721" on="1"/>
        <pt x="50" y="752" on="0"/>
        <pt x="113" y="752" on="1"/>
      </contour>
    </TTGlyph>
    <TTGlyph name="J" xMin="-10" yMin="-19" xMax="342" yMax="605">
      <contour>
        <pt x="300" y="407" on="1"/>
        <pt x="300" y="185" on="1"/>
        <pt x="300" y="94" on="0"/>
        <pt x="199" y="-15" on="0"/>
        <pt x="116" y="-15" on="1"/>
        <pt x="67" y="-15" on="0"/>
        <pt x="22" y="3" on="1"/>
        <pt x="8" y="-19" on="1"/>
        <pt x="-10" y="-13" on="1"/>
        <pt x="42" y="137" on="1"/>
        <pt x="60" y="132" on="1"/>
        <pt x="55" y="89" on="1"/>
        <pt x="97" y="53" on="0"/>
        <pt x="186" y="53" on="0"/>
        <pt x="221" y="114" on="0"/>
        <pt x="221" y="198" on="1"/>
        <pt x="221" y="408" on="1"/>
        <pt x="209" y="579" on="1"/>
        <pt x="179" y="586" on="1"/>
        <pt x="180" y="605" on="1"/>
        <pt x="341" y="605" on="1"/>
        <pt x="342" y="586" on="1"/>
        <pt x="312" y="579" on="1"/>
      </contour>
    </TTGlyph>
    <TTGlyph name="K" xMin="60" yMin="0" xMax="558" yMax="605">
      <contour>
        <pt x="501" y="579" on="1"/>
        <pt x="276" y="339" on="1"/>
        <pt x="528" y="26" on="1"/>
        <pt x="558" y="19" on="1"/>
        <pt x="557" y="0" on="1"/>
        <pt x="365" y="0" on="1"/>
        <pt x="364" y="21" on="1"/>
        <pt x="407" y="26" on="1"/>
        <pt x="294" y="198" on="1"/>
        <pt x="191" y="317" on="1"/>
        <pt x="191" y="327" on="1"/>
        <pt x="308" y="464" on="1"/>
        <pt x="384" y="579" on="1"/>
        <pt x="342" y="584" on="1"/>
        <pt x="343" y="605" on="1"/>
        <pt x="530" y="605" on="1"/>
        <pt x="531" y="586" on="1"/>
      </contour>
      <contour>
        <pt x="90" y="26" on="1"/>
        <pt x="102" y="198" on="1"/>
        <pt x="102" y="408" on="1"/>
        <pt x="90" y="579" on="1"/>
        <pt x="60" y="586" on="1"/>
        <pt x="61" y="605" on="1"/>
        <pt x="222" y="605" on="1"/>
        <pt x="223" y="586" on="1"/>
        <pt x="193" y="579" on="1"/>
        <pt x="181" y="407" on="1"/>
        <pt x="181" y="197" on="1"/>
        <pt x="193" y="26" on="1"/>
        <pt x="223" y="19" on="1"/>
        <pt x="222" y="0" on="1"/>
        <pt x="61" y="0" on="1"/>
        <pt x="60" y="19" on="1"/>
      </contour>
    </TTGlyph>
    <TTGlyph name="L" xMin="60" yMin="-27" xMax="427" yMax="605">
      <contour>
        <pt x="90" y="26" on="1"/>
        <pt x="102" y="198" on="1"/>
        <pt x="102" y="408" on="1"/>
        <pt x="90" y="579" on="1"/>
        <pt x="60" y="586" on="1"/>
        <pt x="61" y="605" on="1"/>
        <pt x="232" y="605" on="1"/>
        <pt x="233" y="584" on="1"/>
        <pt x="193" y="579" on="1"/>
        <pt x="181" y="407" on="1"/>
        <pt x="181" y="197" on="1"/>
        <pt x="190" y="68" on="1"/>
        <pt x="278" y="68" on="1"/>
        <pt x="393" y="79" on="1"/>
        <pt x="410" y="119" on="1"/>
        <pt x="427" y="115" on="1"/>
        <pt x="396" y="-27" on="1"/>
        <pt x="378" y="-26" on="1"/>
        <pt x="379" y="0" on="1"/>
        <pt x="61" y="0" on="1"/>
        <pt x="60" y="19" on="1"/>
      </contour>
    </TTGlyph>
    <TTGlyph name="Lslash" xMin="38" yMin="-27" xMax="427" yMax="605">
      <contour>
        <pt x="193" y="579" on="1"/>
        <pt x="181" y="407" on="1"/>
        <pt x="181" y="385" on="1"/>
        <pt x="306" y="454" on="1"/>
        <pt x="306" y="393" on="1"/>
        <pt x="181" y="324" on="1"/>
        <pt x="181" y="197" on="1"/>
        <pt x="190" y="68" on="1"/>
        <pt x="278" y="68" on="1"/>
        <pt x="393" y="79" on="1"/>
        <pt x="410" y="119" on="1"/>
        <pt x="427" y="115" on="1"/>
        <pt x="396" y="-27" on="1"/>
        <pt x="378" y="-26" on="1"/>
        <pt x="379" y="0" on="1"/>
        <pt x="61" y="0" on="1"/>
        <pt x="60" y="19" on="1"/>
        <pt x="90" y="26" on="1"/>
        <pt x="102" y="198" on="1"/>
        <pt x="102" y="281" on="1"/>
        <pt x="38" y="246" on="1"/>
        <pt x="38" y="307" on="1"/>
        <pt x="102" y="342" on="1"/>
        <pt x="102" y="408" on="1"/>
        <pt x="90" y="579" on="1"/>
        <pt x="60" y="586" on="1"/>
        <pt x="61" y="605" on="1"/>
        <pt x="232" y="605" on="1"/>
        <pt x="233" y="584" on="1"/>
      </contour>
    </TTGlyph>
    <TTGlyph name="M" xMin="50" yMin="0" xMax="718" yMax="605">
      <contour>
        <pt x="80" y="26" on="1"/>
        <pt x="101" y="198" on="1"/>
        <pt x="112" y="408" on="1"/>
        <pt x="106" y="579" on="1"/>
        <pt x="76" y="586" on="1"/>
        <pt x="77" y="605" on="1"/>
        <pt x="254" y="605" on="1"/>
        <pt x="255" y="586" on="1"/>
        <pt x="213" y="579" on="1"/>
        <pt x="227" y="540" on="1"/>
        <pt x="395" y="193" on="1"/>
        <pt x="541" y="540" on="1"/>
        <pt x="553" y="579" on="1"/>
        <pt x="512" y="586" on="1"/>
        <pt x="513" y="605" on="1"/>
        <pt x="691" y="605" on="1"/>
        <pt x="692" y="586" on="1"/>
        <pt x="662" y="579" on="1"/>
        <pt x="656" y="407" on="1"/>
        <pt x="667" y="197" on="1"/>
        <pt x="688" y="26" on="1"/>
        <pt x="718" y="19" on="1"/>
        <pt x="717" y="0" on="1"/>
        <pt x="540" y="0" on="1"/>
        <pt x="539" y="21" on="1"/>
        <pt x="583" y="26" on="1"/>
        <pt x="589" y="198" on="1"/>
        <pt x="574" y="452" on="1"/>
        <pt x="405" y="70" on="1"/>
        <pt x="377" y="67" on="1"/>
        <pt x="180" y="452" on="1"/>
        <pt x="169" y="197" on="1"/>
        <pt x="175" y="26" on="1"/>
        <pt x="219" y="21" on="1"/>
        <pt x="218" y="0" on="1"/>
        <pt x="51" y="0" on="1"/>
        <pt x="50" y="19" on="1"/>
      </contour>
    </TTGlyph>
    <TTGlyph name="N" xMin="60" yMin="0" xMax="612" yMax="605">
      <contour>
        <pt x="90" y="26" on="1"/>
        <pt x="102" y="198" on="1"/>
        <pt x="102" y="408" on="1"/>
        <pt x="89" y="579" on="1"/>
        <pt x="60" y="586" on="1"/>
        <pt x="61" y="605" on="1"/>
        <pt x="227" y="605" on="1"/>
        <pt x="228" y="584" on="1"/>
        <pt x="184" y="579" on="1"/>
        <pt x="183" y="579" on="1"/>
        <pt x="498" y="146" on="1"/>
        <pt x="498" y="408" on="1"/>
        <pt x="485" y="579" on="1"/>
        <pt x="445" y="584" on="1"/>
        <pt x="446" y="605" on="1"/>
        <pt x="611" y="605" on="1"/>
        <pt x="612" y="586" on="1"/>
        <pt x="582" y="579" on="1"/>
        <pt x="570" y="407" on="1"/>
        <pt x="570" y="224" on="1"/>
        <pt x="582" y="26" on="1"/>
        <pt x="612" y="19" on="1"/>
        <pt x="611" y="0" on="1"/>
        <pt x="449" y="0" on="1"/>
        <pt x="448" y="21" on="1"/>
        <pt x="493" y="26" on="1"/>
        <pt x="174" y="463" on="1"/>
        <pt x="174" y="197" on="1"/>
        <pt x="186" y="26" on="1"/>
        <pt x="226" y="21" on="1"/>
        <pt x="225" y="0" on="1"/>
        <pt x="61" y="0" on="1"/>
        <pt x="60" y="19" on="1"/>
      </contour>
    </TTGlyph>
    <TTGlyph name="Ntilde" xMin="60" yMin="0" xMax="612" yMax="748">
      <contour>
        <pt x="90" y="26" on="1"/>
        <pt x="102" y="198" on="1"/>
        <pt x="102" y="408" on="1"/>
        <pt x="89" y="579" on="1"/>
        <pt x="60" y="586" on="1"/>
        <pt x="61" y="605" on="1"/>
        <pt x="227" y="605" on="1"/>
        <pt x="228" y="584" on="1"/>
        <pt x="183" y="579" on="1"/>
        <pt x="498" y="146" on="1"/>
        <pt x="498" y="408" on="1"/>
        <pt x="485" y="579" on="1"/>
        <pt x="445" y="584" on="1"/>
        <pt x="446" y="605" on="1"/>
        <pt x="611" y="605" on="1"/>
        <pt x="612" y="586" on="1"/>
        <pt x="582" y="579" on="1"/>
        <pt x="570" y="407" on="1"/>
        <pt x="570" y="224" on="1"/>
        <pt x="582" y="26" on="1"/>
        <pt x="612" y="19" on="1"/>
        <pt x="611" y="0" on="1"/>
        <pt x="449" y="0" on="1"/>
        <pt x="448" y="21" on="1"/>
        <pt x="493" y="26" on="1"/>
        <pt x="174" y="463" on="1"/>
        <pt x="174" y="197" on="1"/>
        <pt x="186" y="26" on="1"/>
        <pt x="226" y="21" on="1"/>
        <pt x="225" y="0" on="1"/>
        <pt x="61" y="0" on="1"/>
        <pt x="60" y="19" on="1"/>
      </contour>
      <contour>
        <pt x="467" y="748" on="1"/>
        <pt x="485" y="735" on="1"/>
        <pt x="452" y="680" on="0"/>
        <pt x="424" y="653" on="0"/>
        <pt x="374" y="653" on="0"/>
        <pt x="280" y="690" on="1"/>
        <pt x="233" y="645" on="1"/>
        <pt x="215" y="658" on="1"/>
        <pt x="247" y="713" on="0"/>
        <pt x="277" y="741" on="0"/>
        <pt x="322" y="741" on="0"/>
        <pt x="421" y="704" on="1"/>
      </contour>
    </TTGlyph>
    <TTGlyph name="O" xMin="50" yMin="-15" xMax="628" yMax="620">
      <contour>
        <pt x="231" y="554" on="0"/>
        <pt x="146" y="431" on="0"/>
        <pt x="146" y="180" on="0"/>
        <pt x="255" y="51" on="0"/>
        <pt x="447" y="51" on="0"/>
        <pt x="532" y="172" on="0"/>
        <pt x="532" y="427" on="0"/>
        <pt x="424" y="554" on="0"/>
      </contour>
      <contour>
        <pt x="198" y="-15" on="0"/>
        <pt x="50" y="150" on="0"/>
        <pt x="50" y="444" on="0"/>
        <pt x="212" y="620" on="0"/>
        <pt x="480" y="620" on="0"/>
        <pt x="628" y="456" on="0"/>
        <pt x="628" y="162" on="0"/>
        <pt x="465" y="-15" on="0"/>
      </contour>
    </TTGlyph>
    <TTGlyph name="OE" xMin="50" yMin="-27" xMax="890" yMax="634">
      <contour>
        <pt x="848" y="527" on="1"/>
        <pt x="741" y="537" on="1"/>
        <pt x="593" y="537" on="1"/>
        <pt x="584" y="407" on="1"/>
        <pt x="584" y="361" on="1"/>
        <pt x="776" y="361" on="1"/>
        <pt x="784" y="390" on="1"/>
        <pt x="803" y="390" on="1"/>
        <pt x="797" y="253" on="1"/>
        <pt x="778" y="253" on="1"/>
        <pt x="773" y="293" on="1"/>
        <pt x="584" y="293" on="1"/>
        <pt x="584" y="197" on="1"/>
        <pt x="593" y="68" on="1"/>
        <pt x="741" y="68" on="1"/>
        <pt x="856" y="79" on="1"/>
        <pt x="873" y="119" on="1"/>
        <pt x="890" y="115" on="1"/>
        <pt x="859" y="-27" on="1"/>
        <pt x="841" y="-26" on="1"/>
        <pt x="842" y="0" on="1"/>
        <pt x="429" y="0" on="1"/>
        <pt x="382" y="-15" on="0"/>
        <pt x="328" y="-15" on="1"/>
        <pt x="198" y="-15" on="0"/>
        <pt x="50" y="150" on="0"/>
        <pt x="50" y="444" on="0"/>
        <pt x="212" y="620" on="0"/>
        <pt x="349" y="620" on="1"/>
        <pt x="406" y="620" on="0"/>
        <pt x="451" y="605" on="1"/>
        <pt x="851" y="605" on="1"/>
        <pt x="859" y="634" on="1"/>
        <pt x="878" y="634" on="1"/>
        <pt x="872" y="487" on="1"/>
        <pt x="853" y="487" on="1"/>
      </contour>
      <contour>
        <pt x="231" y="554" on="0"/>
        <pt x="146" y="431" on="0"/>
        <pt x="146" y="180" on="0"/>
        <pt x="255" y="51" on="0"/>
        <pt x="353" y="51" on="1"/>
        <pt x="421" y="51" on="0"/>
        <pt x="497" y="88" on="1"/>
        <pt x="505" y="198" on="1"/>
        <pt x="505" y="408" on="1"/>
        <pt x="498" y="510" on="1"/>
        <pt x="422" y="554" on="0"/>
      </contour>
    </TTGlyph>
    <TTGlyph name="Oacute" xMin="50" yMin="-15" xMax="628" yMax="752">
      <contour>
        <pt x="198" y="-15" on="0"/>
        <pt x="50" y="150" on="0"/>
        <pt x="50" y="444" on="0"/>
        <pt x="212" y="620" on="0"/>
        <pt x="480" y="620" on="0"/>
        <pt x="628" y="456" on="0"/>
        <pt x="628" y="162" on="0"/>
        <pt x="465" y="-15" on="0"/>
      </contour>
      <contour>
        <pt x="231" y="554" on="0"/>
        <pt x="146" y="431" on="0"/>
        <pt x="146" y="180" on="0"/>
        <pt x="255" y="51" on="0"/>
        <pt x="447" y="51" on="0"/>
        <pt x="532" y="172" on="0"/>
        <pt x="532" y="427" on="0"/>
        <pt x="424" y="554" on="0"/>
      </contour>
      <contour>
        <pt x="304" y="645" on="1"/>
        <pt x="293" y="663" on="1"/>
        <pt x="396" y="752" on="1"/>
        <pt x="459" y="752" on="0"/>
        <pt x="494" y="721" on="1"/>
        <pt x="494" y="706" on="1"/>
      </contour>
    </TTGlyph>
    <TTGlyph name="Ocircumflex" xMin="50" yMin="-15" xMax="628" yMax="754">
      <contour>
        <pt x="198" y="-15" on="0"/>
        <pt x="50" y="150" on="0"/>
        <pt x="50" y="444" on="0"/>
        <pt x="212" y="620" on="0"/>
        <pt x="480" y="620" on="0"/>
        <pt x="628" y="456" on="0"/>
        <pt x="628" y="162" on="0"/>
        <pt x="465" y="-15" on="0"/>
      </contour>
      <contour>
        <pt x="231" y="554" on="0"/>
        <pt x="146" y="431" on="0"/>
        <pt x="146" y="180" on="0"/>
        <pt x="255" y="51" on="0"/>
        <pt x="447" y="51" on="0"/>
        <pt x="532" y="172" on="0"/>
        <pt x="532" y="427" on="0"/>
        <pt x="424" y="554" on="0"/>
      </contour>
      <contour>
        <pt x="226" y="645" on="1"/>
        <pt x="215" y="664" on="1"/>
        <pt x="335" y="754" on="1"/>
        <pt x="342" y="754" on="1"/>
        <pt x="462" y="663" on="1"/>
        <pt x="451" y="645" on="1"/>
        <pt x="338" y="683" on="1"/>
      </contour>
    </TTGlyph>
    <TTGlyph name="Odieresis" xMin="50" yMin="-15" xMax="628" yMax="767">
      <contour>
        <pt x="360" y="706" on="1"/>
        <pt x="387" y="746" on="0"/>
        <pt x="418" y="767" on="1"/>
        <pt x="454" y="742" on="0"/>
        <pt x="479" y="706" on="1"/>
        <pt x="456" y="670" on="0"/>
        <pt x="418" y="645" on="1"/>
        <pt x="385" y="666" on="0"/>
      </contour>
      <contour>
        <pt x="199" y="706" on="1"/>
        <pt x="224" y="744" on="0"/>
        <pt x="260" y="767" on="1"/>
        <pt x="290" y="744" on="0"/>
        <pt x="318" y="706" on="1"/>
        <pt x="290" y="666" on="0"/>
        <pt x="260" y="645" on="1"/>
        <pt x="223" y="669" on="0"/>
      </contour>
      <contour>
        <pt x="231" y="554" on="0"/>
        <pt x="146" y="431" on="0"/>
        <pt x="146" y="180" on="0"/>
        <pt x="255" y="51" on="0"/>
        <pt x="447" y="51" on="0"/>
        <pt x="532" y="172" on="0"/>
        <pt x="532" y="427" on="0"/>
        <pt x="424" y="554" on="0"/>
      </contour>
      <contour>
        <pt x="198" y="-15" on="0"/>
        <pt x="50" y="150" on="0"/>
        <pt x="50" y="444" on="0"/>
        <pt x="212" y="620" on="0"/>
        <pt x="480" y="620" on="0"/>
        <pt x="628" y="456" on="0"/>
        <pt x="628" y="162" on="0"/>
        <pt x="465" y="-15" on="0"/>
      </contour>
    </TTGlyph>
    <TTGlyph name="Ograve" xMin="50" yMin="-15" xMax="628" yMax="752">
      <contour>
        <pt x="198" y="-15" on="0"/>
        <pt x="50" y="150" on="0"/>
        <pt x="50" y="444" on="0"/>
        <pt x="212" y="620" on="0"/>
        <pt x="480" y="620" on="0"/>
        <pt x="628" y="456" on="0"/>
        <pt x="628" y="162" on="0"/>
        <pt x="465" y="-15" on="0"/>
      </contour>
      <contour>
        <pt x="231" y="554" on="0"/>
        <pt x="146" y="431" on="0"/>
        <pt x="146" y="180" on="0"/>
        <pt x="255" y="51" on="0"/>
        <pt x="447" y="51" on="0"/>
        <pt x="532" y="172" on="0"/>
        <pt x="532" y="427" on="0"/>
        <pt x="424" y="554" on="0"/>
      </contour>
      <contour>
        <pt x="406" y="663" on="1"/>
        <pt x="395" y="645" on="1"/>
        <pt x="205" y="706" on="1"/>
        <pt x="205" y="721" on="1"/>
        <pt x="240" y="752" on="0"/>
        <pt x="303" y="752" on="1"/>
      </contour>
    </TTGlyph>
    <TTGlyph name="Omega" xMin="15" yMin="0" xMax="707" yMax="620">
      <contour>
        <pt x="225" y="620" on="0"/>
        <pt x="497" y="620" on="0"/>
        <pt x="659" y="478" on="0"/>
        <pt x="659" y="358" on="1"/>
        <pt x="659" y="281" on="0"/>
        <pt x="580" y="125" on="0"/>
        <pt x="512" y="69" on="1"/>
        <pt x="606" y="75" on="1"/>
        <pt x="672" y="89" on="1"/>
        <pt x="689" y="128" on="1"/>
        <pt x="707" y="124" on="1"/>
        <pt x="681" y="0" on="1"/>
        <pt x="404" y="0" on="1"/>
        <pt x="393" y="37" on="1"/>
        <pt x="464" y="63" on="0"/>
        <pt x="563" y="226" on="0"/>
        <pt x="563" y="428" on="0"/>
        <pt x="456" y="554" on="0"/>
        <pt x="266" y="554" on="0"/>
        <pt x="159" y="428" on="0"/>
        <pt x="159" y="226" on="0"/>
        <pt x="258" y="63" on="0"/>
        <pt x="329" y="37" on="1"/>
        <pt x="318" y="0" on="1"/>
        <pt x="41" y="0" on="1"/>
        <pt x="15" y="124" on="1"/>
        <pt x="33" y="128" on="1"/>
        <pt x="49" y="89" on="1"/>
        <pt x="116" y="75" on="1"/>
        <pt x="210" y="69" on="1"/>
        <pt x="142" y="125" on="0"/>
        <pt x="63" y="281" on="0"/>
        <pt x="63" y="358" on="1"/>
        <pt x="63" y="478" on="0"/>
      </contour>
    </TTGlyph>
    <TTGlyph name="Oslash" xMin="50" yMin="-97" xMax="628" yMax="703">
      <contour>
        <pt x="328" y="-15" on="1"/>
        <pt x="303" y="-14" on="1"/>
        <pt x="288" y="-97" on="1"/>
        <pt x="242" y="-89" on="1"/>
        <pt x="257" y="-8" on="1"/>
        <pt x="159" y="13" on="0"/>
        <pt x="50" y="171" on="0"/>
        <pt x="50" y="293" on="1"/>
        <pt x="50" y="444" on="0"/>
        <pt x="212" y="620" on="0"/>
        <pt x="349" y="620" on="1"/>
        <pt x="373" y="619" on="1"/>
        <pt x="389" y="703" on="1"/>
        <pt x="435" y="695" on="1"/>
        <pt x="420" y="613" on="1"/>
        <pt x="519" y="591" on="0"/>
        <pt x="628" y="433" on="0"/>
        <pt x="628" y="311" on="1"/>
        <pt x="628" y="162" on="0"/>
        <pt x="465" y="-15" on="0"/>
      </contour>
      <contour>
        <pt x="532" y="306" on="1"/>
        <pt x="532" y="494" on="0"/>
        <pt x="406" y="540" on="1"/>
        <pt x="316" y="53" on="1"/>
        <pt x="346" y="51" on="0"/>
        <pt x="353" y="51" on="1"/>
        <pt x="447" y="51" on="0"/>
        <pt x="532" y="172" on="0"/>
      </contour>
      <contour>
        <pt x="146" y="297" on="1"/>
        <pt x="146" y="208" on="0"/>
        <pt x="210" y="87" on="0"/>
        <pt x="270" y="65" on="1"/>
        <pt x="361" y="551" on="1"/>
        <pt x="340" y="554" on="0"/>
        <pt x="322" y="554" on="1"/>
        <pt x="231" y="554" on="0"/>
        <pt x="146" y="431" on="0"/>
      </contour>
    </TTGlyph>
    <TTGlyph name="Otilde" xMin="50" yMin="-15" xMax="628" yMax="748">
      <contour>
        <pt x="198" y="-15" on="0"/>
        <pt x="50" y="150" on="0"/>
        <pt x="50" y="444" on="0"/>
        <pt x="212" y="620" on="0"/>
        <pt x="480" y="620" on="0"/>
        <pt x="628" y="456" on="0"/>
        <pt x="628" y="162" on="0"/>
        <pt x="465" y="-15" on="0"/>
      </contour>
      <contour>
        <pt x="231" y="554" on="0"/>
        <pt x="146" y="431" on="0"/>
        <pt x="146" y="180" on="0"/>
        <pt x="255" y="51" on="0"/>
        <pt x="447" y="51" on="0"/>
        <pt x="532" y="172" on="0"/>
        <pt x="532" y="427" on="0"/>
        <pt x="424" y="554" on="0"/>
      </contour>
      <contour>
        <pt x="456" y="748" on="1"/>
        <pt x="474" y="735" on="1"/>
        <pt x="441" y="680" on="0"/>
        <pt x="413" y="653" on="0"/>
        <pt x="363" y="653" on="0"/>
        <pt x="269" y="690" on="1"/>
        <pt x="222" y="645" on="1"/>
        <pt x="204" y="658" on="1"/>
        <pt x="235" y="711" on="0"/>
        <pt x="263" y="741" on="0"/>
        <pt x="310" y="741" on="0"/>
        <pt x="410" y="704" on="1"/>
      </contour>
    </TTGlyph>
    <TTGlyph name="P" xMin="60" yMin="0" xMax="493" yMax="608">
      <contour>
        <pt x="90" y="26" on="1"/>
        <pt x="102" y="198" on="1"/>
        <pt x="102" y="408" on="1"/>
        <pt x="90" y="578" on="1"/>
        <pt x="60" y="585" on="1"/>
        <pt x="61" y="604" on="1"/>
        <pt x="243" y="608" on="0"/>
        <pt x="272" y="608" on="1"/>
        <pt x="493" y="608" on="0"/>
        <pt x="493" y="424" on="1"/>
        <pt x="493" y="330" on="0"/>
        <pt x="357" y="231" on="0"/>
        <pt x="222" y="231" on="1"/>
        <pt x="182" y="231" on="1"/>
        <pt x="182" y="197" on="1"/>
        <pt x="194" y="26" on="1"/>
        <pt x="234" y="21" on="1"/>
        <pt x="233" y="0" on="1"/>
        <pt x="61" y="0" on="1"/>
        <pt x="60" y="19" on="1"/>
      </contour>
      <contour>
        <pt x="264" y="548" on="1"/>
        <pt x="225" y="548" on="0"/>
        <pt x="191" y="537" on="1"/>
        <pt x="182" y="407" on="1"/>
        <pt x="182" y="300" on="1"/>
        <pt x="197" y="296" on="0"/>
        <pt x="246" y="296" on="1"/>
        <pt x="329" y="296" on="0"/>
        <pt x="400" y="353" on="0"/>
        <pt x="400" y="419" on="1"/>
        <pt x="400" y="548" on="0"/>
      </contour>
    </TTGlyph>
    <TTGlyph name="Q" xMin="50" yMin="-152" xMax="706" yMax="620">
      <contour>
        <pt x="198" y="-15" on="0"/>
        <pt x="50" y="150" on="0"/>
        <pt x="50" y="444" on="0"/>
        <pt x="212" y="620" on="0"/>
        <pt x="480" y="620" on="0"/>
        <pt x="628" y="456" on="0"/>
        <pt x="628" y="311" on="1"/>
        <pt x="628" y="219" on="0"/>
        <pt x="563" y="76" on="0"/>
        <pt x="502" y="35" on="1"/>
        <pt x="658" y="-94" on="1"/>
        <pt x="701" y="-88" on="1"/>
        <pt x="706" y="-105" on="1"/>
        <pt x="565" y="-152" on="1"/>
        <pt x="517" y="-79" on="1"/>
        <pt x="444" y="5" on="1"/>
        <pt x="390" y="-15" on="0"/>
        <pt x="328" y="-15" on="1"/>
      </contour>
      <contour>
        <pt x="231" y="554" on="0"/>
        <pt x="146" y="431" on="0"/>
        <pt x="146" y="180" on="0"/>
        <pt x="255" y="51" on="0"/>
        <pt x="447" y="51" on="0"/>
        <pt x="532" y="172" on="0"/>
        <pt x="532" y="427" on="0"/>
        <pt x="424" y="554" on="0"/>
      </contour>
    </TTGlyph>
    <TTGlyph name="R" xMin="60" yMin="0" xMax="558" yMax="608">
      <contour>
        <pt x="90" y="26" on="1"/>
        <pt x="102" y="198" on="1"/>
        <pt x="102" y="408" on="1"/>
        <pt x="90" y="578" on="1"/>
        <pt x="60" y="585" on="1"/>
        <pt x="61" y="604" on="1"/>
        <pt x="223" y="608" on="0"/>
        <pt x="276" y="608" on="1"/>
        <pt x="503" y="608" on="0"/>
        <pt x="503" y="434" on="1"/>
        <pt x="503" y="356" on="0"/>
        <pt x="410" y="266" on="0"/>
        <pt x="323" y="262" on="1"/>
        <pt x="527" y="26" on="1"/>
        <pt x="558" y="19" on="1"/>
        <pt x="557" y="0" on="1"/>
        <pt x="362" y="0" on="1"/>
        <pt x="361" y="21" on="1"/>
        <pt x="403" y="26" on="1"/>
        <pt x="295" y="183" on="1"/>
        <pt x="193" y="300" on="1"/>
        <pt x="195" y="310" on="1"/>
        <pt x="323" y="314" on="0"/>
        <pt x="410" y="362" on="0"/>
        <pt x="410" y="430" on="1"/>
        <pt x="410" y="548" on="0"/>
        <pt x="272" y="548" on="1"/>
        <pt x="233" y="548" on="0"/>
        <pt x="190" y="537" on="1"/>
        <pt x="181" y="407" on="1"/>
        <pt x="181" y="197" on="1"/>
        <pt x="193" y="26" on="1"/>
        <pt x="235" y="21" on="1"/>
        <pt x="234" y="0" on="1"/>
        <pt x="61" y="0" on="1"/>
        <pt x="60" y="19" on="1"/>
      </contour>
    </TTGlyph>
    <TTGlyph name="S" xMin="40" yMin="-15" xMax="455" yMax="627">
      <contour>
        <pt x="112" y="142" on="1"/>
        <pt x="107" y="96" on="1"/>
        <pt x="185" y="51" on="0"/>
        <pt x="307" y="51" on="0"/>
        <pt x="377" y="101" on="0"/>
        <pt x="377" y="182" on="0"/>
        <pt x="331" y="239" on="0"/>
        <pt x="261" y="269" on="0"/>
        <pt x="180" y="306" on="0"/>
        <pt x="110" y="341" on="0"/>
        <pt x="64" y="409" on="0"/>
        <pt x="64" y="456" on="1"/>
        <pt x="64" y="529" on="0"/>
        <pt x="185" y="620" on="0"/>
        <pt x="281" y="620" on="1"/>
        <pt x="340" y="620" on="0"/>
        <pt x="402" y="601" on="1"/>
        <pt x="409" y="627" on="1"/>
        <pt x="428" y="627" on="1"/>
        <pt x="420" y="458" on="1"/>
        <pt x="401" y="458" on="1"/>
        <pt x="394" y="501" on="1"/>
        <pt x="309" y="557" on="0"/>
        <pt x="245" y="557" on="1"/>
        <pt x="201" y="557" on="0"/>
        <pt x="153" y="518" on="0"/>
        <pt x="153" y="440" on="0"/>
        <pt x="215" y="384" on="0"/>
        <pt x="304" y="350" on="0"/>
        <pt x="393" y="311" on="0"/>
        <pt x="455" y="234" on="0"/>
        <pt x="455" y="176" on="1"/>
        <pt x="455" y="88" on="0"/>
        <pt x="325" y="-15" on="0"/>
        <pt x="216" y="-15" on="1"/>
        <pt x="152" y="-15" on="0"/>
        <pt x="72" y="8" on="1"/>
        <pt x="58" y="-14" on="1"/>
        <pt x="40" y="-8" on="1"/>
        <pt x="94" y="147" on="1"/>
      </contour>
    </TTGlyph>
    <TTGlyph name="Scaron" xMin="40" yMin="-15" xMax="455" yMax="754">
      <contour>
        <pt x="388" y="754" on="1"/>
        <pt x="401" y="737" on="1"/>
        <pt x="279" y="645" on="1"/>
        <pt x="272" y="645" on="1"/>
        <pt x="151" y="736" on="1"/>
        <pt x="163" y="754" on="1"/>
        <pt x="276" y="715" on="1"/>
      </contour>
      <contour>
        <pt x="112" y="142" on="1"/>
        <pt x="107" y="96" on="1"/>
        <pt x="185" y="51" on="0"/>
        <pt x="307" y="51" on="0"/>
        <pt x="377" y="101" on="0"/>
        <pt x="377" y="182" on="0"/>
        <pt x="331" y="239" on="0"/>
        <pt x="261" y="269" on="0"/>
        <pt x="180" y="306" on="0"/>
        <pt x="110" y="341" on="0"/>
        <pt x="64" y="409" on="0"/>
        <pt x="64" y="456" on="1"/>
        <pt x="64" y="529" on="0"/>
        <pt x="185" y="620" on="0"/>
        <pt x="281" y="620" on="1"/>
        <pt x="340" y="620" on="0"/>
        <pt x="402" y="601" on="1"/>
        <pt x="409" y="627" on="1"/>
        <pt x="428" y="627" on="1"/>
        <pt x="420" y="458" on="1"/>
        <pt x="401" y="458" on="1"/>
        <pt x="394" y="501" on="1"/>
        <pt x="309" y="557" on="0"/>
        <pt x="245" y="557" on="1"/>
        <pt x="201" y="557" on="0"/>
        <pt x="153" y="518" on="0"/>
        <pt x="153" y="440" on="0"/>
        <pt x="215" y="384" on="0"/>
        <pt x="304" y="350" on="0"/>
        <pt x="393" y="311" on="0"/>
        <pt x="455" y="234" on="0"/>
        <pt x="455" y="176" on="1"/>
        <pt x="455" y="88" on="0"/>
        <pt x="325" y="-15" on="0"/>
        <pt x="216" y="-15" on="1"/>
        <pt x="152" y="-15" on="0"/>
        <pt x="72" y="8" on="1"/>
        <pt x="58" y="-14" on="1"/>
        <pt x="40" y="-8" on="1"/>
        <pt x="94" y="147" on="1"/>
      </contour>
    </TTGlyph>
    <TTGlyph name="T" xMin="5" yMin="0" xMax="460" yMax="638">
      <contour>
        <pt x="33" y="609" on="1"/>
        <pt x="160" y="602" on="1"/>
        <pt x="305" y="602" on="1"/>
        <pt x="432" y="609" on="1"/>
        <pt x="437" y="638" on="1"/>
        <pt x="456" y="638" on="1"/>
        <pt x="460" y="496" on="1"/>
        <pt x="441" y="496" on="1"/>
        <pt x="432" y="535" on="1"/>
        <pt x="282" y="540" on="1"/>
        <pt x="273" y="407" on="1"/>
        <pt x="273" y="197" on="1"/>
        <pt x="285" y="26" on="1"/>
        <pt x="330" y="19" on="1"/>
        <pt x="329" y="0" on="1"/>
        <pt x="138" y="0" on="1"/>
        <pt x="137" y="19" on="1"/>
        <pt x="182" y="26" on="1"/>
        <pt x="194" y="198" on="1"/>
        <pt x="194" y="408" on="1"/>
        <pt x="184" y="540" on="1"/>
        <pt x="33" y="535" on="1"/>
        <pt x="24" y="496" on="1"/>
        <pt x="5" y="496" on="1"/>
        <pt x="9" y="638" on="1"/>
        <pt x="28" y="638" on="1"/>
      </contour>
    </TTGlyph>
    <TTGlyph name="Thorn" xMin="60" yMin="0" xMax="474" yMax="605">
      <contour>
        <pt x="90" y="26" on="1"/>
        <pt x="102" y="198" on="1"/>
        <pt x="102" y="408" on="1"/>
        <pt x="90" y="579" on="1"/>
        <pt x="60" y="586" on="1"/>
        <pt x="61" y="605" on="1"/>
        <pt x="237" y="605" on="1"/>
        <pt x="238" y="586" on="1"/>
        <pt x="193" y="579" on="1"/>
        <pt x="186" y="488" on="1"/>
        <pt x="228" y="494" on="0"/>
        <pt x="262" y="494" on="1"/>
        <pt x="370" y="494" on="0"/>
        <pt x="474" y="407" on="0"/>
        <pt x="474" y="221" on="0"/>
        <pt x="337" y="132" on="0"/>
        <pt x="185" y="132" on="1"/>
        <pt x="193" y="26" on="1"/>
        <pt x="238" y="19" on="1"/>
        <pt x="237" y="0" on="1"/>
        <pt x="61" y="0" on="1"/>
        <pt x="60" y="19" on="1"/>
      </contour>
      <contour>
        <pt x="257" y="434" on="1"/>
        <pt x="212" y="434" on="0"/>
        <pt x="181" y="428" on="1"/>
        <pt x="181" y="200" on="1"/>
        <pt x="197" y="197" on="0"/>
        <pt x="240" y="197" on="1"/>
        <pt x="315" y="197" on="0"/>
        <pt x="381" y="251" on="0"/>
        <pt x="381" y="313" on="1"/>
        <pt x="381" y="434" on="0"/>
      </contour>
    </TTGlyph>
    <TTGlyph name="U" xMin="50" yMin="-15" xMax="582" yMax="605">
      <contour>
        <pt x="183" y="579" on="1"/>
        <pt x="171" y="407" on="1"/>
        <pt x="171" y="297" on="1"/>
        <pt x="171" y="165" on="0"/>
        <pt x="236" y="51" on="0"/>
        <pt x="391" y="51" on="0"/>
        <pt x="461" y="151" on="0"/>
        <pt x="461" y="264" on="1"/>
        <pt x="461" y="408" on="1"/>
        <pt x="450" y="579" on="1"/>
        <pt x="410" y="584" on="1"/>
        <pt x="411" y="605" on="1"/>
        <pt x="581" y="605" on="1"/>
        <pt x="582" y="586" on="1"/>
        <pt x="552" y="579" on="1"/>
        <pt x="540" y="407" on="1"/>
        <pt x="540" y="275" on="1"/>
        <pt x="540" y="-15" on="0"/>
        <pt x="305" y="-15" on="1"/>
        <pt x="92" y="-15" on="0"/>
        <pt x="92" y="263" on="1"/>
        <pt x="92" y="408" on="1"/>
        <pt x="80" y="579" on="1"/>
        <pt x="50" y="586" on="1"/>
        <pt x="51" y="605" on="1"/>
        <pt x="222" y="605" on="1"/>
        <pt x="223" y="584" on="1"/>
      </contour>
    </TTGlyph>
    <TTGlyph name="Uacute" xMin="50" yMin="-15" xMax="582" yMax="752">
      <contour>
        <pt x="183" y="579" on="1"/>
        <pt x="171" y="407" on="1"/>
        <pt x="171" y="297" on="1"/>
        <pt x="171" y="165" on="0"/>
        <pt x="236" y="51" on="0"/>
        <pt x="391" y="51" on="0"/>
        <pt x="461" y="151" on="0"/>
        <pt x="461" y="264" on="1"/>
        <pt x="461" y="408" on="1"/>
        <pt x="450" y="579" on="1"/>
        <pt x="410" y="584" on="1"/>
        <pt x="411" y="605" on="1"/>
        <pt x="581" y="605" on="1"/>
        <pt x="582" y="586" on="1"/>
        <pt x="552" y="579" on="1"/>
        <pt x="540" y="407" on="1"/>
        <pt x="540" y="275" on="1"/>
        <pt x="540" y="-15" on="0"/>
        <pt x="305" y="-15" on="1"/>
        <pt x="92" y="-15" on="0"/>
        <pt x="92" y="263" on="1"/>
        <pt x="92" y="408" on="1"/>
        <pt x="80" y="579" on="1"/>
        <pt x="50" y="586" on="1"/>
        <pt x="51" y="605" on="1"/>
        <pt x="222" y="605" on="1"/>
        <pt x="223" y="584" on="1"/>
      </contour>
      <contour>
        <pt x="268" y="645" on="1"/>
        <pt x="257" y="663" on="1"/>
        <pt x="360" y="752" on="1"/>
        <pt x="423" y="752" on="0"/>
        <pt x="458" y="721" on="1"/>
        <pt x="458" y="706" on="1"/>
      </contour>
    </TTGlyph>
    <TTGlyph name="Ucircumflex" xMin="50" yMin="-15" xMax="582" yMax="754">
      <contour>
        <pt x="183" y="579" on="1"/>
        <pt x="171" y="407" on="1"/>
        <pt x="171" y="297" on="1"/>
        <pt x="171" y="165" on="0"/>
        <pt x="236" y="51" on="0"/>
        <pt x="391" y="51" on="0"/>
        <pt x="461" y="151" on="0"/>
        <pt x="461" y="264" on="1"/>
        <pt x="461" y="408" on="1"/>
        <pt x="450" y="579" on="1"/>
        <pt x="410" y="584" on="1"/>
        <pt x="411" y="605" on="1"/>
        <pt x="581" y="605" on="1"/>
        <pt x="582" y="586" on="1"/>
        <pt x="552" y="579" on="1"/>
        <pt x="540" y="407" on="1"/>
        <pt x="540" y="275" on="1"/>
        <pt x="540" y="-15" on="0"/>
        <pt x="305" y="-15" on="1"/>
        <pt x="92" y="-15" on="0"/>
        <pt x="92" y="263" on="1"/>
        <pt x="92" y="408" on="1"/>
        <pt x="80" y="579" on="1"/>
        <pt x="50" y="586" on="1"/>
        <pt x="51" y="605" on="1"/>
        <pt x="222" y="605" on="1"/>
        <pt x="223" y="584" on="1"/>
      </contour>
      <contour>
        <pt x="203" y="645" on="1"/>
        <pt x="192" y="664" on="1"/>
        <pt x="312" y="754" on="1"/>
        <pt x="319" y="754" on="1"/>
        <pt x="439" y="663" on="1"/>
        <pt x="428" y="645" on="1"/>
        <pt x="315" y="683" on="1"/>
      </contour>
    </TTGlyph>
    <TTGlyph name="Udieresis" xMin="50" yMin="-15" xMax="582" yMax="767">
      <contour>
        <pt x="183" y="579" on="1"/>
        <pt x="171" y="407" on="1"/>
        <pt x="171" y="297" on="1"/>
        <pt x="171" y="165" on="0"/>
        <pt x="236" y="51" on="0"/>
        <pt x="391" y="51" on="0"/>
        <pt x="461" y="151" on="0"/>
        <pt x="461" y="264" on="1"/>
        <pt x="461" y="408" on="1"/>
        <pt x="450" y="579" on="1"/>
        <pt x="410" y="584" on="1"/>
        <pt x="411" y="605" on="1"/>
        <pt x="581" y="605" on="1"/>
        <pt x="582" y="586" on="1"/>
        <pt x="552" y="579" on="1"/>
        <pt x="540" y="407" on="1"/>
        <pt x="540" y="275" on="1"/>
        <pt x="540" y="-15" on="0"/>
        <pt x="305" y="-15" on="1"/>
        <pt x="92" y="-15" on="0"/>
        <pt x="92" y="263" on="1"/>
        <pt x="92" y="408" on="1"/>
        <pt x="80" y="579" on="1"/>
        <pt x="50" y="586" on="1"/>
        <pt x="51" y="605" on="1"/>
        <pt x="222" y="605" on="1"/>
        <pt x="223" y="584" on="1"/>
      </contour>
      <contour>
        <pt x="337" y="706" on="1"/>
        <pt x="364" y="746" on="0"/>
        <pt x="395" y="767" on="1"/>
        <pt x="431" y="742" on="0"/>
        <pt x="456" y="706" on="1"/>
        <pt x="433" y="670" on="0"/>
        <pt x="395" y="645" on="1"/>
        <pt x="362" y="666" on="0"/>
      </contour>
      <contour>
        <pt x="176" y="706" on="1"/>
        <pt x="201" y="744" on="0"/>
        <pt x="237" y="767" on="1"/>
        <pt x="267" y="744" on="0"/>
        <pt x="295" y="706" on="1"/>
        <pt x="267" y="666" on="0"/>
        <pt x="237" y="645" on="1"/>
        <pt x="200" y="669" on="0"/>
      </contour>
    </TTGlyph>
    <TTGlyph name="Ugrave" xMin="50" yMin="-15" xMax="582" yMax="752">
      <contour>
        <pt x="183" y="579" on="1"/>
        <pt x="171" y="407" on="1"/>
        <pt x="171" y="297" on="1"/>
        <pt x="171" y="165" on="0"/>
        <pt x="236" y="51" on="0"/>
        <pt x="391" y="51" on="0"/>
        <pt x="461" y="151" on="0"/>
        <pt x="461" y="264" on="1"/>
        <pt x="461" y="408" on="1"/>
        <pt x="450" y="579" on="1"/>
        <pt x="410" y="584" on="1"/>
        <pt x="411" y="605" on="1"/>
        <pt x="581" y="605" on="1"/>
        <pt x="582" y="586" on="1"/>
        <pt x="552" y="579" on="1"/>
        <pt x="540" y="407" on="1"/>
        <pt x="540" y="275" on="1"/>
        <pt x="540" y="-15" on="0"/>
        <pt x="305" y="-15" on="1"/>
        <pt x="92" y="-15" on="0"/>
        <pt x="92" y="263" on="1"/>
        <pt x="92" y="408" on="1"/>
        <pt x="80" y="579" on="1"/>
        <pt x="50" y="586" on="1"/>
        <pt x="51" y="605" on="1"/>
        <pt x="222" y="605" on="1"/>
        <pt x="223" y="584" on="1"/>
      </contour>
      <contour>
        <pt x="372" y="663" on="1"/>
        <pt x="361" y="645" on="1"/>
        <pt x="171" y="706" on="1"/>
        <pt x="171" y="721" on="1"/>
        <pt x="206" y="752" on="0"/>
        <pt x="269" y="752" on="1"/>
      </contour>
    </TTGlyph>
    <TTGlyph name="V" xMin="-10" yMin="0" xMax="560" yMax="605">
      <contour>
        <pt x="530" y="579" on="1"/>
        <pt x="321" y="26" on="1"/>
        <pt x="352" y="19" on="1"/>
        <pt x="351" y="0" on="1"/>
        <pt x="194" y="0" on="1"/>
        <pt x="193" y="19" on="1"/>
        <pt x="224" y="26" on="1"/>
        <pt x="20" y="579" on="1"/>
        <pt x="-10" y="586" on="1"/>
        <pt x="-9" y="605" on="1"/>
        <pt x="175" y="605" on="1"/>
        <pt x="176" y="584" on="1"/>
        <pt x="132" y="579" on="1"/>
        <pt x="156" y="446" on="1"/>
        <pt x="281" y="84" on="1"/>
        <pt x="405" y="446" on="1"/>
        <pt x="428" y="579" on="1"/>
        <pt x="384" y="584" on="1"/>
        <pt x="385" y="605" on="1"/>
        <pt x="559" y="605" on="1"/>
        <pt x="560" y="586" on="1"/>
      </contour>
    </TTGlyph>
    <TTGlyph name="W" xMin="-10" yMin="0" xMax="893" yMax="605">
      <contour>
        <pt x="572" y="26" on="1"/>
        <pt x="443" y="469" on="1"/>
        <pt x="309" y="26" on="1"/>
        <pt x="353" y="19" on="1"/>
        <pt x="352" y="0" on="1"/>
        <pt x="184" y="0" on="1"/>
        <pt x="183" y="19" on="1"/>
        <pt x="214" y="26" on="1"/>
        <pt x="20" y="579" on="1"/>
        <pt x="-10" y="586" on="1"/>
        <pt x="-9" y="605" on="1"/>
        <pt x="175" y="605" on="1"/>
        <pt x="176" y="584" on="1"/>
        <pt x="132" y="579" on="1"/>
        <pt x="156" y="446" on="1"/>
        <pt x="266" y="100" on="1"/>
        <pt x="399" y="579" on="1"/>
        <pt x="355" y="584" on="1"/>
        <pt x="356" y="605" on="1"/>
        <pt x="540" y="605" on="1"/>
        <pt x="541" y="584" on="1"/>
        <pt x="497" y="579" on="1"/>
        <pt x="628" y="100" on="1"/>
        <pt x="737" y="446" on="1"/>
        <pt x="760" y="579" on="1"/>
        <pt x="716" y="584" on="1"/>
        <pt x="717" y="605" on="1"/>
        <pt x="892" y="605" on="1"/>
        <pt x="893" y="586" on="1"/>
        <pt x="863" y="579" on="1"/>
        <pt x="663" y="26" on="1"/>
        <pt x="695" y="19" on="1"/>
        <pt x="694" y="0" on="1"/>
        <pt x="529" y="0" on="1"/>
        <pt x="528" y="19" on="1"/>
      </contour>
    </TTGlyph>
    <TTGlyph name="X" xMin="-5" yMin="0" xMax="570" yMax="605">
      <contour>
        <pt x="419" y="446" on="1"/>
        <pt x="327" y="314" on="1"/>
        <pt x="434" y="159" on="1"/>
        <pt x="537" y="26" on="1"/>
        <pt x="570" y="19" on="1"/>
        <pt x="569" y="0" on="1"/>
        <pt x="359" y="0" on="1"/>
        <pt x="358" y="21" on="1"/>
        <pt x="402" y="25" on="1"/>
        <pt x="353" y="132" on="1"/>
        <pt x="271" y="252" on="1"/>
        <pt x="193" y="141" on="1"/>
        <pt x="142" y="26" on="1"/>
        <pt x="186" y="21" on="1"/>
        <pt x="185" y="0" on="1"/>
        <pt x="-4" y="0" on="1"/>
        <pt x="-5" y="19" on="1"/>
        <pt x="28" y="26" on="1"/>
        <pt x="133" y="159" on="1"/>
        <pt x="233" y="307" on="1"/>
        <pt x="139" y="446" on="1"/>
        <pt x="37" y="579" on="1"/>
        <pt x="8" y="586" on="1"/>
        <pt x="9" y="605" on="1"/>
        <pt x="218" y="605" on="1"/>
        <pt x="219" y="584" on="1"/>
        <pt x="170" y="579" on="1"/>
        <pt x="221" y="471" on="1"/>
        <pt x="291" y="368" on="1"/>
        <pt x="357" y="464" on="1"/>
        <pt x="408" y="579" on="1"/>
        <pt x="368" y="584" on="1"/>
        <pt x="369" y="605" on="1"/>
        <pt x="555" y="605" on="1"/>
        <pt x="556" y="586" on="1"/>
        <pt x="526" y="579" on="1"/>
      </contour>
    </TTGlyph>
    <TTGlyph name="Y" xMin="-5" yMin="0" xMax="507" yMax="605">
      <contour>
        <pt x="137" y="579" on="1"/>
        <pt x="174" y="472" on="1"/>
        <pt x="258" y="315" on="1"/>
        <pt x="344" y="470" on="1"/>
        <pt x="381" y="579" on="1"/>
        <pt x="339" y="584" on="1"/>
        <pt x="340" y="605" on="1"/>
        <pt x="506" y="605" on="1"/>
        <pt x="507" y="586" on="1"/>
        <pt x="477" y="579" on="1"/>
        <pt x="292" y="255" on="1"/>
        <pt x="292" y="197" on="1"/>
        <pt x="304" y="26" on="1"/>
        <pt x="349" y="19" on="1"/>
        <pt x="348" y="0" on="1"/>
        <pt x="157" y="0" on="1"/>
        <pt x="156" y="19" on="1"/>
        <pt x="201" y="26" on="1"/>
        <pt x="213" y="198" on="1"/>
        <pt x="213" y="242" on="1"/>
        <pt x="25" y="579" on="1"/>
        <pt x="-5" y="586" on="1"/>
        <pt x="-4" y="605" on="1"/>
        <pt x="175" y="605" on="1"/>
        <pt x="176" y="584" on="1"/>
      </contour>
    </TTGlyph>
    <TTGlyph name="Yacute" xMin="-5" yMin="0" xMax="507" yMax="752">
      <contour>
        <pt x="137" y="579" on="1"/>
        <pt x="174" y="472" on="1"/>
        <pt x="258" y="315" on="1"/>
        <pt x="344" y="470" on="1"/>
        <pt x="381" y="579" on="1"/>
        <pt x="339" y="584" on="1"/>
        <pt x="340" y="605" on="1"/>
        <pt x="506" y="605" on="1"/>
        <pt x="507" y="586" on="1"/>
        <pt x="477" y="579" on="1"/>
        <pt x="292" y="255" on="1"/>
        <pt x="292" y="197" on="1"/>
        <pt x="304" y="26" on="1"/>
        <pt x="349" y="19" on="1"/>
        <pt x="348" y="0" on="1"/>
        <pt x="157" y="0" on="1"/>
        <pt x="156" y="19" on="1"/>
        <pt x="201" y="26" on="1"/>
        <pt x="213" y="198" on="1"/>
        <pt x="213" y="242" on="1"/>
        <pt x="25" y="579" on="1"/>
        <pt x="-5" y="586" on="1"/>
        <pt x="-4" y="605" on="1"/>
        <pt x="175" y="605" on="1"/>
        <pt x="176" y="584" on="1"/>
      </contour>
      <contour>
        <pt x="218" y="645" on="1"/>
        <pt x="207" y="663" on="1"/>
        <pt x="310" y="752" on="1"/>
        <pt x="373" y="752" on="0"/>
        <pt x="408" y="721" on="1"/>
        <pt x="408" y="706" on="1"/>
      </contour>
    </TTGlyph>
    <TTGlyph name="Ydieresis" xMin="-5" yMin="0" xMax="507" yMax="767">
      <contour>
        <pt x="137" y="579" on="1"/>
        <pt x="174" y="472" on="1"/>
        <pt x="258" y="315" on="1"/>
        <pt x="344" y="470" on="1"/>
        <pt x="381" y="579" on="1"/>
        <pt x="339" y="584" on="1"/>
        <pt x="340" y="605" on="1"/>
        <pt x="506" y="605" on="1"/>
        <pt x="507" y="586" on="1"/>
        <pt x="477" y="579" on="1"/>
        <pt x="292" y="255" on="1"/>
        <pt x="292" y="197" on="1"/>
        <pt x="304" y="26" on="1"/>
        <pt x="349" y="19" on="1"/>
        <pt x="348" y="0" on="1"/>
        <pt x="157" y="0" on="1"/>
        <pt x="156" y="19" on="1"/>
        <pt x="201" y="26" on="1"/>
        <pt x="213" y="198" on="1"/>
        <pt x="213" y="242" on="1"/>
        <pt x="25" y="579" on="1"/>
        <pt x="-5" y="586" on="1"/>
        <pt x="-4" y="605" on="1"/>
        <pt x="175" y="605" on="1"/>
        <pt x="176" y="584" on="1"/>
      </contour>
      <contour>
        <pt x="282" y="706" on="1"/>
        <pt x="309" y="746" on="0"/>
        <pt x="340" y="767" on="1"/>
        <pt x="376" y="742" on="0"/>
        <pt x="401" y="706" on="1"/>
        <pt x="378" y="670" on="0"/>
        <pt x="340" y="645" on="1"/>
        <pt x="307" y="666" on="0"/>
      </contour>
      <contour>
        <pt x="121" y="706" on="1"/>
        <pt x="146" y="744" on="0"/>
        <pt x="182" y="767" on="1"/>
        <pt x="212" y="744" on="0"/>
        <pt x="240" y="706" on="1"/>
        <pt x="212" y="666" on="0"/>
        <pt x="182" y="645" on="1"/>
        <pt x="145" y="669" on="0"/>
      </contour>
    </TTGlyph>
    <TTGlyph name="Z" xMin="6" yMin="-31" xMax="455" yMax="634">
      <contour>
        <pt x="53" y="605" on="1"/>
        <pt x="329" y="605" on="1"/>
        <pt x="445" y="613" on="1"/>
        <pt x="453" y="596" on="1"/>
        <pt x="131" y="63" on="1"/>
        <pt x="293" y="69" on="1"/>
        <pt x="421" y="87" on="1"/>
        <pt x="438" y="128" on="1"/>
        <pt x="455" y="124" on="1"/>
        <pt x="424" y="-31" on="1"/>
        <pt x="406" y="-30" on="1"/>
        <pt x="407" y="-3" on="1"/>
        <pt x="264" y="5" on="1"/>
        <pt x="119" y="5" on="1"/>
        <pt x="14" y="-1" on="1"/>
        <pt x="6" y="15" on="1"/>
        <pt x="316" y="540" on="1"/>
        <pt x="163" y="534" on="1"/>
        <pt x="56" y="522" on="1"/>
        <pt x="51" y="482" on="1"/>
        <pt x="32" y="482" on="1"/>
        <pt x="26" y="634" on="1"/>
        <pt x="45" y="634" on="1"/>
      </contour>
    </TTGlyph>
    <TTGlyph name="Zcaron" xMin="6" yMin="-31" xMax="455" yMax="754">
      <contour>
        <pt x="53" y="605" on="1"/>
        <pt x="329" y="605" on="1"/>
        <pt x="445" y="613" on="1"/>
        <pt x="453" y="596" on="1"/>
        <pt x="131" y="63" on="1"/>
        <pt x="293" y="69" on="1"/>
        <pt x="421" y="87" on="1"/>
        <pt x="438" y="128" on="1"/>
        <pt x="455" y="124" on="1"/>
        <pt x="424" y="-31" on="1"/>
        <pt x="406" y="-30" on="1"/>
        <pt x="407" y="-3" on="1"/>
        <pt x="264" y="5" on="1"/>
        <pt x="119" y="5" on="1"/>
        <pt x="14" y="-1" on="1"/>
        <pt x="6" y="15" on="1"/>
        <pt x="316" y="540" on="1"/>
        <pt x="163" y="534" on="1"/>
        <pt x="56" y="522" on="1"/>
        <pt x="51" y="482" on="1"/>
        <pt x="32" y="482" on="1"/>
        <pt x="26" y="634" on="1"/>
        <pt x="45" y="634" on="1"/>
      </contour>
      <contour>
        <pt x="351" y="754" on="1"/>
        <pt x="364" y="737" on="1"/>
        <pt x="242" y="645" on="1"/>
        <pt x="235" y="645" on="1"/>
        <pt x="114" y="736" on="1"/>
        <pt x="126" y="754" on="1"/>
        <pt x="239" y="715" on="1"/>
      </contour>
    </TTGlyph>
    <TTGlyph name="a" xMin="40" yMin="-15" xMax="415" yMax="425">
      <contour>
        <pt x="80" y="425" on="1"/>
        <pt x="89" y="403" on="1"/>
        <pt x="153" y="414" on="0"/>
        <pt x="198" y="414" on="1"/>
        <pt x="283" y="414" on="0"/>
        <pt x="374" y="343" on="0"/>
        <pt x="374" y="276" on="1"/>
        <pt x="372" y="177" on="1"/>
        <pt x="381" y="27" on="1"/>
        <pt x="415" y="20" on="1"/>
        <pt x="414" y="1" on="1"/>
        <pt x="290" y="-8" on="1"/>
        <pt x="290" y="33" on="1"/>
        <pt x="231" y="-15" on="0"/>
        <pt x="109" y="-15" on="0"/>
        <pt x="40" y="51" on="0"/>
        <pt x="40" y="167" on="0"/>
        <pt x="140" y="224" on="0"/>
        <pt x="297" y="250" on="1"/>
        <pt x="297" y="276" on="1"/>
        <pt x="297" y="315" on="0"/>
        <pt x="252" y="358" on="0"/>
        <pt x="164" y="358" on="0"/>
        <pt x="95" y="329" on="1"/>
        <pt x="91" y="292" on="1"/>
        <pt x="74" y="291" on="1"/>
        <pt x="64" y="425" on="1"/>
      </contour>
      <contour>
        <pt x="192" y="174" on="0"/>
        <pt x="125" y="143" on="0"/>
        <pt x="125" y="81" on="0"/>
        <pt x="167" y="41" on="0"/>
        <pt x="246" y="41" on="0"/>
        <pt x="290" y="85" on="1"/>
        <pt x="295" y="193" on="1"/>
      </contour>
    </TTGlyph>
    <TTGlyph name="aacute" xMin="40" yMin="-15" xMax="415" yMax="620">
      <contour>
        <pt x="80" y="425" on="1"/>
        <pt x="89" y="403" on="1"/>
        <pt x="153" y="414" on="0"/>
        <pt x="198" y="414" on="1"/>
        <pt x="283" y="414" on="0"/>
        <pt x="374" y="343" on="0"/>
        <pt x="374" y="276" on="1"/>
        <pt x="372" y="177" on="1"/>
        <pt x="381" y="27" on="1"/>
        <pt x="415" y="20" on="1"/>
        <pt x="414" y="1" on="1"/>
        <pt x="290" y="-8" on="1"/>
        <pt x="290" y="33" on="1"/>
        <pt x="231" y="-15" on="0"/>
        <pt x="109" y="-15" on="0"/>
        <pt x="40" y="51" on="0"/>
        <pt x="40" y="167" on="0"/>
        <pt x="140" y="224" on="0"/>
        <pt x="297" y="250" on="1"/>
        <pt x="297" y="276" on="1"/>
        <pt x="297" y="315" on="0"/>
        <pt x="252" y="358" on="0"/>
        <pt x="164" y="358" on="0"/>
        <pt x="95" y="329" on="1"/>
        <pt x="91" y="292" on="1"/>
        <pt x="74" y="291" on="1"/>
        <pt x="64" y="425" on="1"/>
      </contour>
      <contour>
        <pt x="192" y="174" on="0"/>
        <pt x="125" y="143" on="0"/>
        <pt x="125" y="81" on="0"/>
        <pt x="167" y="41" on="0"/>
        <pt x="246" y="41" on="0"/>
        <pt x="290" y="85" on="1"/>
        <pt x="295" y="193" on="1"/>
      </contour>
      <contour>
        <pt x="174" y="481" on="1"/>
        <pt x="158" y="496" on="1"/>
        <pt x="249" y="614" on="1"/>
        <pt x="276" y="620" on="0"/>
        <pt x="340" y="620" on="0"/>
        <pt x="359" y="606" on="1"/>
        <pt x="360" y="588" on="1"/>
      </contour>
    </TTGlyph>
    <TTGlyph name="acircumflex" xMin="40" yMin="-15" xMax="415" yMax="626">
      <contour>
        <pt x="80" y="425" on="1"/>
        <pt x="89" y="403" on="1"/>
        <pt x="153" y="414" on="0"/>
        <pt x="198" y="414" on="1"/>
        <pt x="283" y="414" on="0"/>
        <pt x="374" y="343" on="0"/>
        <pt x="374" y="276" on="1"/>
        <pt x="372" y="177" on="1"/>
        <pt x="381" y="27" on="1"/>
        <pt x="415" y="20" on="1"/>
        <pt x="414" y="1" on="1"/>
        <pt x="290" y="-8" on="1"/>
        <pt x="290" y="33" on="1"/>
        <pt x="231" y="-15" on="0"/>
        <pt x="109" y="-15" on="0"/>
        <pt x="40" y="51" on="0"/>
        <pt x="40" y="167" on="0"/>
        <pt x="140" y="224" on="0"/>
        <pt x="297" y="250" on="1"/>
        <pt x="297" y="276" on="1"/>
        <pt x="297" y="315" on="0"/>
        <pt x="252" y="358" on="0"/>
        <pt x="164" y="358" on="0"/>
        <pt x="95" y="329" on="1"/>
        <pt x="91" y="292" on="1"/>
        <pt x="74" y="291" on="1"/>
        <pt x="64" y="425" on="1"/>
      </contour>
      <contour>
        <pt x="192" y="174" on="0"/>
        <pt x="125" y="143" on="0"/>
        <pt x="125" y="81" on="0"/>
        <pt x="167" y="41" on="0"/>
        <pt x="246" y="41" on="0"/>
        <pt x="290" y="85" on="1"/>
        <pt x="295" y="193" on="1"/>
      </contour>
      <contour>
        <pt x="100" y="481" on="1"/>
        <pt x="84" y="496" on="1"/>
        <pt x="199" y="626" on="1"/>
        <pt x="226" y="626" on="1"/>
        <pt x="341" y="496" on="1"/>
        <pt x="325" y="481" on="1"/>
        <pt x="213" y="545" on="1"/>
      </contour>
    </TTGlyph>
    <TTGlyph name="acute" xMin="152" yMin="481" xMax="354" yMax="620">
      <contour>
        <pt x="168" y="481" on="1"/>
        <pt x="152" y="496" on="1"/>
        <pt x="243" y="614" on="1"/>
        <pt x="270" y="620" on="0"/>
        <pt x="334" y="620" on="0"/>
        <pt x="353" y="606" on="1"/>
        <pt x="354" y="588" on="1"/>
      </contour>
    </TTGlyph>
    <TTGlyph name="adieresis" xMin="40" yMin="-15" xMax="415" yMax="608">
      <contour>
        <pt x="80" y="425" on="1"/>
        <pt x="89" y="403" on="1"/>
        <pt x="153" y="414" on="0"/>
        <pt x="198" y="414" on="1"/>
        <pt x="283" y="414" on="0"/>
        <pt x="374" y="343" on="0"/>
        <pt x="374" y="276" on="1"/>
        <pt x="372" y="177" on="1"/>
        <pt x="381" y="27" on="1"/>
        <pt x="415" y="20" on="1"/>
        <pt x="414" y="1" on="1"/>
        <pt x="290" y="-8" on="1"/>
        <pt x="290" y="33" on="1"/>
        <pt x="231" y="-15" on="0"/>
        <pt x="109" y="-15" on="0"/>
        <pt x="40" y="51" on="0"/>
        <pt x="40" y="167" on="0"/>
        <pt x="140" y="224" on="0"/>
        <pt x="297" y="250" on="1"/>
        <pt x="297" y="276" on="1"/>
        <pt x="297" y="315" on="0"/>
        <pt x="252" y="358" on="0"/>
        <pt x="164" y="358" on="0"/>
        <pt x="95" y="329" on="1"/>
        <pt x="91" y="292" on="1"/>
        <pt x="74" y="291" on="1"/>
        <pt x="64" y="425" on="1"/>
      </contour>
      <contour>
        <pt x="192" y="174" on="0"/>
        <pt x="125" y="143" on="0"/>
        <pt x="125" y="81" on="0"/>
        <pt x="167" y="41" on="0"/>
        <pt x="246" y="41" on="0"/>
        <pt x="290" y="85" on="1"/>
        <pt x="295" y="193" on="1"/>
      </contour>
      <contour>
        <pt x="238" y="547" on="1"/>
        <pt x="265" y="587" on="0"/>
        <pt x="296" y="608" on="1"/>
        <pt x="332" y="583" on="0"/>
        <pt x="357" y="547" on="1"/>
        <pt x="334" y="511" on="0"/>
        <pt x="296" y="486" on="1"/>
        <pt x="263" y="507" on="0"/>
      </contour>
      <contour>
        <pt x="77" y="547" on="1"/>
        <pt x="102" y="585" on="0"/>
        <pt x="138" y="608" on="1"/>
        <pt x="168" y="585" on="0"/>
        <pt x="196" y="547" on="1"/>
        <pt x="168" y="507" on="0"/>
        <pt x="138" y="486" on="1"/>
        <pt x="101" y="510" on="0"/>
      </contour>
    </TTGlyph>
    <TTGlyph name="ae" xMin="40" yMin="-15" xMax="656" yMax="425">
      <contour>
        <pt x="80" y="425" on="1"/>
        <pt x="89" y="403" on="1"/>
        <pt x="151" y="414" on="0"/>
        <pt x="198" y="414" on="1"/>
        <pt x="303" y="414" on="0"/>
        <pt x="349" y="349" on="1"/>
        <pt x="402" y="414" on="0"/>
        <pt x="573" y="414" on="0"/>
        <pt x="656" y="334" on="0"/>
        <pt x="656" y="249" on="1"/>
        <pt x="656" y="225" on="0"/>
        <pt x="653" y="198" on="1"/>
        <pt x="377" y="198" on="1"/>
        <pt x="377" y="147" on="0"/>
        <pt x="397" y="100" on="1"/>
        <pt x="408" y="74" on="0"/>
        <pt x="456" y="41" on="0"/>
        <pt x="491" y="41" on="1"/>
        <pt x="556" y="41" on="0"/>
        <pt x="613" y="85" on="1"/>
        <pt x="620" y="126" on="1"/>
        <pt x="637" y="125" on="1"/>
        <pt x="644" y="-14" on="1"/>
        <pt x="628" y="-14" on="1"/>
        <pt x="619" y="9" on="1"/>
        <pt x="554" y="-15" on="0"/>
        <pt x="481" y="-15" on="1"/>
        <pt x="378" y="-15" on="0"/>
        <pt x="327" y="62" on="1"/>
        <pt x="244" y="-15" on="0"/>
        <pt x="166" y="-15" on="1"/>
        <pt x="111" y="-15" on="0"/>
        <pt x="40" y="49" on="0"/>
        <pt x="40" y="172" on="0"/>
        <pt x="150" y="226" on="0"/>
        <pt x="297" y="248" on="1"/>
        <pt x="297" y="276" on="1"/>
        <pt x="297" y="314" on="0"/>
        <pt x="253" y="358" on="0"/>
        <pt x="164" y="358" on="0"/>
        <pt x="95" y="329" on="1"/>
        <pt x="91" y="292" on="1"/>
        <pt x="74" y="291" on="1"/>
        <pt x="64" y="425" on="1"/>
      </contour>
      <contour>
        <pt x="293" y="192" on="1"/>
        <pt x="183" y="176" on="0"/>
        <pt x="125" y="139" on="0"/>
        <pt x="125" y="80" on="0"/>
        <pt x="169" y="41" on="0"/>
        <pt x="201" y="41" on="1"/>
        <pt x="250" y="41" on="0"/>
        <pt x="309" y="98" on="1"/>
        <pt x="293" y="137" on="0"/>
      </contour>
      <contour>
        <pt x="379" y="250" on="1"/>
        <pt x="573" y="251" on="1"/>
        <pt x="573" y="306" on="0"/>
        <pt x="531" y="358" on="0"/>
        <pt x="479" y="358" on="1"/>
        <pt x="388" y="358" on="0"/>
      </contour>
    </TTGlyph>
    <TTGlyph name="agrave" xMin="40" yMin="-15" xMax="415" yMax="620">
      <contour>
        <pt x="80" y="425" on="1"/>
        <pt x="89" y="403" on="1"/>
        <pt x="153" y="414" on="0"/>
        <pt x="198" y="414" on="1"/>
        <pt x="283" y="414" on="0"/>
        <pt x="374" y="343" on="0"/>
        <pt x="374" y="276" on="1"/>
        <pt x="372" y="177" on="1"/>
        <pt x="381" y="27" on="1"/>
        <pt x="415" y="20" on="1"/>
        <pt x="414" y="1" on="1"/>
        <pt x="290" y="-8" on="1"/>
        <pt x="290" y="33" on="1"/>
        <pt x="231" y="-15" on="0"/>
        <pt x="109" y="-15" on="0"/>
        <pt x="40" y="51" on="0"/>
        <pt x="40" y="167" on="0"/>
        <pt x="140" y="224" on="0"/>
        <pt x="297" y="250" on="1"/>
        <pt x="297" y="276" on="1"/>
        <pt x="297" y="315" on="0"/>
        <pt x="252" y="358" on="0"/>
        <pt x="164" y="358" on="0"/>
        <pt x="95" y="329" on="1"/>
        <pt x="91" y="292" on="1"/>
        <pt x="74" y="291" on="1"/>
        <pt x="64" y="425" on="1"/>
      </contour>
      <contour>
        <pt x="192" y="174" on="0"/>
        <pt x="125" y="143" on="0"/>
        <pt x="125" y="81" on="0"/>
        <pt x="167" y="41" on="0"/>
        <pt x="246" y="41" on="0"/>
        <pt x="290" y="85" on="1"/>
        <pt x="295" y="193" on="1"/>
      </contour>
      <contour>
        <pt x="277" y="496" on="1"/>
        <pt x="261" y="481" on="1"/>
        <pt x="75" y="588" on="1"/>
        <pt x="76" y="606" on="1"/>
        <pt x="95" y="620" on="0"/>
        <pt x="159" y="620" on="0"/>
        <pt x="186" y="614" on="1"/>
      </contour>
    </TTGlyph>
    <TTGlyph name="ampersand" xMin="40" yMin="-15" xMax="576" yMax="620">
      <contour>
        <pt x="451" y="108" on="1"/>
        <pt x="461" y="98" on="0"/>
        <pt x="544" y="26" on="1"/>
        <pt x="576" y="19" on="1"/>
        <pt x="575" y="0" on="1"/>
        <pt x="437" y="0" on="1"/>
        <pt x="396" y="39" on="1"/>
        <pt x="334" y="-15" on="0"/>
        <pt x="142" y="-15" on="0"/>
        <pt x="40" y="75" on="0"/>
        <pt x="40" y="158" on="1"/>
        <pt x="40" y="207" on="0"/>
        <pt x="85" y="278" on="0"/>
        <pt x="135" y="308" on="1"/>
        <pt x="65" y="402" on="0"/>
        <pt x="65" y="545" on="0"/>
        <pt x="156" y="620" on="0"/>
        <pt x="305" y="620" on="0"/>
        <pt x="383" y="551" on="0"/>
        <pt x="383" y="494" on="1"/>
        <pt x="383" y="385" on="0"/>
        <pt x="230" y="322" on="1"/>
        <pt x="281" y="260" on="0"/>
        <pt x="408" y="146" on="1"/>
        <pt x="419" y="187" on="0"/>
        <pt x="419" y="252" on="0"/>
        <pt x="414" y="299" on="1"/>
        <pt x="370" y="304" on="1"/>
        <pt x="371" y="325" on="1"/>
        <pt x="528" y="325" on="1"/>
        <pt x="529" y="306" on="1"/>
        <pt x="499" y="299" on="1"/>
        <pt x="491" y="181" on="0"/>
      </contour>
      <contour>
        <pt x="170" y="265" on="1"/>
        <pt x="126" y="221" on="0"/>
        <pt x="126" y="173" on="1"/>
        <pt x="126" y="41" on="0"/>
        <pt x="253" y="41" on="1"/>
        <pt x="321" y="41" on="0"/>
        <pt x="361" y="72" on="1"/>
        <pt x="225" y="200" on="0"/>
      </contour>
      <contour>
        <pt x="256" y="389" on="0"/>
        <pt x="302" y="450" on="0"/>
        <pt x="302" y="523" on="0"/>
        <pt x="259" y="567" on="0"/>
        <pt x="188" y="567" on="0"/>
        <pt x="147" y="525" on="0"/>
        <pt x="147" y="488" on="1"/>
        <pt x="147" y="433" on="0"/>
        <pt x="202" y="357" on="1"/>
      </contour>
    </TTGlyph>
    <TTGlyph name="apple" xMin="80" yMin="-1" xMax="736" yMax="688">
      <contour>
        <pt x="526" y="295" on="1"/>
        <pt x="530" y="259" on="0"/>
        <pt x="530" y="250" on="1"/>
        <pt x="591" y="232" on="0"/>
        <pt x="665" y="224" on="0"/>
        <pt x="707" y="185" on="0"/>
        <pt x="721" y="132" on="0"/>
        <pt x="736" y="62" on="0"/>
        <pt x="736" y="6" on="1"/>
        <pt x="736" y="-1" on="0"/>
        <pt x="729" y="-1" on="1"/>
        <pt x="703" y="-1" on="1"/>
        <pt x="697" y="-1" on="0"/>
        <pt x="697" y="12" on="0"/>
        <pt x="704" y="12" on="1"/>
        <pt x="723" y="12" on="1"/>
        <pt x="723" y="59" on="0"/>
        <pt x="705" y="137" on="1"/>
        <pt x="700" y="159" on="1"/>
        <pt x="696" y="179" on="0"/>
        <pt x="660" y="211" on="0"/>
        <pt x="588" y="218" on="0"/>
        <pt x="519" y="241" on="0"/>
        <pt x="518" y="243" on="1"/>
        <pt x="517" y="249" on="0"/>
        <pt x="514" y="289" on="0"/>
        <pt x="513" y="296" on="1"/>
        <pt x="486" y="296" on="0"/>
        <pt x="460" y="309" on="1"/>
        <pt x="457" y="310" on="0"/>
        <pt x="457" y="322" on="0"/>
        <pt x="464" y="322" on="1"/>
        <pt x="465" y="322" on="0"/>
        <pt x="498" y="309" on="0"/>
        <pt x="542" y="309" on="0"/>
        <pt x="553" y="321" on="0"/>
        <pt x="570" y="430" on="0"/>
        <pt x="577" y="445" on="1"/>
        <pt x="581" y="458" on="0"/>
        <pt x="581" y="556" on="0"/>
        <pt x="577" y="576" on="1"/>
        <pt x="559" y="673" on="0"/>
        <pt x="447" y="673" on="1"/>
        <pt x="363" y="673" on="0"/>
        <pt x="269" y="588" on="0"/>
        <pt x="269" y="447" on="0"/>
        <pt x="314" y="358" on="0"/>
        <pt x="353" y="348" on="1"/>
        <pt x="359" y="346" on="0"/>
        <pt x="359" y="334" on="0"/>
        <pt x="353" y="241" on="0"/>
        <pt x="350" y="237" on="0"/>
        <pt x="348" y="237" on="1"/>
        <pt x="322" y="237" on="0"/>
        <pt x="208" y="193" on="0"/>
        <pt x="186" y="190" on="1"/>
        <pt x="130" y="182" on="0"/>
        <pt x="118" y="136" on="1"/>
        <pt x="111" y="107" on="1"/>
        <pt x="97" y="47" on="0"/>
        <pt x="94" y="12" on="1"/>
        <pt x="236" y="12" on="1"/>
        <pt x="243" y="12" on="0"/>
        <pt x="243" y="-1" on="0"/>
        <pt x="236" y="-1" on="1"/>
        <pt x="87" y="-1" on="1"/>
        <pt x="80" y="-1" on="0"/>
        <pt x="80" y="6" on="1"/>
        <pt x="83" y="48" on="0"/>
        <pt x="98" y="108" on="1"/>
        <pt x="106" y="138" on="1"/>
        <pt x="110" y="162" on="0"/>
        <pt x="153" y="201" on="0"/>
        <pt x="207" y="208" on="0"/>
        <pt x="318" y="249" on="0"/>
        <pt x="341" y="250" on="1"/>
        <pt x="345" y="306" on="0"/>
        <pt x="346" y="336" on="1"/>
        <pt x="303" y="350" on="0"/>
        <pt x="256" y="443" on="0"/>
        <pt x="256" y="595" on="0"/>
        <pt x="356" y="688" on="0"/>
        <pt x="447" y="688" on="1"/>
        <pt x="568" y="688" on="0"/>
        <pt x="592" y="579" on="1"/>
        <pt x="595" y="561" on="0"/>
        <pt x="595" y="467" on="0"/>
        <pt x="590" y="440" on="1"/>
        <pt x="577" y="408" on="0"/>
        <pt x="567" y="319" on="0"/>
        <pt x="548" y="297" on="0"/>
      </contour>
      <contour>
        <pt x="507" y="563" on="1"/>
        <pt x="512" y="558" on="1"/>
        <pt x="494" y="530" on="1"/>
        <pt x="481" y="541" on="1"/>
      </contour>
      <contour>
        <pt x="515" y="558" on="1"/>
        <pt x="520" y="563" on="1"/>
        <pt x="546" y="541" on="1"/>
        <pt x="533" y="530" on="1"/>
      </contour>
      <contour>
        <pt x="517" y="574" on="1"/>
        <pt x="510" y="574" on="1"/>
        <pt x="505" y="605" on="1"/>
        <pt x="522" y="605" on="1"/>
      </contour>
      <contour>
        <pt x="509" y="572" on="1"/>
        <pt x="506" y="565" on="1"/>
        <pt x="475" y="572" on="1"/>
        <pt x="481" y="587" on="1"/>
      </contour>
      <contour>
        <pt x="520" y="565" on="1"/>
        <pt x="518" y="572" on="1"/>
        <pt x="546" y="587" on="1"/>
        <pt x="552" y="572" on="1"/>
      </contour>
    </TTGlyph>
    <TTGlyph name="approxequal" xMin="74" yMin="109" xMax="478" yMax="389">
      <contour>
        <pt x="450" y="389" on="1"/>
        <pt x="478" y="346" on="1"/>
        <pt x="425" y="284" on="0"/>
        <pt x="354" y="284" on="1"/>
        <pt x="319" y="284" on="0"/>
        <pt x="208" y="319" on="0"/>
        <pt x="191" y="319" on="1"/>
        <pt x="144" y="319" on="0"/>
        <pt x="102" y="277" on="1"/>
        <pt x="74" y="320" on="1"/>
        <pt x="130" y="382" on="0"/>
        <pt x="194" y="382" on="1"/>
        <pt x="231" y="382" on="0"/>
        <pt x="336" y="347" on="0"/>
        <pt x="359" y="347" on="1"/>
        <pt x="408" y="347" on="0"/>
      </contour>
      <contour>
        <pt x="450" y="221" on="1"/>
        <pt x="478" y="178" on="1"/>
        <pt x="425" y="116" on="0"/>
        <pt x="354" y="116" on="1"/>
        <pt x="319" y="116" on="0"/>
        <pt x="208" y="151" on="0"/>
        <pt x="191" y="151" on="1"/>
        <pt x="144" y="151" on="0"/>
        <pt x="102" y="109" on="1"/>
        <pt x="74" y="152" on="1"/>
        <pt x="130" y="214" on="0"/>
        <pt x="194" y="214" on="1"/>
        <pt x="231" y="214" on="0"/>
        <pt x="336" y="179" on="0"/>
        <pt x="359" y="179" on="1"/>
        <pt x="408" y="179" on="0"/>
      </contour>
    </TTGlyph>
    <TTGlyph name="aring" xMin="40" yMin="-15" xMax="415" yMax="632">
      <contour>
        <pt x="80" y="425" on="1"/>
        <pt x="89" y="403" on="1"/>
        <pt x="151" y="414" on="0"/>
        <pt x="198" y="414" on="1"/>
        <pt x="274" y="414" on="0"/>
        <pt x="374" y="351" on="0"/>
        <pt x="374" y="276" on="1"/>
        <pt x="372" y="177" on="1"/>
        <pt x="381" y="27" on="1"/>
        <pt x="415" y="20" on="1"/>
        <pt x="414" y="1" on="1"/>
        <pt x="290" y="-8" on="1"/>
        <pt x="290" y="33" on="1"/>
        <pt x="232" y="-15" on="0"/>
        <pt x="111" y="-15" on="0"/>
        <pt x="40" y="49" on="0"/>
        <pt x="40" y="105" on="1"/>
        <pt x="40" y="158" on="0"/>
        <pt x="78" y="188" on="1"/>
        <pt x="110" y="214" on="0"/>
        <pt x="200" y="232" on="1"/>
        <pt x="236" y="240" on="0"/>
        <pt x="297" y="250" on="1"/>
        <pt x="297" y="276" on="1"/>
        <pt x="297" y="314" on="0"/>
        <pt x="253" y="358" on="0"/>
        <pt x="164" y="358" on="0"/>
        <pt x="95" y="329" on="1"/>
        <pt x="91" y="292" on="1"/>
        <pt x="74" y="291" on="1"/>
        <pt x="64" y="425" on="1"/>
      </contour>
      <contour>
        <pt x="125" y="80" on="0"/>
        <pt x="169" y="41" on="0"/>
        <pt x="246" y="41" on="0"/>
        <pt x="290" y="85" on="1"/>
        <pt x="295" y="193" on="1"/>
        <pt x="287" y="191" on="0"/>
        <pt x="252" y="186" on="0"/>
        <pt x="233" y="182" on="0"/>
        <pt x="201" y="176" on="0"/>
        <pt x="183" y="170" on="0"/>
        <pt x="159" y="161" on="0"/>
        <pt x="145" y="151" on="0"/>
        <pt x="138" y="144" on="1"/>
        <pt x="125" y="132" on="0"/>
      </contour>
      <contour>
        <pt x="175" y="632" on="0"/>
        <pt x="241" y="632" on="0"/>
        <pt x="285" y="589" on="0"/>
        <pt x="285" y="524" on="0"/>
        <pt x="242" y="481" on="0"/>
        <pt x="174" y="481" on="0"/>
        <pt x="131" y="524" on="0"/>
        <pt x="131" y="589" on="0"/>
      </contour>
      <contour>
        <pt x="191" y="513" on="0"/>
        <pt x="225" y="513" on="0"/>
        <pt x="246" y="537" on="0"/>
        <pt x="246" y="575" on="0"/>
        <pt x="225" y="598" on="0"/>
        <pt x="191" y="598" on="0"/>
        <pt x="169" y="575" on="0"/>
        <pt x="169" y="537" on="0"/>
      </contour>
    </TTGlyph>
    <TTGlyph name="asciicircum" xMin="80" yMin="278" xMax="481" yMax="605">
      <contour>
        <pt x="80" y="278" on="1"/>
        <pt x="252" y="605" on="1"/>
        <pt x="309" y="605" on="1"/>
        <pt x="481" y="278" on="1"/>
        <pt x="401" y="278" on="1"/>
        <pt x="282" y="515" on="1"/>
        <pt x="160" y="278" on="1"/>
      </contour>
    </TTGlyph>
    <TTGlyph name="asciitilde" xMin="70" yMin="221" xMax="478" yMax="339">
      <contour>
        <pt x="185" y="263" on="1"/>
        <pt x="144" y="263" on="0"/>
        <pt x="102" y="221" on="1"/>
        <pt x="70" y="270" on="1"/>
        <pt x="117" y="332" on="0"/>
        <pt x="203" y="332" on="1"/>
        <pt x="226" y="332" on="0"/>
        <pt x="333" y="297" on="0"/>
        <pt x="404" y="297" on="0"/>
        <pt x="446" y="339" on="1"/>
        <pt x="478" y="290" on="1"/>
        <pt x="426" y="228" on="0"/>
        <pt x="345" y="228" on="1"/>
        <pt x="317" y="228" on="0"/>
        <pt x="209" y="263" on="0"/>
      </contour>
    </TTGlyph>
    <TTGlyph name="asterisk" xMin="35" yMin="248" xMax="418" yMax="617">
      <contour>
        <pt x="219" y="443" on="1"/>
        <pt x="189" y="585" on="1"/>
        <pt x="198" y="609" on="0"/>
        <pt x="227" y="617" on="1"/>
        <pt x="257" y="607" on="0"/>
        <pt x="265" y="585" on="1"/>
        <pt x="235" y="443" on="1"/>
      </contour>
      <contour>
        <pt x="253" y="392" on="1"/>
        <pt x="369" y="305" on="1"/>
        <pt x="373" y="298" on="0"/>
        <pt x="373" y="270" on="0"/>
        <pt x="362" y="256" on="1"/>
        <pt x="347" y="248" on="0"/>
        <pt x="323" y="248" on="0"/>
        <pt x="313" y="255" on="1"/>
        <pt x="241" y="381" on="1"/>
      </contour>
      <contour>
        <pt x="85" y="305" on="1"/>
        <pt x="201" y="392" on="1"/>
        <pt x="213" y="381" on="1"/>
        <pt x="141" y="255" on="1"/>
        <pt x="130" y="248" on="0"/>
        <pt x="105" y="248" on="0"/>
        <pt x="92" y="256" on="1"/>
        <pt x="81" y="270" on="0"/>
        <pt x="81" y="298" on="0"/>
      </contour>
      <contour>
        <pt x="80" y="512" on="1"/>
        <pt x="201" y="432" on="1"/>
        <pt x="195" y="417" on="1"/>
        <pt x="52" y="442" on="1"/>
        <pt x="35" y="456" on="0"/>
        <pt x="35" y="479" on="1"/>
        <pt x="35" y="487" on="0"/>
        <pt x="36" y="489" on="1"/>
        <pt x="52" y="512" on="0"/>
      </contour>
      <contour>
        <pt x="253" y="432" on="1"/>
        <pt x="374" y="512" on="1"/>
        <pt x="401" y="512" on="0"/>
        <pt x="418" y="489" on="1"/>
        <pt x="418" y="468" on="0"/>
        <pt x="412" y="452" on="0"/>
        <pt x="402" y="442" on="1"/>
        <pt x="259" y="417" on="1"/>
      </contour>
    </TTGlyph>
    <TTGlyph name="at" xMin="50" yMin="-173" xMax="766" yMax="583">
      <contour>
        <pt x="552" y="218" on="1"/>
        <pt x="546" y="56" on="1"/>
        <pt x="554" y="55" on="0"/>
        <pt x="563" y="55" on="1"/>
        <pt x="691" y="55" on="0"/>
        <pt x="691" y="257" on="1"/>
        <pt x="691" y="378" on="0"/>
        <pt x="540" y="531" on="0"/>
        <pt x="290" y="531" on="0"/>
        <pt x="126" y="352" on="0"/>
        <pt x="126" y="60" on="0"/>
        <pt x="307" y="-126" on="0"/>
        <pt x="452" y="-126" on="1"/>
        <pt x="533" y="-126" on="0"/>
        <pt x="630" y="-88" on="1"/>
        <pt x="644" y="-120" on="1"/>
        <pt x="549" y="-173" on="0"/>
        <pt x="433" y="-173" on="1"/>
        <pt x="265" y="-173" on="0"/>
        <pt x="50" y="38" on="0"/>
        <pt x="50" y="367" on="0"/>
        <pt x="266" y="583" on="0"/>
        <pt x="579" y="583" on="0"/>
        <pt x="766" y="400" on="0"/>
        <pt x="766" y="256" on="1"/>
        <pt x="766" y="157" on="0"/>
        <pt x="640" y="6" on="0"/>
        <pt x="557" y="6" on="1"/>
        <pt x="498" y="6" on="0"/>
        <pt x="468" y="33" on="0"/>
        <pt x="468" y="86" on="1"/>
        <pt x="403" y="6" on="0"/>
        <pt x="326" y="6" on="1"/>
        <pt x="284" y="6" on="0"/>
        <pt x="227" y="108" on="0"/>
        <pt x="227" y="184" on="1"/>
        <pt x="227" y="288" on="0"/>
        <pt x="345" y="424" on="0"/>
        <pt x="435" y="424" on="1"/>
        <pt x="489" y="424" on="0"/>
        <pt x="574" y="403" on="1"/>
        <pt x="558" y="293" on="1"/>
      </contour>
      <contour>
        <pt x="416" y="370" on="1"/>
        <pt x="366" y="370" on="0"/>
        <pt x="312" y="278" on="0"/>
        <pt x="312" y="204" on="1"/>
        <pt x="312" y="60" on="0"/>
        <pt x="360" y="60" on="1"/>
        <pt x="410" y="60" on="0"/>
        <pt x="469" y="148" on="1"/>
        <pt x="486" y="358" on="1"/>
        <pt x="435" y="370" on="0"/>
      </contour>
    </TTGlyph>
    <TTGlyph name="atilde" xMin="40" yMin="-15" xMax="415" yMax="600">
      <contour>
        <pt x="80" y="425" on="1"/>
        <pt x="89" y="403" on="1"/>
        <pt x="153" y="414" on="0"/>
        <pt x="198" y="414" on="1"/>
        <pt x="283" y="414" on="0"/>
        <pt x="374" y="343" on="0"/>
        <pt x="374" y="276" on="1"/>
        <pt x="372" y="177" on="1"/>
        <pt x="381" y="27" on="1"/>
        <pt x="415" y="20" on="1"/>
        <pt x="414" y="1" on="1"/>
        <pt x="290" y="-8" on="1"/>
        <pt x="290" y="33" on="1"/>
        <pt x="231" y="-15" on="0"/>
        <pt x="109" y="-15" on="0"/>
        <pt x="40" y="51" on="0"/>
        <pt x="40" y="167" on="0"/>
        <pt x="140" y="224" on="0"/>
        <pt x="297" y="250" on="1"/>
        <pt x="297" y="276" on="1"/>
        <pt x="297" y="315" on="0"/>
        <pt x="252" y="358" on="0"/>
        <pt x="164" y="358" on="0"/>
        <pt x="95" y="329" on="1"/>
        <pt x="91" y="292" on="1"/>
        <pt x="74" y="291" on="1"/>
        <pt x="64" y="425" on="1"/>
      </contour>
      <contour>
        <pt x="192" y="174" on="0"/>
        <pt x="125" y="143" on="0"/>
        <pt x="125" y="81" on="0"/>
        <pt x="167" y="41" on="0"/>
        <pt x="246" y="41" on="0"/>
        <pt x="290" y="85" on="1"/>
        <pt x="295" y="193" on="1"/>
      </contour>
      <contour>
        <pt x="352" y="599" on="1"/>
        <pt x="370" y="586" on="1"/>
        <pt x="333" y="528" on="0"/>
        <pt x="296" y="492" on="0"/>
        <pt x="258" y="492" on="0"/>
        <pt x="224" y="508" on="0"/>
        <pt x="153" y="549" on="1"/>
        <pt x="95" y="493" on="1"/>
        <pt x="77" y="506" on="1"/>
        <pt x="112" y="564" on="0"/>
        <pt x="150" y="600" on="0"/>
        <pt x="190" y="600" on="0"/>
        <pt x="225" y="583" on="0"/>
        <pt x="294" y="543" on="1"/>
      </contour>
    </TTGlyph>
    <TTGlyph name="b" xMin="45" yMin="-15" xMax="454" yMax="614">
      <contour>
        <pt x="46" y="603" on="1"/>
        <pt x="185" y="614" on="1"/>
        <pt x="175" y="427" on="1"/>
        <pt x="175" y="362" on="1"/>
        <pt x="232" y="414" on="0"/>
        <pt x="364" y="414" on="0"/>
        <pt x="454" y="299" on="0"/>
        <pt x="454" y="106" on="0"/>
        <pt x="342" y="-15" on="0"/>
        <pt x="161" y="-15" on="0"/>
        <pt x="58" y="15" on="1"/>
        <pt x="60" y="34" on="1"/>
        <pt x="90" y="34" on="1"/>
        <pt x="98" y="177" on="1"/>
        <pt x="98" y="428" on="1"/>
        <pt x="89" y="577" on="1"/>
        <pt x="45" y="584" on="1"/>
      </contour>
      <contour>
        <pt x="368" y="113" on="0"/>
        <pt x="368" y="271" on="0"/>
        <pt x="313" y="358" on="0"/>
        <pt x="220" y="358" on="0"/>
        <pt x="175" y="308" on="1"/>
        <pt x="175" y="177" on="1"/>
        <pt x="182" y="51" on="1"/>
        <pt x="229" y="40" on="0"/>
        <pt x="258" y="40" on="1"/>
        <pt x="315" y="40" on="0"/>
      </contour>
    </TTGlyph>
    <TTGlyph name="backslash" xMin="10" yMin="-39" xMax="257" yMax="661">
      <contour>
        <pt x="257" y="-39" on="1"/>
        <pt x="197" y="-39" on="1"/>
        <pt x="10" y="661" on="1"/>
        <pt x="70" y="661" on="1"/>
      </contour>
    </TTGlyph>
    <TTGlyph name="bar" xMin="150" yMin="-218" xMax="222" yMax="689">
      <contour>
        <pt x="150" y="-218" on="1"/>
        <pt x="150" y="681" on="1"/>
        <pt x="222" y="689" on="1"/>
        <pt x="222" y="-218" on="1"/>
      </contour>
    </TTGlyph>
    <TTGlyph name="braceleft" xMin="70" yMin="-198" xMax="301" yMax="665">
      <contour>
        <pt x="146" y="-113" on="1"/>
        <pt x="157" y="177" on="1"/>
        <pt x="157" y="194" on="0"/>
        <pt x="103" y="235" on="0"/>
        <pt x="72" y="242" on="1"/>
        <pt x="70" y="267" on="1"/>
        <pt x="103" y="275" on="0"/>
        <pt x="157" y="316" on="0"/>
        <pt x="157" y="334" on="1"/>
        <pt x="146" y="580" on="1"/>
        <pt x="146" y="636" on="0"/>
        <pt x="182" y="665" on="0"/>
        <pt x="253" y="665" on="1"/>
        <pt x="299" y="665" on="1"/>
        <pt x="301" y="640" on="1"/>
        <pt x="219" y="612" on="1"/>
        <pt x="219" y="344" on="1"/>
        <pt x="219" y="280" on="0"/>
        <pt x="153" y="256" on="1"/>
        <pt x="153" y="252" on="1"/>
        <pt x="219" y="222" on="0"/>
        <pt x="219" y="163" on="1"/>
        <pt x="219" y="-145" on="1"/>
        <pt x="301" y="-173" on="1"/>
        <pt x="299" y="-198" on="1"/>
        <pt x="253" y="-198" on="1"/>
        <pt x="182" y="-198" on="0"/>
        <pt x="146" y="-169" on="0"/>
      </contour>
    </TTGlyph>
    <TTGlyph name="braceright" xMin="5" yMin="-198" xMax="236" yMax="665">
      <contour>
        <pt x="160" y="580" on="1"/>
        <pt x="149" y="334" on="1"/>
        <pt x="149" y="316" on="0"/>
        <pt x="203" y="275" on="0"/>
        <pt x="236" y="267" on="1"/>
        <pt x="234" y="242" on="1"/>
        <pt x="203" y="235" on="0"/>
        <pt x="149" y="194" on="0"/>
        <pt x="149" y="177" on="1"/>
        <pt x="160" y="-113" on="1"/>
        <pt x="160" y="-169" on="0"/>
        <pt x="124" y="-198" on="0"/>
        <pt x="53" y="-198" on="1"/>
        <pt x="7" y="-198" on="1"/>
        <pt x="5" y="-173" on="1"/>
        <pt x="87" y="-145" on="1"/>
        <pt x="87" y="163" on="1"/>
        <pt x="87" y="222" on="0"/>
        <pt x="153" y="252" on="1"/>
        <pt x="153" y="256" on="1"/>
        <pt x="87" y="280" on="0"/>
        <pt x="87" y="344" on="1"/>
        <pt x="87" y="612" on="1"/>
        <pt x="5" y="640" on="1"/>
        <pt x="7" y="665" on="1"/>
        <pt x="53" y="665" on="1"/>
        <pt x="124" y="665" on="0"/>
        <pt x="160" y="636" on="0"/>
      </contour>
    </TTGlyph>
    <TTGlyph name="bracketleft" xMin="70" yMin="-198" xMax="225" yMax="665">
      <contour>
        <pt x="143" y="612" on="1"/>
        <pt x="143" y="-145" on="1"/>
        <pt x="225" y="-173" on="1"/>
        <pt x="223" y="-198" on="1"/>
        <pt x="177" y="-198" on="1"/>
        <pt x="105" y="-198" on="0"/>
        <pt x="70" y="-169" on="0"/>
        <pt x="70" y="-113" on="1"/>
        <pt x="70" y="580" on="1"/>
        <pt x="70" y="636" on="0"/>
        <pt x="105" y="665" on="0"/>
        <pt x="177" y="665" on="1"/>
        <pt x="223" y="665" on="1"/>
        <pt x="225" y="640" on="1"/>
      </contour>
    </TTGlyph>
    <TTGlyph name="bracketright" xMin="5" yMin="-198" xMax="160" yMax="665">
      <contour>
        <pt x="87" y="-145" on="1"/>
        <pt x="87" y="612" on="1"/>
        <pt x="5" y="640" on="1"/>
        <pt x="7" y="665" on="1"/>
        <pt x="53" y="665" on="1"/>
        <pt x="125" y="665" on="0"/>
        <pt x="160" y="636" on="0"/>
        <pt x="160" y="580" on="1"/>
        <pt x="160" y="-113" on="1"/>
        <pt x="160" y="-169" on="0"/>
        <pt x="125" y="-198" on="0"/>
        <pt x="53" y="-198" on="1"/>
        <pt x="7" y="-198" on="1"/>
        <pt x="5" y="-173" on="1"/>
      </contour>
    </TTGlyph>
    <TTGlyph name="breve" xMin="73" yMin="481" xMax="357" yMax="609">
      <contour>
        <pt x="108" y="578" on="0"/>
        <pt x="176" y="541" on="0"/>
        <pt x="253" y="541" on="0"/>
        <pt x="321" y="578" on="0"/>
        <pt x="338" y="609" on="1"/>
        <pt x="357" y="598" on="1"/>
        <pt x="317" y="481" on="0"/>
        <pt x="113" y="481" on="0"/>
        <pt x="73" y="598" on="1"/>
        <pt x="92" y="609" on="1"/>
      </contour>
    </TTGlyph>
    <TTGlyph name="brokenbar" xMin="150" yMin="-218" xMax="222" yMax="689">
      <contour>
        <pt x="150" y="-218" on="1"/>
        <pt x="150" y="224" on="1"/>
        <pt x="222" y="224" on="1"/>
        <pt x="222" y="-218" on="1"/>
      </contour>
      <contour>
        <pt x="150" y="320" on="1"/>
        <pt x="150" y="681" on="1"/>
        <pt x="222" y="689" on="1"/>
        <pt x="222" y="320" on="1"/>
      </contour>
    </TTGlyph>
    <TTGlyph name="bullet" xMin="90" yMin="145" xMax="286" yMax="341">
      <contour>
        <pt x="286" y="242" on="1"/>
        <pt x="265" y="172" on="0"/>
        <pt x="187" y="145" on="1"/>
        <pt x="118" y="167" on="0"/>
        <pt x="90" y="242" on="1"/>
        <pt x="119" y="319" on="0"/>
        <pt x="187" y="341" on="1"/>
        <pt x="229" y="325" on="0"/>
        <pt x="276" y="279" on="0"/>
      </contour>
    </TTGlyph>
    <TTGlyph name="c" xMin="40" yMin="-26" xMax="389" yMax="426">
      <contour>
        <pt x="143" y="-15" on="0"/>
        <pt x="40" y="102" on="0"/>
        <pt x="40" y="297" on="0"/>
        <pt x="160" y="414" on="0"/>
        <pt x="260" y="414" on="1"/>
        <pt x="303" y="414" on="0"/>
        <pt x="352" y="404" on="1"/>
        <pt x="360" y="426" on="1"/>
        <pt x="376" y="426" on="1"/>
        <pt x="369" y="288" on="1"/>
        <pt x="352" y="288" on="1"/>
        <pt x="349" y="326" on="1"/>
        <pt x="293" y="357" on="0"/>
        <pt x="194" y="357" on="0"/>
        <pt x="126" y="270" on="0"/>
        <pt x="126" y="129" on="0"/>
        <pt x="189" y="41" on="0"/>
        <pt x="301" y="41" on="0"/>
        <pt x="354" y="79" on="1"/>
        <pt x="371" y="119" on="1"/>
        <pt x="389" y="115" on="1"/>
        <pt x="358" y="-26" on="1"/>
        <pt x="338" y="-26" on="1"/>
        <pt x="339" y="0" on="1"/>
        <pt x="286" y="-15" on="0"/>
        <pt x="230" y="-15" on="1"/>
      </contour>
    </TTGlyph>
    <TTGlyph name="caron" xMin="65" yMin="481" xMax="322" yMax="623">
      <contour>
        <pt x="65" y="608" on="1"/>
        <pt x="81" y="623" on="1"/>
        <pt x="193" y="567" on="1"/>
        <pt x="306" y="623" on="1"/>
        <pt x="322" y="608" on="1"/>
        <pt x="200" y="481" on="1"/>
        <pt x="186" y="481" on="1"/>
      </contour>
    </TTGlyph>
    <TTGlyph name="ccedilla" xMin="40" yMin="-221" xMax="389" yMax="426">
      <contour>
        <pt x="129" y="-7" on="0"/>
        <pt x="40" y="110" on="0"/>
        <pt x="40" y="300" on="0"/>
        <pt x="163" y="414" on="0"/>
        <pt x="260" y="414" on="1"/>
        <pt x="300" y="414" on="0"/>
        <pt x="352" y="404" on="1"/>
        <pt x="360" y="426" on="1"/>
        <pt x="376" y="426" on="1"/>
        <pt x="369" y="288" on="1"/>
        <pt x="352" y="288" on="1"/>
        <pt x="349" y="326" on="1"/>
        <pt x="293" y="357" on="0"/>
        <pt x="192" y="357" on="0"/>
        <pt x="126" y="268" on="0"/>
        <pt x="126" y="200" on="1"/>
        <pt x="126" y="150" on="0"/>
        <pt x="146" y="101" on="1"/>
        <pt x="157" y="74" on="0"/>
        <pt x="206" y="41" on="0"/>
        <pt x="240" y="41" on="1"/>
        <pt x="300" y="41" on="0"/>
        <pt x="354" y="79" on="1"/>
        <pt x="371" y="119" on="1"/>
        <pt x="389" y="115" on="1"/>
        <pt x="358" y="-26" on="1"/>
        <pt x="338" y="-26" on="1"/>
        <pt x="339" y="0" on="1"/>
        <pt x="290" y="-13" on="0"/>
        <pt x="245" y="-15" on="1"/>
        <pt x="223" y="-59" on="1"/>
        <pt x="225" y="-60" on="0"/>
        <pt x="257" y="-71" on="0"/>
        <pt x="267" y="-75" on="0"/>
        <pt x="291" y="-88" on="0"/>
        <pt x="296" y="-94" on="1"/>
        <pt x="309" y="-112" on="0"/>
        <pt x="309" y="-132" on="1"/>
        <pt x="309" y="-172" on="0"/>
        <pt x="250" y="-221" on="0"/>
        <pt x="167" y="-221" on="0"/>
        <pt x="132" y="-207" on="1"/>
        <pt x="137" y="-178" on="1"/>
        <pt x="168" y="-189" on="0"/>
        <pt x="225" y="-189" on="0"/>
        <pt x="255" y="-164" on="0"/>
        <pt x="255" y="-136" on="0"/>
        <pt x="247" y="-122" on="0"/>
        <pt x="225" y="-112" on="0"/>
        <pt x="210" y="-107" on="0"/>
        <pt x="175" y="-99" on="0"/>
        <pt x="168" y="-97" on="1"/>
        <pt x="211" y="-14" on="1"/>
      </contour>
    </TTGlyph>
    <TTGlyph name="cedilla" xMin="137" yMin="-221" xMax="314" yMax="-2">
      <contour>
        <pt x="173" y="-97" on="1"/>
        <pt x="223" y="-2" on="1"/>
        <pt x="252" y="-11" on="1"/>
        <pt x="228" y="-59" on="1"/>
        <pt x="281" y="-79" on="0"/>
        <pt x="314" y="-107" on="0"/>
        <pt x="314" y="-132" on="1"/>
        <pt x="314" y="-172" on="0"/>
        <pt x="255" y="-221" on="0"/>
        <pt x="173" y="-221" on="0"/>
        <pt x="137" y="-207" on="1"/>
        <pt x="142" y="-178" on="1"/>
        <pt x="173" y="-189" on="0"/>
        <pt x="229" y="-189" on="0"/>
        <pt x="260" y="-165" on="0"/>
        <pt x="260" y="-128" on="0"/>
        <pt x="233" y="-113" on="0"/>
      </contour>
    </TTGlyph>
    <TTGlyph name="cent" xMin="45" yMin="-57" xMax="394" yMax="547">
      <contour>
        <pt x="370" y="467" on="1"/>
        <pt x="378" y="490" on="1"/>
        <pt x="394" y="490" on="1"/>
        <pt x="387" y="352" on="1"/>
        <pt x="370" y="352" on="1"/>
        <pt x="367" y="383" on="1"/>
        <pt x="305" y="416" on="0"/>
        <pt x="276" y="421" on="1"/>
        <pt x="249" y="68" on="1"/>
        <pt x="298" y="69" on="0"/>
        <pt x="367" y="108" on="1"/>
        <pt x="370" y="140" on="1"/>
        <pt x="387" y="140" on="1"/>
        <pt x="394" y="2" on="1"/>
        <pt x="378" y="2" on="1"/>
        <pt x="370" y="25" on="1"/>
        <pt x="325" y="12" on="0"/>
        <pt x="244" y="12" on="1"/>
        <pt x="239" y="-57" on="1"/>
        <pt x="200" y="-57" on="1"/>
        <pt x="206" y="18" on="1"/>
        <pt x="131" y="34" on="0"/>
        <pt x="45" y="151" on="0"/>
        <pt x="45" y="331" on="0"/>
        <pt x="151" y="462" on="0"/>
        <pt x="241" y="477" on="1"/>
        <pt x="247" y="547" on="1"/>
        <pt x="286" y="547" on="1"/>
        <pt x="281" y="481" on="1"/>
        <pt x="329" y="478" on="0"/>
      </contour>
      <contour>
        <pt x="127" y="246" on="1"/>
        <pt x="127" y="97" on="0"/>
        <pt x="210" y="72" on="1"/>
        <pt x="237" y="423" on="1"/>
        <pt x="127" y="414" on="0"/>
      </contour>
    </TTGlyph>
    <TTGlyph name="circumflex" xMin="65" yMin="481" xMax="322" yMax="626">
      <contour>
        <pt x="81" y="481" on="1"/>
        <pt x="65" y="496" on="1"/>
        <pt x="180" y="626" on="1"/>
        <pt x="207" y="626" on="1"/>
        <pt x="322" y="496" on="1"/>
        <pt x="306" y="481" on="1"/>
        <pt x="194" y="545" on="1"/>
      </contour>
    </TTGlyph>
    <TTGlyph name="colon" xMin="40" yMin="-16" xMax="181" yMax="406">
      <contour>
        <pt x="181" y="335" on="1"/>
        <pt x="165" y="286" on="0"/>
        <pt x="110" y="265" on="1"/>
        <pt x="60" y="280" on="0"/>
        <pt x="40" y="335" on="1"/>
        <pt x="60" y="390" on="0"/>
        <pt x="110" y="406" on="1"/>
        <pt x="166" y="384" on="0"/>
      </contour>
      <contour>
        <pt x="181" y="54" on="1"/>
        <pt x="165" y="5" on="0"/>
        <pt x="110" y="-16" on="1"/>
        <pt x="60" y="-1" on="0"/>
        <pt x="40" y="54" on="1"/>
        <pt x="60" y="109" on="0"/>
        <pt x="110" y="125" on="1"/>
        <pt x="166" y="103" on="0"/>
      </contour>
    </TTGlyph>
    <TTGlyph name="comma" xMin="45" yMin="-150" xMax="180" yMax="125">
      <contour>
        <pt x="45" y="57" on="1"/>
        <pt x="67" y="111" on="0"/>
        <pt x="110" y="125" on="1"/>
        <pt x="180" y="97" on="0"/>
        <pt x="180" y="-24" on="0"/>
        <pt x="80" y="-150" on="1"/>
        <pt x="57" y="-134" on="1"/>
        <pt x="95" y="-72" on="0"/>
        <pt x="104" y="3" on="1"/>
        <pt x="79" y="11" on="0"/>
        <pt x="54" y="33" on="0"/>
      </contour>
    </TTGlyph>
    <TTGlyph name="copyright" xMin="50" yMin="112" xMax="620" yMax="682">
      <contour>
        <pt x="620" y="682" on="0"/>
        <pt x="620" y="112" on="0"/>
        <pt x="50" y="112" on="0"/>
        <pt x="50" y="682" on="0"/>
      </contour>
      <contour>
        <pt x="563" y="397" on="1"/>
        <pt x="558" y="525" on="0"/>
        <pt x="452" y="635" on="0"/>
        <pt x="218" y="635" on="0"/>
        <pt x="111" y="524" on="0"/>
        <pt x="107" y="397" on="1"/>
        <pt x="111" y="270" on="0"/>
        <pt x="218" y="159" on="0"/>
        <pt x="452" y="159" on="0"/>
        <pt x="558" y="269" on="0"/>
      </contour>
      <contour>
        <pt x="296" y="533" on="0"/>
        <pt x="249" y="465" on="0"/>
        <pt x="249" y="340" on="0"/>
        <pt x="298" y="269" on="0"/>
        <pt x="377" y="269" on="0"/>
        <pt x="419" y="294" on="1"/>
        <pt x="430" y="321" on="1"/>
        <pt x="450" y="319" on="1"/>
        <pt x="430" y="225" on="1"/>
        <pt x="408" y="225" on="1"/>
        <pt x="409" y="237" on="1"/>
        <pt x="382" y="226" on="0"/>
        <pt x="333" y="226" on="1"/>
        <pt x="259" y="226" on="0"/>
        <pt x="177" y="316" on="0"/>
        <pt x="177" y="481" on="0"/>
        <pt x="266" y="578" on="0"/>
        <pt x="343" y="578" on="1"/>
        <pt x="376" y="578" on="0"/>
        <pt x="413" y="564" on="1"/>
        <pt x="417" y="576" on="1"/>
        <pt x="438" y="576" on="1"/>
        <pt x="434" y="484" on="1"/>
        <pt x="413" y="484" on="1"/>
        <pt x="409" y="511" on="1"/>
        <pt x="369" y="533" on="0"/>
      </contour>
    </TTGlyph>
    <TTGlyph name="d" xMin="40" yMin="-15" xMax="439" yMax="614">
      <contour>
        <pt x="314" y="-8" on="1"/>
        <pt x="314" y="33" on="1"/>
        <pt x="259" y="-15" on="0"/>
        <pt x="130" y="-15" on="0"/>
        <pt x="40" y="100" on="0"/>
        <pt x="40" y="293" on="0"/>
        <pt x="152" y="414" on="0"/>
        <pt x="250" y="414" on="1"/>
        <pt x="282" y="414" on="0"/>
        <pt x="319" y="406" on="1"/>
        <pt x="319" y="428" on="1"/>
        <pt x="310" y="577" on="1"/>
        <pt x="266" y="584" on="1"/>
        <pt x="267" y="603" on="1"/>
        <pt x="406" y="614" on="1"/>
        <pt x="396" y="427" on="1"/>
        <pt x="396" y="178" on="1"/>
        <pt x="405" y="27" on="1"/>
        <pt x="439" y="20" on="1"/>
        <pt x="438" y="1" on="1"/>
      </contour>
      <contour>
        <pt x="126" y="286" on="0"/>
        <pt x="126" y="128" on="0"/>
        <pt x="181" y="41" on="0"/>
        <pt x="270" y="41" on="0"/>
        <pt x="314" y="85" on="1"/>
        <pt x="319" y="177" on="1"/>
        <pt x="319" y="348" on="1"/>
        <pt x="271" y="359" on="0"/>
        <pt x="240" y="359" on="1"/>
        <pt x="181" y="359" on="0"/>
      </contour>
    </TTGlyph>
    <TTGlyph name="dagger" xMin="60" yMin="76" xMax="372" yMax="621">
      <contour>
        <pt x="209" y="76" on="1"/>
        <pt x="181" y="414" on="1"/>
        <pt x="191" y="438" on="0"/>
        <pt x="215" y="443" on="1"/>
        <pt x="243" y="436" on="0"/>
        <pt x="250" y="414" on="1"/>
        <pt x="222" y="76" on="1"/>
      </contour>
      <contour>
        <pt x="236" y="477" on="1"/>
        <pt x="344" y="505" on="1"/>
        <pt x="369" y="497" on="0"/>
        <pt x="372" y="471" on="1"/>
        <pt x="368" y="442" on="0"/>
        <pt x="344" y="436" on="1"/>
        <pt x="236" y="464" on="1"/>
      </contour>
      <contour>
        <pt x="88" y="505" on="1"/>
        <pt x="196" y="477" on="1"/>
        <pt x="196" y="464" on="1"/>
        <pt x="88" y="436" on="1"/>
        <pt x="65" y="442" on="0"/>
        <pt x="60" y="471" on="1"/>
        <pt x="63" y="497" on="0"/>
      </contour>
      <contour>
        <pt x="209" y="485" on="1"/>
        <pt x="181" y="592" on="1"/>
        <pt x="189" y="615" on="0"/>
        <pt x="215" y="621" on="1"/>
        <pt x="242" y="616" on="0"/>
        <pt x="250" y="592" on="1"/>
        <pt x="222" y="485" on="1"/>
      </contour>
    </TTGlyph>
    <TTGlyph name="daggerdbl" xMin="60" yMin="-15" xMax="372" yMax="621">
      <contour>
        <pt x="250" y="414" on="1"/>
        <pt x="226" y="304" on="1"/>
        <pt x="251" y="192" on="1"/>
        <pt x="241" y="168" on="0"/>
        <pt x="217" y="163" on="1"/>
        <pt x="188" y="169" on="0"/>
        <pt x="182" y="192" on="1"/>
        <pt x="206" y="300" on="1"/>
        <pt x="181" y="414" on="1"/>
        <pt x="191" y="438" on="0"/>
        <pt x="215" y="443" on="1"/>
        <pt x="243" y="436" on="0"/>
      </contour>
      <contour>
        <pt x="236" y="477" on="1"/>
        <pt x="344" y="505" on="1"/>
        <pt x="369" y="497" on="0"/>
        <pt x="372" y="471" on="1"/>
        <pt x="368" y="442" on="0"/>
        <pt x="344" y="436" on="1"/>
        <pt x="236" y="464" on="1"/>
      </contour>
      <contour>
        <pt x="344" y="101" on="1"/>
        <pt x="236" y="129" on="1"/>
        <pt x="236" y="142" on="1"/>
        <pt x="344" y="170" on="1"/>
        <pt x="368" y="163" on="0"/>
        <pt x="372" y="135" on="1"/>
        <pt x="369" y="108" on="0"/>
      </contour>
      <contour>
        <pt x="88" y="505" on="1"/>
        <pt x="196" y="477" on="1"/>
        <pt x="196" y="464" on="1"/>
        <pt x="88" y="436" on="1"/>
        <pt x="65" y="442" on="0"/>
        <pt x="60" y="471" on="1"/>
        <pt x="63" y="497" on="0"/>
      </contour>
      <contour>
        <pt x="196" y="129" on="1"/>
        <pt x="88" y="101" on="1"/>
        <pt x="63" y="108" on="0"/>
        <pt x="60" y="135" on="1"/>
        <pt x="64" y="163" on="0"/>
        <pt x="88" y="170" on="1"/>
        <pt x="196" y="142" on="1"/>
      </contour>
      <contour>
        <pt x="209" y="485" on="1"/>
        <pt x="181" y="592" on="1"/>
        <pt x="189" y="615" on="0"/>
        <pt x="215" y="621" on="1"/>
        <pt x="242" y="616" on="0"/>
        <pt x="250" y="592" on="1"/>
        <pt x="222" y="485" on="1"/>
      </contour>
      <contour>
        <pt x="223" y="121" on="1"/>
        <pt x="251" y="14" on="1"/>
        <pt x="242" y="-10" on="0"/>
        <pt x="217" y="-15" on="1"/>
        <pt x="189" y="-11" on="0"/>
        <pt x="182" y="14" on="1"/>
        <pt x="210" y="121" on="1"/>
      </contour>
    </TTGlyph>
    <TTGlyph name="degree" xMin="35" yMin="342" xMax="313" yMax="620">
      <contour>
        <pt x="90" y="521" on="0"/>
        <pt x="90" y="441" on="0"/>
        <pt x="137" y="389" on="0"/>
        <pt x="210" y="389" on="0"/>
        <pt x="257" y="441" on="0"/>
        <pt x="257" y="520" on="0"/>
        <pt x="210" y="572" on="0"/>
        <pt x="137" y="572" on="0"/>
      </contour>
      <contour>
        <pt x="116" y="342" on="0"/>
        <pt x="35" y="422" on="0"/>
        <pt x="35" y="539" on="0"/>
        <pt x="116" y="620" on="0"/>
        <pt x="231" y="620" on="0"/>
        <pt x="313" y="538" on="0"/>
        <pt x="313" y="423" on="0"/>
        <pt x="232" y="342" on="0"/>
      </contour>
    </TTGlyph>
    <TTGlyph name="dieresis" xMin="25" yMin="486" xMax="305" yMax="608">
      <contour>
        <pt x="186" y="547" on="1"/>
        <pt x="213" y="587" on="0"/>
        <pt x="244" y="608" on="1"/>
        <pt x="280" y="583" on="0"/>
        <pt x="305" y="547" on="1"/>
        <pt x="282" y="511" on="0"/>
        <pt x="244" y="486" on="1"/>
        <pt x="211" y="507" on="0"/>
      </contour>
      <contour>
        <pt x="25" y="547" on="1"/>
        <pt x="50" y="585" on="0"/>
        <pt x="86" y="608" on="1"/>
        <pt x="116" y="585" on="0"/>
        <pt x="144" y="547" on="1"/>
        <pt x="116" y="507" on="0"/>
        <pt x="86" y="486" on="1"/>
        <pt x="49" y="510" on="0"/>
      </contour>
    </TTGlyph>
    <TTGlyph name="divide" xMin="80" yMin="41" xMax="438" yMax="462">
      <contour>
        <pt x="80" y="221" on="1"/>
        <pt x="84" y="280" on="1"/>
        <pt x="438" y="280" on="1"/>
        <pt x="434" y="221" on="1"/>
      </contour>
      <contour>
        <pt x="261" y="462" on="1"/>
        <pt x="308" y="443" on="0"/>
        <pt x="321" y="402" on="1"/>
        <pt x="308" y="362" on="0"/>
        <pt x="261" y="343" on="1"/>
        <pt x="220" y="354" on="0"/>
        <pt x="202" y="402" on="1"/>
        <pt x="220" y="449" on="0"/>
      </contour>
      <contour>
        <pt x="261" y="160" on="1"/>
        <pt x="308" y="141" on="0"/>
        <pt x="321" y="100" on="1"/>
        <pt x="308" y="60" on="0"/>
        <pt x="261" y="41" on="1"/>
        <pt x="220" y="52" on="0"/>
        <pt x="202" y="100" on="1"/>
        <pt x="220" y="147" on="0"/>
      </contour>
    </TTGlyph>
    <TTGlyph name="dollar" xMin="45" yMin="-99" xMax="405" yMax="588">
      <contour>
        <pt x="354" y="493" on="1"/>
        <pt x="363" y="516" on="1"/>
        <pt x="379" y="516" on="1"/>
        <pt x="373" y="371" on="1"/>
        <pt x="356" y="372" on="1"/>
        <pt x="351" y="410" on="1"/>
        <pt x="305" y="438" on="0"/>
        <pt x="268" y="448" on="1"/>
        <pt x="255" y="286" on="1"/>
        <pt x="340" y="249" on="0"/>
        <pt x="405" y="186" on="0"/>
        <pt x="405" y="79" on="0"/>
        <pt x="308" y="-5" on="0"/>
        <pt x="230" y="-13" on="1"/>
        <pt x="223" y="-99" on="1"/>
        <pt x="184" y="-99" on="1"/>
        <pt x="190" y="-15" on="1"/>
        <pt x="125" y="-12" on="0"/>
        <pt x="75" y="6" on="1"/>
        <pt x="60" y="-13" on="1"/>
        <pt x="45" y="-8" on="1"/>
        <pt x="91" y="131" on="1"/>
        <pt x="107" y="128" on="1"/>
        <pt x="103" y="87" on="1"/>
        <pt x="148" y="56" on="0"/>
        <pt x="195" y="47" on="1"/>
        <pt x="210" y="219" on="1"/>
        <pt x="127" y="254" on="0"/>
        <pt x="59" y="322" on="0"/>
        <pt x="59" y="425" on="0"/>
        <pt x="154" y="498" on="0"/>
        <pt x="234" y="505" on="1"/>
        <pt x="241" y="588" on="1"/>
        <pt x="280" y="588" on="1"/>
        <pt x="273" y="507" on="1"/>
        <pt x="297" y="504" on="0"/>
      </contour>
      <contour>
        <pt x="278" y="43" on="0"/>
        <pt x="332" y="82" on="0"/>
        <pt x="332" y="139" on="0"/>
        <pt x="293" y="180" on="0"/>
        <pt x="248" y="202" on="1"/>
        <pt x="235" y="43" on="1"/>
      </contour>
      <contour>
        <pt x="137" y="397" on="1"/>
        <pt x="137" y="341" on="0"/>
        <pt x="217" y="303" on="1"/>
        <pt x="229" y="454" on="1"/>
        <pt x="185" y="454" on="0"/>
        <pt x="137" y="424" on="0"/>
      </contour>
    </TTGlyph>
    <TTGlyph name="dotaccent" xMin="60" yMin="486" xMax="194" yMax="620">
      <contour>
        <pt x="194" y="553" on="1"/>
        <pt x="179" y="507" on="0"/>
        <pt x="127" y="486" on="1"/>
        <pt x="79" y="502" on="0"/>
        <pt x="60" y="553" on="1"/>
        <pt x="80" y="604" on="0"/>
        <pt x="127" y="620" on="1"/>
        <pt x="155" y="608" on="0"/>
        <pt x="186" y="578" on="0"/>
      </contour>
    </TTGlyph>
    <TTGlyph name="dotlessi" xMin="45" yMin="0" xMax="203" yMax="409">
      <contour>
        <pt x="50" y="0" on="1"/>
        <pt x="49" y="19" on="1"/>
        <pt x="79" y="26" on="1"/>
        <pt x="88" y="177" on="1"/>
        <pt x="88" y="221" on="1"/>
        <pt x="79" y="372" on="1"/>
        <pt x="45" y="379" on="1"/>
        <pt x="46" y="398" on="1"/>
        <pt x="175" y="409" on="1"/>
        <pt x="165" y="221" on="1"/>
        <pt x="165" y="177" on="1"/>
        <pt x="173" y="26" on="1"/>
        <pt x="203" y="19" on="1"/>
        <pt x="202" y="0" on="1"/>
      </contour>
    </TTGlyph>
    <TTGlyph name="e" xMin="40" yMin="-15" xMax="405" yMax="414">
      <contour>
        <pt x="143" y="-15" on="0"/>
        <pt x="40" y="95" on="0"/>
        <pt x="40" y="290" on="0"/>
        <pt x="146" y="414" on="0"/>
        <pt x="321" y="414" on="0"/>
        <pt x="405" y="334" on="0"/>
        <pt x="405" y="249" on="1"/>
        <pt x="405" y="225" on="0"/>
        <pt x="402" y="198" on="1"/>
        <pt x="126" y="198" on="1"/>
        <pt x="126" y="127" on="0"/>
        <pt x="188" y="41" on="0"/>
        <pt x="304" y="41" on="0"/>
        <pt x="362" y="85" on="1"/>
        <pt x="369" y="126" on="1"/>
        <pt x="386" y="125" on="1"/>
        <pt x="393" y="-14" on="1"/>
        <pt x="377" y="-14" on="1"/>
        <pt x="368" y="9" on="1"/>
        <pt x="303" y="-15" on="0"/>
      </contour>
      <contour>
        <pt x="128" y="250" on="1"/>
        <pt x="322" y="251" on="1"/>
        <pt x="322" y="308" on="0"/>
        <pt x="278" y="358" on="0"/>
        <pt x="231" y="358" on="1"/>
        <pt x="138" y="358" on="0"/>
      </contour>
    </TTGlyph>
    <TTGlyph name="eacute" xMin="40" yMin="-15" xMax="405" yMax="620">
      <contour>
        <pt x="143" y="-15" on="0"/>
        <pt x="40" y="95" on="0"/>
        <pt x="40" y="290" on="0"/>
        <pt x="146" y="414" on="0"/>
        <pt x="321" y="414" on="0"/>
        <pt x="405" y="334" on="0"/>
        <pt x="405" y="249" on="1"/>
        <pt x="405" y="225" on="0"/>
        <pt x="402" y="198" on="1"/>
        <pt x="126" y="198" on="1"/>
        <pt x="126" y="127" on="0"/>
        <pt x="188" y="41" on="0"/>
        <pt x="304" y="41" on="0"/>
        <pt x="362" y="85" on="1"/>
        <pt x="369" y="126" on="1"/>
        <pt x="386" y="125" on="1"/>
        <pt x="393" y="-14" on="1"/>
        <pt x="377" y="-14" on="1"/>
        <pt x="368" y="9" on="1"/>
        <pt x="303" y="-15" on="0"/>
      </contour>
      <contour>
        <pt x="128" y="250" on="1"/>
        <pt x="322" y="251" on="1"/>
        <pt x="322" y="308" on="0"/>
        <pt x="278" y="358" on="0"/>
        <pt x="231" y="358" on="1"/>
        <pt x="138" y="358" on="0"/>
      </contour>
      <contour>
        <pt x="201" y="481" on="1"/>
        <pt x="185" y="496" on="1"/>
        <pt x="276" y="614" on="1"/>
        <pt x="303" y="620" on="0"/>
        <pt x="367" y="620" on="0"/>
        <pt x="386" y="606" on="1"/>
        <pt x="387" y="588" on="1"/>
      </contour>
    </TTGlyph>
    <TTGlyph name="ecircumflex" xMin="40" yMin="-15" xMax="405" yMax="626">
      <contour>
        <pt x="143" y="-15" on="0"/>
        <pt x="40" y="95" on="0"/>
        <pt x="40" y="290" on="0"/>
        <pt x="146" y="414" on="0"/>
        <pt x="321" y="414" on="0"/>
        <pt x="405" y="334" on="0"/>
        <pt x="405" y="249" on="1"/>
        <pt x="405" y="225" on="0"/>
        <pt x="402" y="198" on="1"/>
        <pt x="126" y="198" on="1"/>
        <pt x="126" y="127" on="0"/>
        <pt x="188" y="41" on="0"/>
        <pt x="304" y="41" on="0"/>
        <pt x="362" y="85" on="1"/>
        <pt x="369" y="126" on="1"/>
        <pt x="386" y="125" on="1"/>
        <pt x="393" y="-14" on="1"/>
        <pt x="377" y="-14" on="1"/>
        <pt x="368" y="9" on="1"/>
        <pt x="303" y="-15" on="0"/>
      </contour>
      <contour>
        <pt x="128" y="250" on="1"/>
        <pt x="322" y="251" on="1"/>
        <pt x="322" y="308" on="0"/>
        <pt x="278" y="358" on="0"/>
        <pt x="231" y="358" on="1"/>
        <pt x="138" y="358" on="0"/>
      </contour>
      <contour>
        <pt x="122" y="481" on="1"/>
        <pt x="106" y="496" on="1"/>
        <pt x="221" y="626" on="1"/>
        <pt x="248" y="626" on="1"/>
        <pt x="363" y="496" on="1"/>
        <pt x="347" y="481" on="1"/>
        <pt x="235" y="545" on="1"/>
      </contour>
    </TTGlyph>
    <TTGlyph name="edieresis" xMin="40" yMin="-15" xMax="405" yMax="608">
      <contour>
        <pt x="261" y="547" on="1"/>
        <pt x="288" y="587" on="0"/>
        <pt x="319" y="608" on="1"/>
        <pt x="355" y="583" on="0"/>
        <pt x="380" y="547" on="1"/>
        <pt x="357" y="511" on="0"/>
        <pt x="319" y="486" on="1"/>
        <pt x="286" y="507" on="0"/>
      </contour>
      <contour>
        <pt x="100" y="547" on="1"/>
        <pt x="125" y="585" on="0"/>
        <pt x="161" y="608" on="1"/>
        <pt x="191" y="585" on="0"/>
        <pt x="219" y="547" on="1"/>
        <pt x="191" y="507" on="0"/>
        <pt x="161" y="486" on="1"/>
        <pt x="124" y="510" on="0"/>
      </contour>
      <contour>
        <pt x="143" y="-15" on="0"/>
        <pt x="40" y="95" on="0"/>
        <pt x="40" y="290" on="0"/>
        <pt x="146" y="414" on="0"/>
        <pt x="321" y="414" on="0"/>
        <pt x="405" y="334" on="0"/>
        <pt x="405" y="249" on="1"/>
        <pt x="405" y="225" on="0"/>
        <pt x="402" y="198" on="1"/>
        <pt x="126" y="198" on="1"/>
        <pt x="126" y="127" on="0"/>
        <pt x="188" y="41" on="0"/>
        <pt x="304" y="41" on="0"/>
        <pt x="362" y="85" on="1"/>
        <pt x="369" y="126" on="1"/>
        <pt x="386" y="125" on="1"/>
        <pt x="393" y="-14" on="1"/>
        <pt x="377" y="-14" on="1"/>
        <pt x="368" y="9" on="1"/>
        <pt x="305" y="-15" on="0"/>
      </contour>
      <contour>
        <pt x="128" y="250" on="1"/>
        <pt x="322" y="251" on="1"/>
        <pt x="322" y="308" on="0"/>
        <pt x="278" y="358" on="0"/>
        <pt x="231" y="358" on="1"/>
        <pt x="138" y="358" on="0"/>
      </contour>
    </TTGlyph>
    <TTGlyph name="egrave" xMin="40" yMin="-15" xMax="405" yMax="620">
      <contour>
        <pt x="143" y="-15" on="0"/>
        <pt x="40" y="95" on="0"/>
        <pt x="40" y="290" on="0"/>
        <pt x="146" y="414" on="0"/>
        <pt x="321" y="414" on="0"/>
        <pt x="405" y="334" on="0"/>
        <pt x="405" y="249" on="1"/>
        <pt x="405" y="225" on="0"/>
        <pt x="402" y="198" on="1"/>
        <pt x="126" y="198" on="1"/>
        <pt x="126" y="127" on="0"/>
        <pt x="188" y="41" on="0"/>
        <pt x="304" y="41" on="0"/>
        <pt x="362" y="85" on="1"/>
        <pt x="369" y="126" on="1"/>
        <pt x="386" y="125" on="1"/>
        <pt x="393" y="-14" on="1"/>
        <pt x="377" y="-14" on="1"/>
        <pt x="368" y="9" on="1"/>
        <pt x="303" y="-15" on="0"/>
      </contour>
      <contour>
        <pt x="128" y="250" on="1"/>
        <pt x="322" y="251" on="1"/>
        <pt x="322" y="308" on="0"/>
        <pt x="278" y="358" on="0"/>
        <pt x="231" y="358" on="1"/>
        <pt x="138" y="358" on="0"/>
      </contour>
      <contour>
        <pt x="281" y="496" on="1"/>
        <pt x="265" y="481" on="1"/>
        <pt x="79" y="588" on="1"/>
        <pt x="80" y="606" on="1"/>
        <pt x="99" y="620" on="0"/>
        <pt x="163" y="620" on="0"/>
        <pt x="190" y="614" on="1"/>
      </contour>
    </TTGlyph>
    <TTGlyph name="eight" xMin="45" yMin="-17" xMax="428" yMax="581">
      <contour>
        <pt x="346" y="146" on="1"/>
        <pt x="346" y="222" on="0"/>
        <pt x="227" y="275" on="1"/>
        <pt x="180" y="254" on="0"/>
        <pt x="124" y="186" on="0"/>
        <pt x="124" y="98" on="0"/>
        <pt x="183" y="40" on="0"/>
        <pt x="287" y="40" on="0"/>
        <pt x="346" y="97" on="0"/>
      </contour>
      <contour>
        <pt x="45" y="136" on="1"/>
        <pt x="45" y="189" on="0"/>
        <pt x="108" y="261" on="0"/>
        <pt x="180" y="292" on="1"/>
        <pt x="120" y="324" on="0"/>
        <pt x="66" y="397" on="0"/>
        <pt x="66" y="509" on="0"/>
        <pt x="160" y="581" on="0"/>
        <pt x="315" y="581" on="0"/>
        <pt x="406" y="508" on="0"/>
        <pt x="406" y="450" on="1"/>
        <pt x="406" y="367" on="0"/>
        <pt x="296" y="313" on="1"/>
        <pt x="428" y="249" on="0"/>
        <pt x="428" y="146" on="1"/>
        <pt x="428" y="71" on="0"/>
        <pt x="320" y="-17" on="0"/>
        <pt x="145" y="-17" on="0"/>
        <pt x="45" y="67" on="0"/>
      </contour>
      <contour>
        <pt x="236" y="525" on="1"/>
        <pt x="139" y="525" on="0"/>
        <pt x="139" y="445" on="1"/>
        <pt x="139" y="408" on="0"/>
        <pt x="193" y="352" on="0"/>
        <pt x="252" y="328" on="1"/>
        <pt x="333" y="380" on="0"/>
        <pt x="333" y="443" on="1"/>
        <pt x="333" y="482" on="0"/>
        <pt x="282" y="525" on="0"/>
      </contour>
    </TTGlyph>
    <TTGlyph name="ellipsis" xMin="40" yMin="-16" xMax="641" yMax="125">
      <contour>
        <pt x="641" y="54" on="1"/>
        <pt x="625" y="5" on="0"/>
        <pt x="570" y="-16" on="1"/>
        <pt x="520" y="-1" on="0"/>
        <pt x="500" y="54" on="1"/>
        <pt x="520" y="109" on="0"/>
        <pt x="570" y="125" on="1"/>
        <pt x="626" y="103" on="0"/>
      </contour>
      <contour>
        <pt x="411" y="54" on="1"/>
        <pt x="395" y="5" on="0"/>
        <pt x="340" y="-16" on="1"/>
        <pt x="290" y="-1" on="0"/>
        <pt x="270" y="54" on="1"/>
        <pt x="290" y="109" on="0"/>
        <pt x="340" y="125" on="1"/>
        <pt x="396" y="103" on="0"/>
      </contour>
      <contour>
        <pt x="181" y="54" on="1"/>
        <pt x="165" y="5" on="0"/>
        <pt x="110" y="-16" on="1"/>
        <pt x="60" y="-1" on="0"/>
        <pt x="40" y="54" on="1"/>
        <pt x="60" y="109" on="0"/>
        <pt x="110" y="125" on="1"/>
        <pt x="166" y="103" on="0"/>
      </contour>
    </TTGlyph>
    <TTGlyph name="emdash" xMin="90" yMin="187" xMax="700" yMax="256">
      <contour>
        <pt x="90" y="187" on="1"/>
        <pt x="94" y="256" on="1"/>
        <pt x="700" y="256" on="1"/>
        <pt x="696" y="187" on="1"/>
      </contour>
    </TTGlyph>
    <TTGlyph name="endash" xMin="90" yMin="187" xMax="448" yMax="256">
      <contour>
        <pt x="90" y="187" on="1"/>
        <pt x="94" y="256" on="1"/>
        <pt x="448" y="256" on="1"/>
        <pt x="444" y="187" on="1"/>
      </contour>
    </TTGlyph>
    <TTGlyph name="equal" xMin="80" yMin="121" xMax="434" yMax="380">
      <contour>
        <pt x="80" y="321" on="1"/>
        <pt x="80" y="380" on="1"/>
        <pt x="434" y="380" on="1"/>
        <pt x="434" y="321" on="1"/>
      </contour>
      <contour>
        <pt x="80" y="121" on="1"/>
        <pt x="80" y="180" on="1"/>
        <pt x="434" y="180" on="1"/>
        <pt x="434" y="121" on="1"/>
      </contour>
    </TTGlyph>
    <TTGlyph name="eth" xMin="40" yMin="-15" xMax="430" yMax="637">
      <contour>
        <pt x="430" y="114" on="0"/>
        <pt x="325" y="-15" on="0"/>
        <pt x="141" y="-15" on="0"/>
        <pt x="40" y="94" on="0"/>
        <pt x="40" y="290" on="0"/>
        <pt x="145" y="413" on="0"/>
        <pt x="229" y="413" on="1"/>
        <pt x="276" y="413" on="0"/>
        <pt x="324" y="394" on="1"/>
        <pt x="293" y="477" on="0"/>
        <pt x="248" y="511" on="1"/>
        <pt x="157" y="455" on="1"/>
        <pt x="136" y="493" on="1"/>
        <pt x="204" y="543" on="1"/>
        <pt x="168" y="563" on="0"/>
        <pt x="105" y="583" on="1"/>
        <pt x="118" y="626" on="1"/>
        <pt x="191" y="613" on="0"/>
        <pt x="256" y="580" on="1"/>
        <pt x="350" y="637" on="1"/>
        <pt x="371" y="599" on="1"/>
        <pt x="303" y="551" on="1"/>
        <pt x="362" y="498" on="0"/>
        <pt x="430" y="325" on="0"/>
      </contour>
      <contour>
        <pt x="340" y="335" on="1"/>
        <pt x="282" y="364" on="0"/>
        <pt x="184" y="364" on="0"/>
        <pt x="126" y="285" on="0"/>
        <pt x="126" y="204" on="1"/>
        <pt x="126" y="41" on="0"/>
        <pt x="242" y="41" on="1"/>
        <pt x="352" y="41" on="0"/>
        <pt x="352" y="227" on="1"/>
        <pt x="352" y="281" on="0"/>
      </contour>
    </TTGlyph>
    <TTGlyph name="exclam" xMin="70" yMin="-16" xMax="211" yMax="620">
      <contour>
        <pt x="192" y="577" on="1"/>
        <pt x="158" y="172" on="1"/>
        <pt x="127" y="169" on="1"/>
        <pt x="90" y="577" on="1"/>
        <pt x="104" y="611" on="0"/>
        <pt x="139" y="620" on="1"/>
        <pt x="182" y="609" on="0"/>
      </contour>
      <contour>
        <pt x="211" y="54" on="1"/>
        <pt x="196" y="5" on="0"/>
        <pt x="140" y="-16" on="1"/>
        <pt x="91" y="0" on="0"/>
        <pt x="70" y="54" on="1"/>
        <pt x="90" y="109" on="0"/>
        <pt x="140" y="125" on="1"/>
        <pt x="196" y="104" on="0"/>
      </contour>
    </TTGlyph>
    <TTGlyph name="exclamdown" xMin="70" yMin="-222" xMax="211" yMax="414">
      <contour>
        <pt x="89" y="-179" on="1"/>
        <pt x="123" y="226" on="1"/>
        <pt x="154" y="229" on="1"/>
        <pt x="191" y="-179" on="1"/>
        <pt x="177" y="-213" on="0"/>
        <pt x="142" y="-222" on="1"/>
        <pt x="99" y="-210" on="0"/>
      </contour>
      <contour>
        <pt x="70" y="344" on="1"/>
        <pt x="84" y="391" on="0"/>
        <pt x="141" y="414" on="1"/>
        <pt x="190" y="398" on="0"/>
        <pt x="211" y="344" on="1"/>
        <pt x="189" y="287" on="0"/>
        <pt x="141" y="273" on="1"/>
        <pt x="84" y="294" on="0"/>
      </contour>
    </TTGlyph>
    <TTGlyph name="f" xMin="25" yMin="0" xMax="335" yMax="620">
      <contour>
        <pt x="25" y="347" on="1"/>
        <pt x="25" y="381" on="1"/>
        <pt x="94" y="399" on="1"/>
        <pt x="94" y="620" on="0"/>
        <pt x="245" y="620" on="1"/>
        <pt x="294" y="620" on="0"/>
        <pt x="335" y="604" on="1"/>
        <pt x="322" y="493" on="1"/>
        <pt x="305" y="494" on="1"/>
        <pt x="301" y="535" on="1"/>
        <pt x="257" y="564" on="0"/>
        <pt x="231" y="564" on="1"/>
        <pt x="171" y="564" on="0"/>
        <pt x="171" y="430" on="1"/>
        <pt x="171" y="399" on="1"/>
        <pt x="282" y="399" on="1"/>
        <pt x="277" y="356" on="1"/>
        <pt x="171" y="351" on="1"/>
        <pt x="171" y="177" on="1"/>
        <pt x="179" y="26" on="1"/>
        <pt x="239" y="19" on="1"/>
        <pt x="238" y="0" on="1"/>
        <pt x="56" y="0" on="1"/>
        <pt x="55" y="19" on="1"/>
        <pt x="85" y="26" on="1"/>
        <pt x="94" y="177" on="1"/>
        <pt x="94" y="350" on="1"/>
      </contour>
    </TTGlyph>
    <TTGlyph name="fi" xMin="25" yMin="0" xMax="472" yMax="620">
      <contour>
        <pt x="25" y="347" on="1"/>
        <pt x="25" y="381" on="1"/>
        <pt x="94" y="399" on="1"/>
        <pt x="94" y="508" on="0"/>
        <pt x="192" y="620" on="0"/>
        <pt x="377" y="620" on="0"/>
        <pt x="419" y="583" on="1"/>
        <pt x="404" y="457" on="1"/>
        <pt x="386" y="458" on="1"/>
        <pt x="368" y="514" on="1"/>
        <pt x="346" y="535" on="0"/>
        <pt x="288" y="564" on="0"/>
        <pt x="268" y="564" on="1"/>
        <pt x="214" y="564" on="0"/>
        <pt x="171" y="504" on="0"/>
        <pt x="171" y="430" on="1"/>
        <pt x="171" y="399" on="1"/>
        <pt x="326" y="399" on="1"/>
        <pt x="444" y="409" on="1"/>
        <pt x="434" y="221" on="1"/>
        <pt x="434" y="177" on="1"/>
        <pt x="442" y="26" on="1"/>
        <pt x="472" y="19" on="1"/>
        <pt x="471" y="0" on="1"/>
        <pt x="305" y="0" on="1"/>
        <pt x="304" y="19" on="1"/>
        <pt x="348" y="26" on="1"/>
        <pt x="357" y="177" on="1"/>
        <pt x="357" y="221" on="1"/>
        <pt x="349" y="358" on="1"/>
        <pt x="171" y="352" on="1"/>
        <pt x="171" y="177" on="1"/>
        <pt x="179" y="26" on="1"/>
        <pt x="224" y="19" on="1"/>
        <pt x="223" y="0" on="1"/>
        <pt x="56" y="0" on="1"/>
        <pt x="55" y="19" on="1"/>
        <pt x="85" y="26" on="1"/>
        <pt x="94" y="177" on="1"/>
        <pt x="94" y="350" on="1"/>
      </contour>
    </TTGlyph>
    <TTGlyph name="five" xMin="66" yMin="-71" xMax="388" yMax="523">
      <contour>
        <pt x="66" y="241" on="1"/>
        <pt x="77" y="492" on="1"/>
        <pt x="241" y="492" on="1"/>
        <pt x="338" y="501" on="1"/>
        <pt x="346" y="523" on="1"/>
        <pt x="362" y="523" on="1"/>
        <pt x="356" y="392" on="1"/>
        <pt x="339" y="392" on="1"/>
        <pt x="336" y="430" on="1"/>
        <pt x="142" y="430" on="1"/>
        <pt x="136" y="296" on="1"/>
        <pt x="152" y="296" on="1"/>
        <pt x="263" y="296" on="0"/>
        <pt x="388" y="216" on="0"/>
        <pt x="388" y="145" on="1"/>
        <pt x="388" y="51" on="0"/>
        <pt x="216" y="-67" on="0"/>
        <pt x="73" y="-71" on="1"/>
        <pt x="70" y="-32" on="1"/>
        <pt x="184" y="-25" on="0"/>
        <pt x="305" y="57" on="0"/>
        <pt x="305" y="126" on="1"/>
        <pt x="305" y="244" on="0"/>
        <pt x="135" y="244" on="1"/>
        <pt x="100" y="244" on="0"/>
      </contour>
    </TTGlyph>
    <TTGlyph name="fl" xMin="25" yMin="0" xMax="475" yMax="620">
      <contour>
        <pt x="25" y="347" on="1"/>
        <pt x="25" y="381" on="1"/>
        <pt x="94" y="399" on="1"/>
        <pt x="94" y="507" on="0"/>
        <pt x="191" y="620" on="0"/>
        <pt x="284" y="620" on="1"/>
        <pt x="314" y="620" on="0"/>
        <pt x="359" y="606" on="1"/>
        <pt x="447" y="614" on="1"/>
        <pt x="437" y="426" on="1"/>
        <pt x="437" y="177" on="1"/>
        <pt x="445" y="26" on="1"/>
        <pt x="475" y="19" on="1"/>
        <pt x="474" y="0" on="1"/>
        <pt x="305" y="0" on="1"/>
        <pt x="304" y="19" on="1"/>
        <pt x="351" y="26" on="1"/>
        <pt x="360" y="177" on="1"/>
        <pt x="360" y="532" on="1"/>
        <pt x="293" y="564" on="0"/>
        <pt x="261" y="564" on="1"/>
        <pt x="213" y="564" on="0"/>
        <pt x="171" y="501" on="0"/>
        <pt x="171" y="430" on="1"/>
        <pt x="171" y="399" on="1"/>
        <pt x="312" y="399" on="1"/>
        <pt x="307" y="356" on="1"/>
        <pt x="171" y="351" on="1"/>
        <pt x="171" y="177" on="1"/>
        <pt x="179" y="26" on="1"/>
        <pt x="224" y="19" on="1"/>
        <pt x="223" y="0" on="1"/>
        <pt x="56" y="0" on="1"/>
        <pt x="55" y="19" on="1"/>
        <pt x="85" y="26" on="1"/>
        <pt x="94" y="177" on="1"/>
        <pt x="94" y="350" on="1"/>
      </contour>
    </TTGlyph>
    <TTGlyph name="florin" xMin="-70" yMin="-159" xMax="389" yMax="546">
      <contour>
        <pt x="117" y="163" on="1"/>
        <pt x="116" y="269" on="1"/>
        <pt x="32" y="269" on="1"/>
        <pt x="30" y="304" on="1"/>
        <pt x="118" y="315" on="1"/>
        <pt x="120" y="424" on="0"/>
        <pt x="209" y="537" on="0"/>
        <pt x="294" y="537" on="1"/>
        <pt x="332" y="537" on="0"/>
        <pt x="365" y="526" on="1"/>
        <pt x="373" y="546" on="1"/>
        <pt x="389" y="546" on="1"/>
        <pt x="382" y="401" on="1"/>
        <pt x="365" y="401" on="1"/>
        <pt x="362" y="439" on="1"/>
        <pt x="323" y="481" on="0"/>
        <pt x="235" y="481" on="0"/>
        <pt x="196" y="403" on="0"/>
        <pt x="196" y="315" on="1"/>
        <pt x="313" y="315" on="1"/>
        <pt x="310" y="276" on="1"/>
        <pt x="194" y="268" on="1"/>
        <pt x="192" y="181" on="1"/>
        <pt x="187" y="-17" on="0"/>
        <pt x="126" y="-159" on="0"/>
        <pt x="41" y="-159" on="1"/>
        <pt x="3" y="-159" on="0"/>
        <pt x="-41" y="-141" on="1"/>
        <pt x="-55" y="-159" on="1"/>
        <pt x="-70" y="-154" on="1"/>
        <pt x="-26" y="-21" on="1"/>
        <pt x="-10" y="-24" on="1"/>
        <pt x="-14" y="-66" on="1"/>
        <pt x="20" y="-103" on="0"/>
        <pt x="56" y="-103" on="1"/>
        <pt x="76" y="-103" on="0"/>
        <pt x="98" y="-84" on="0"/>
        <pt x="106" y="-53" on="1"/>
        <pt x="117" y="-5" on="0"/>
      </contour>
    </TTGlyph>
    <TTGlyph name="four" xMin="5" yMin="-77" xMax="445" yMax="507">
      <contour>
        <pt x="12" y="79" on="1"/>
        <pt x="5" y="119" on="1"/>
        <pt x="303" y="507" on="1"/>
        <pt x="342" y="507" on="1"/>
        <pt x="342" y="136" on="1"/>
        <pt x="420" y="145" on="1"/>
        <pt x="429" y="167" on="1"/>
        <pt x="445" y="167" on="1"/>
        <pt x="439" y="39" on="1"/>
        <pt x="422" y="40" on="1"/>
        <pt x="417" y="78" on="1"/>
        <pt x="342" y="78" on="1"/>
        <pt x="342" y="-73" on="1"/>
        <pt x="260" y="-77" on="1"/>
        <pt x="271" y="79" on="1"/>
      </contour>
      <contour>
        <pt x="78" y="136" on="1"/>
        <pt x="271" y="136" on="1"/>
        <pt x="271" y="383" on="1"/>
      </contour>
    </TTGlyph>
    <TTGlyph name="fraction" xMin="-60" yMin="-78" xMax="312" yMax="681">
      <contour>
        <pt x="-6" y="-78" on="1"/>
        <pt x="-60" y="-55" on="1"/>
        <pt x="258" y="681" on="1"/>
        <pt x="312" y="658" on="1"/>
      </contour>
    </TTGlyph>
    <TTGlyph name="g" xMin="30" yMin="-215" xMax="473" yMax="419">
      <contour>
        <pt x="245" y="414" on="1"/>
        <pt x="306" y="414" on="0"/>
        <pt x="350" y="389" on="1"/>
        <pt x="473" y="419" on="1"/>
        <pt x="467" y="349" on="1"/>
        <pt x="392" y="349" on="1"/>
        <pt x="413" y="316" on="0"/>
        <pt x="413" y="271" on="1"/>
        <pt x="413" y="198" on="0"/>
        <pt x="316" y="115" on="0"/>
        <pt x="231" y="115" on="1"/>
        <pt x="189" y="115" on="0"/>
        <pt x="154" y="126" on="1"/>
        <pt x="124" y="75" on="1"/>
        <pt x="157" y="55" on="0"/>
        <pt x="359" y="55" on="0"/>
        <pt x="436" y="5" on="0"/>
        <pt x="436" y="-49" on="1"/>
        <pt x="436" y="-125" on="0"/>
        <pt x="307" y="-215" on="0"/>
        <pt x="198" y="-215" on="1"/>
        <pt x="30" y="-215" on="0"/>
        <pt x="30" y="-116" on="1"/>
        <pt x="30" y="-54" on="0"/>
        <pt x="101" y="-5" on="1"/>
        <pt x="63" y="9" on="0"/>
        <pt x="63" y="83" on="0"/>
        <pt x="114" y="147" on="1"/>
        <pt x="64" y="185" on="0"/>
        <pt x="64" y="331" on="0"/>
        <pt x="161" y="414" on="0"/>
      </contour>
      <contour>
        <pt x="274" y="-161" on="0"/>
        <pt x="360" y="-113" on="0"/>
        <pt x="360" y="-45" on="0"/>
        <pt x="302" y="-18" on="0"/>
        <pt x="174" y="-18" on="0"/>
        <pt x="142" y="-14" on="1"/>
        <pt x="105" y="-52" on="0"/>
        <pt x="105" y="-97" on="1"/>
        <pt x="105" y="-161" on="0"/>
        <pt x="207" y="-161" on="1"/>
      </contour>
      <contour>
        <pt x="238" y="361" on="1"/>
        <pt x="147" y="361" on="0"/>
        <pt x="147" y="168" on="0"/>
        <pt x="330" y="168" on="0"/>
        <pt x="330" y="266" on="1"/>
        <pt x="330" y="315" on="0"/>
        <pt x="285" y="361" on="0"/>
      </contour>
    </TTGlyph>
    <TTGlyph name="germandbls" xMin="49" yMin="-22" xMax="502" yMax="620">
      <contour>
        <pt x="248" y="-2" on="1"/>
        <pt x="233" y="-22" on="1"/>
        <pt x="218" y="-17" on="1"/>
        <pt x="264" y="119" on="1"/>
        <pt x="280" y="116" on="1"/>
        <pt x="276" y="72" on="1"/>
        <pt x="315" y="41" on="0"/>
        <pt x="349" y="41" on="1"/>
        <pt x="426" y="41" on="0"/>
        <pt x="426" y="103" on="1"/>
        <pt x="426" y="132" on="0"/>
        <pt x="373" y="185" on="0"/>
        <pt x="310" y="223" on="0"/>
        <pt x="257" y="287" on="0"/>
        <pt x="257" y="349" on="0"/>
        <pt x="317" y="463" on="0"/>
        <pt x="317" y="532" on="0"/>
        <pt x="277" y="567" on="0"/>
        <pt x="247" y="567" on="1"/>
        <pt x="165" y="567" on="0"/>
        <pt x="165" y="414" on="1"/>
        <pt x="165" y="0" on="1"/>
        <pt x="50" y="0" on="1"/>
        <pt x="49" y="19" on="1"/>
        <pt x="79" y="26" on="1"/>
        <pt x="88" y="175" on="1"/>
        <pt x="88" y="402" on="1"/>
        <pt x="88" y="502" on="0"/>
        <pt x="186" y="620" on="0"/>
        <pt x="269" y="620" on="1"/>
        <pt x="328" y="620" on="0"/>
        <pt x="397" y="560" on="0"/>
        <pt x="397" y="509" on="1"/>
        <pt x="397" y="478" on="0"/>
        <pt x="362" y="414" on="0"/>
        <pt x="328" y="365" on="0"/>
        <pt x="328" y="335" on="0"/>
        <pt x="364" y="301" on="0"/>
        <pt x="415" y="269" on="0"/>
        <pt x="466" y="229" on="0"/>
        <pt x="502" y="164" on="0"/>
        <pt x="502" y="123" on="1"/>
        <pt x="502" y="65" on="0"/>
        <pt x="408" y="-15" on="0"/>
        <pt x="287" y="-15" on="0"/>
      </contour>
    </TTGlyph>
    <TTGlyph name="grave" xMin="67" yMin="481" xMax="269" yMax="620">
      <contour>
        <pt x="269" y="496" on="1"/>
        <pt x="253" y="481" on="1"/>
        <pt x="67" y="588" on="1"/>
        <pt x="68" y="606" on="1"/>
        <pt x="87" y="620" on="0"/>
        <pt x="151" y="620" on="0"/>
        <pt x="178" y="614" on="1"/>
      </contour>
    </TTGlyph>
    <TTGlyph name="greater" xMin="95" yMin="67" xMax="453" yMax="434">
      <contour>
        <pt x="95" y="127" on="1"/>
        <pt x="389" y="250" on="1"/>
        <pt x="95" y="374" on="1"/>
        <pt x="104" y="434" on="1"/>
        <pt x="453" y="279" on="1"/>
        <pt x="453" y="222" on="1"/>
        <pt x="104" y="67" on="1"/>
      </contour>
    </TTGlyph>
    <TTGlyph name="greaterequal" xMin="95" yMin="0" xMax="453" yMax="454">
      <contour>
        <pt x="95" y="147" on="1"/>
        <pt x="389" y="270" on="1"/>
        <pt x="95" y="394" on="1"/>
        <pt x="104" y="454" on="1"/>
        <pt x="453" y="299" on="1"/>
        <pt x="453" y="242" on="1"/>
        <pt x="104" y="87" on="1"/>
      </contour>
      <contour>
        <pt x="95" y="0" on="1"/>
        <pt x="99" y="59" on="1"/>
        <pt x="453" y="59" on="1"/>
        <pt x="449" y="0" on="1"/>
      </contour>
    </TTGlyph>
    <TTGlyph name="guillemotleft" xMin="10" yMin="-5" xMax="425" yMax="403">
      <contour>
        <pt x="425" y="15" on="1"/>
        <pt x="400" y="-5" on="1"/>
        <pt x="207" y="186" on="1"/>
        <pt x="210" y="215" on="1"/>
        <pt x="400" y="403" on="1"/>
        <pt x="425" y="383" on="1"/>
        <pt x="306" y="199" on="1"/>
      </contour>
      <contour>
        <pt x="228" y="15" on="1"/>
        <pt x="203" y="-5" on="1"/>
        <pt x="10" y="186" on="1"/>
        <pt x="13" y="215" on="1"/>
        <pt x="203" y="403" on="1"/>
        <pt x="228" y="383" on="1"/>
        <pt x="109" y="199" on="1"/>
      </contour>
    </TTGlyph>
    <TTGlyph name="guillemotright" xMin="45" yMin="-5" xMax="460" yMax="403">
      <contour>
        <pt x="45" y="383" on="1"/>
        <pt x="70" y="403" on="1"/>
        <pt x="263" y="212" on="1"/>
        <pt x="260" y="183" on="1"/>
        <pt x="70" y="-5" on="1"/>
        <pt x="45" y="15" on="1"/>
        <pt x="164" y="199" on="1"/>
      </contour>
      <contour>
        <pt x="242" y="383" on="1"/>
        <pt x="267" y="403" on="1"/>
        <pt x="460" y="212" on="1"/>
        <pt x="457" y="183" on="1"/>
        <pt x="267" y="-5" on="1"/>
        <pt x="242" y="15" on="1"/>
        <pt x="361" y="199" on="1"/>
      </contour>
    </TTGlyph>
    <TTGlyph name="guilsinglleft" xMin="10" yMin="-5" xMax="228" yMax="403">
      <contour>
        <pt x="228" y="15" on="1"/>
        <pt x="203" y="-5" on="1"/>
        <pt x="10" y="186" on="1"/>
        <pt x="13" y="215" on="1"/>
        <pt x="203" y="403" on="1"/>
        <pt x="228" y="383" on="1"/>
        <pt x="109" y="199" on="1"/>
      </contour>
    </TTGlyph>
    <TTGlyph name="guilsinglright" xMin="45" yMin="-5" xMax="263" yMax="403">
      <contour>
        <pt x="45" y="383" on="1"/>
        <pt x="70" y="403" on="1"/>
        <pt x="263" y="212" on="1"/>
        <pt x="260" y="183" on="1"/>
        <pt x="70" y="-5" on="1"/>
        <pt x="45" y="15" on="1"/>
        <pt x="164" y="199" on="1"/>
      </contour>
    </TTGlyph>
    <TTGlyph name="h" xMin="45" yMin="0" xMax="469" yMax="614">
      <contour>
        <pt x="50" y="0" on="1"/>
        <pt x="49" y="19" on="1"/>
        <pt x="79" y="26" on="1"/>
        <pt x="88" y="180" on="1"/>
        <pt x="88" y="426" on="1"/>
        <pt x="79" y="577" on="1"/>
        <pt x="45" y="584" on="1"/>
        <pt x="46" y="603" on="1"/>
        <pt x="175" y="614" on="1"/>
        <pt x="165" y="426" on="1"/>
        <pt x="165" y="357" on="1"/>
        <pt x="235" y="414" on="0"/>
        <pt x="366" y="414" on="0"/>
        <pt x="431" y="338" on="0"/>
        <pt x="431" y="270" on="1"/>
        <pt x="431" y="178" on="1"/>
        <pt x="439" y="26" on="1"/>
        <pt x="469" y="19" on="1"/>
        <pt x="468" y="0" on="1"/>
        <pt x="303" y="0" on="1"/>
        <pt x="302" y="21" on="1"/>
        <pt x="345" y="26" on="1"/>
        <pt x="354" y="178" on="1"/>
        <pt x="354" y="266" on="1"/>
        <pt x="354" y="304" on="0"/>
        <pt x="311" y="345" on="0"/>
        <pt x="219" y="345" on="0"/>
        <pt x="165" y="305" on="1"/>
        <pt x="165" y="180" on="1"/>
        <pt x="174" y="26" on="1"/>
        <pt x="219" y="21" on="1"/>
        <pt x="218" y="0" on="1"/>
      </contour>
    </TTGlyph>
    <TTGlyph name="hungarumlaut" xMin="21" yMin="481" xMax="353" yMax="615">
      <contour>
        <pt x="188" y="481" on="1"/>
        <pt x="172" y="496" on="1"/>
        <pt x="257" y="615" on="1"/>
        <pt x="353" y="607" on="1"/>
        <pt x="353" y="594" on="1"/>
      </contour>
      <contour>
        <pt x="37" y="481" on="1"/>
        <pt x="21" y="496" on="1"/>
        <pt x="106" y="615" on="1"/>
        <pt x="202" y="607" on="1"/>
        <pt x="202" y="594" on="1"/>
      </contour>
    </TTGlyph>
    <TTGlyph name="hyphen" xMin="40" yMin="205" xMax="276" yMax="287">
      <contour>
        <pt x="40" y="205" on="1"/>
        <pt x="40" y="275" on="1"/>
        <pt x="276" y="287" on="1"/>
        <pt x="276" y="217" on="1"/>
      </contour>
    </TTGlyph>
    <TTGlyph name="i" xMin="45" yMin="0" xMax="203" yMax="620">
      <contour>
        <pt x="50" y="0" on="1"/>
        <pt x="49" y="19" on="1"/>
        <pt x="79" y="26" on="1"/>
        <pt x="88" y="177" on="1"/>
        <pt x="88" y="221" on="1"/>
        <pt x="79" y="372" on="1"/>
        <pt x="45" y="379" on="1"/>
        <pt x="46" y="398" on="1"/>
        <pt x="175" y="409" on="1"/>
        <pt x="165" y="221" on="1"/>
        <pt x="165" y="177" on="1"/>
        <pt x="173" y="26" on="1"/>
        <pt x="203" y="19" on="1"/>
        <pt x="202" y="0" on="1"/>
      </contour>
      <contour>
        <pt x="194" y="553" on="1"/>
        <pt x="179" y="507" on="0"/>
        <pt x="127" y="486" on="1"/>
        <pt x="79" y="502" on="0"/>
        <pt x="60" y="553" on="1"/>
        <pt x="80" y="604" on="0"/>
        <pt x="127" y="620" on="1"/>
        <pt x="155" y="608" on="0"/>
        <pt x="186" y="578" on="0"/>
      </contour>
    </TTGlyph>
    <TTGlyph name="iacute" xMin="45" yMin="0" xMax="264" yMax="620">
      <contour>
        <pt x="50" y="0" on="1"/>
        <pt x="49" y="19" on="1"/>
        <pt x="79" y="26" on="1"/>
        <pt x="88" y="177" on="1"/>
        <pt x="88" y="221" on="1"/>
        <pt x="79" y="372" on="1"/>
        <pt x="45" y="379" on="1"/>
        <pt x="46" y="398" on="1"/>
        <pt x="175" y="409" on="1"/>
        <pt x="165" y="221" on="1"/>
        <pt x="165" y="177" on="1"/>
        <pt x="173" y="26" on="1"/>
        <pt x="203" y="19" on="1"/>
        <pt x="202" y="0" on="1"/>
      </contour>
      <contour>
        <pt x="78" y="481" on="1"/>
        <pt x="62" y="496" on="1"/>
        <pt x="153" y="614" on="1"/>
        <pt x="180" y="620" on="0"/>
        <pt x="244" y="620" on="0"/>
        <pt x="263" y="606" on="1"/>
        <pt x="264" y="588" on="1"/>
      </contour>
    </TTGlyph>
    <TTGlyph name="icircumflex" xMin="-4" yMin="0" xMax="253" yMax="626">
      <contour>
        <pt x="50" y="0" on="1"/>
        <pt x="49" y="19" on="1"/>
        <pt x="79" y="26" on="1"/>
        <pt x="88" y="177" on="1"/>
        <pt x="88" y="221" on="1"/>
        <pt x="79" y="372" on="1"/>
        <pt x="45" y="379" on="1"/>
        <pt x="46" y="398" on="1"/>
        <pt x="175" y="409" on="1"/>
        <pt x="165" y="221" on="1"/>
        <pt x="165" y="177" on="1"/>
        <pt x="173" y="26" on="1"/>
        <pt x="203" y="19" on="1"/>
        <pt x="202" y="0" on="1"/>
      </contour>
      <contour>
        <pt x="12" y="481" on="1"/>
        <pt x="-4" y="496" on="1"/>
        <pt x="111" y="626" on="1"/>
        <pt x="138" y="626" on="1"/>
        <pt x="253" y="496" on="1"/>
        <pt x="237" y="481" on="1"/>
        <pt x="125" y="545" on="1"/>
      </contour>
    </TTGlyph>
    <TTGlyph name="idieresis" xMin="-13" yMin="0" xMax="267" yMax="608">
      <contour>
        <pt x="50" y="0" on="1"/>
        <pt x="49" y="19" on="1"/>
        <pt x="79" y="26" on="1"/>
        <pt x="88" y="177" on="1"/>
        <pt x="88" y="221" on="1"/>
        <pt x="79" y="372" on="1"/>
        <pt x="45" y="379" on="1"/>
        <pt x="46" y="398" on="1"/>
        <pt x="175" y="409" on="1"/>
        <pt x="165" y="221" on="1"/>
        <pt x="165" y="177" on="1"/>
        <pt x="173" y="26" on="1"/>
        <pt x="203" y="19" on="1"/>
        <pt x="202" y="0" on="1"/>
      </contour>
      <contour>
        <pt x="148" y="547" on="1"/>
        <pt x="175" y="587" on="0"/>
        <pt x="206" y="608" on="1"/>
        <pt x="242" y="583" on="0"/>
        <pt x="267" y="547" on="1"/>
        <pt x="244" y="511" on="0"/>
        <pt x="206" y="486" on="1"/>
        <pt x="173" y="507" on="0"/>
      </contour>
      <contour>
        <pt x="-13" y="547" on="1"/>
        <pt x="12" y="585" on="0"/>
        <pt x="48" y="608" on="1"/>
        <pt x="78" y="585" on="0"/>
        <pt x="106" y="547" on="1"/>
        <pt x="78" y="507" on="0"/>
        <pt x="48" y="486" on="1"/>
        <pt x="11" y="510" on="0"/>
      </contour>
    </TTGlyph>
    <TTGlyph name="igrave" xMin="-37" yMin="0" xMax="203" yMax="620">
      <contour>
        <pt x="50" y="0" on="1"/>
        <pt x="49" y="19" on="1"/>
        <pt x="79" y="26" on="1"/>
        <pt x="88" y="177" on="1"/>
        <pt x="88" y="221" on="1"/>
        <pt x="79" y="372" on="1"/>
        <pt x="45" y="379" on="1"/>
        <pt x="46" y="398" on="1"/>
        <pt x="175" y="409" on="1"/>
        <pt x="165" y="221" on="1"/>
        <pt x="165" y="177" on="1"/>
        <pt x="173" y="26" on="1"/>
        <pt x="203" y="19" on="1"/>
        <pt x="202" y="0" on="1"/>
      </contour>
      <contour>
        <pt x="165" y="496" on="1"/>
        <pt x="149" y="481" on="1"/>
        <pt x="-37" y="588" on="1"/>
        <pt x="-36" y="606" on="1"/>
        <pt x="-17" y="620" on="0"/>
        <pt x="47" y="620" on="0"/>
        <pt x="74" y="614" on="1"/>
      </contour>
    </TTGlyph>
    <TTGlyph name="infinity" xMin="61" yMin="70" xMax="714" yMax="423">
      <contour>
        <pt x="714" y="170" on="0"/>
        <pt x="624" y="72" on="0"/>
        <pt x="498" y="72" on="0"/>
        <pt x="417" y="124" on="0"/>
        <pt x="377" y="185" on="1"/>
        <pt x="293" y="70" on="0"/>
        <pt x="209" y="70" on="1"/>
        <pt x="145" y="70" on="0"/>
        <pt x="61" y="171" on="0"/>
        <pt x="61" y="321" on="0"/>
        <pt x="154" y="422" on="0"/>
        <pt x="276" y="422" on="0"/>
        <pt x="357" y="369" on="0"/>
        <pt x="397" y="308" on="1"/>
        <pt x="480" y="423" on="0"/>
        <pt x="568" y="423" on="1"/>
        <pt x="631" y="423" on="0"/>
        <pt x="714" y="322" on="0"/>
      </contour>
      <contour>
        <pt x="218" y="145" on="1"/>
        <pt x="279" y="145" on="0"/>
        <pt x="347" y="236" on="1"/>
        <pt x="278" y="348" on="0"/>
        <pt x="214" y="348" on="1"/>
        <pt x="174" y="348" on="0"/>
        <pt x="120" y="291" on="0"/>
        <pt x="120" y="204" on="0"/>
        <pt x="175" y="145" on="0"/>
      </contour>
      <contour>
        <pt x="655" y="289" on="0"/>
        <pt x="600" y="348" on="0"/>
        <pt x="525" y="348" on="0"/>
        <pt x="464" y="306" on="0"/>
        <pt x="428" y="256" on="1"/>
        <pt x="496" y="145" on="0"/>
        <pt x="558" y="145" on="1"/>
        <pt x="598" y="145" on="0"/>
        <pt x="655" y="202" on="0"/>
      </contour>
    </TTGlyph>
    <TTGlyph name="integral" xMin="60" yMin="-128" xMax="269" yMax="681">
      <contour>
        <pt x="202" y="410" on="1"/>
        <pt x="202" y="94" on="1"/>
        <pt x="202" y="15" on="0"/>
        <pt x="187" y="-54" on="0"/>
        <pt x="170" y="-68" on="1"/>
        <pt x="140" y="-95" on="0"/>
        <pt x="73" y="-128" on="1"/>
        <pt x="60" y="-108" on="1"/>
        <pt x="122" y="-44" on="1"/>
        <pt x="127" y="94" on="0"/>
        <pt x="127" y="143" on="1"/>
        <pt x="127" y="459" on="1"/>
        <pt x="127" y="537" on="0"/>
        <pt x="142" y="606" on="0"/>
        <pt x="158" y="620" on="1"/>
        <pt x="192" y="650" on="0"/>
        <pt x="256" y="681" on="1"/>
        <pt x="269" y="661" on="1"/>
        <pt x="207" y="597" on="1"/>
        <pt x="202" y="492" on="0"/>
      </contour>
    </TTGlyph>
    <TTGlyph name="j" xMin="1" yMin="-219" xMax="196" yMax="620">
      <contour>
        <pt x="48" y="398" on="1"/>
        <pt x="177" y="409" on="1"/>
        <pt x="167" y="221" on="1"/>
        <pt x="167" y="24" on="1"/>
        <pt x="167" y="-45" on="0"/>
        <pt x="131" y="-91" on="1"/>
        <pt x="33" y="-219" on="1"/>
        <pt x="1" y="-199" on="1"/>
        <pt x="79" y="-49" on="1"/>
        <pt x="90" y="153" on="1"/>
        <pt x="90" y="221" on="1"/>
        <pt x="81" y="372" on="1"/>
        <pt x="47" y="379" on="1"/>
      </contour>
      <contour>
        <pt x="62" y="553" on="1"/>
        <pt x="93" y="596" on="0"/>
        <pt x="129" y="620" on="1"/>
        <pt x="168" y="591" on="0"/>
        <pt x="196" y="553" on="1"/>
        <pt x="164" y="509" on="0"/>
        <pt x="129" y="486" on="1"/>
        <pt x="89" y="511" on="0"/>
      </contour>
    </TTGlyph>
    <TTGlyph name="k" xMin="45" yMin="0" xMax="467" yMax="614">
      <contour>
        <pt x="46" y="603" on="1"/>
        <pt x="175" y="614" on="1"/>
        <pt x="165" y="426" on="1"/>
        <pt x="165" y="177" on="1"/>
        <pt x="173" y="26" on="1"/>
        <pt x="233" y="19" on="1"/>
        <pt x="232" y="0" on="1"/>
        <pt x="50" y="0" on="1"/>
        <pt x="49" y="19" on="1"/>
        <pt x="79" y="26" on="1"/>
        <pt x="88" y="177" on="1"/>
        <pt x="88" y="426" on="1"/>
        <pt x="79" y="577" on="1"/>
        <pt x="45" y="584" on="1"/>
      </contour>
      <contour>
        <pt x="183" y="220" on="1"/>
        <pt x="183" y="227" on="1"/>
        <pt x="271" y="312" on="1"/>
        <pt x="311" y="373" on="1"/>
        <pt x="266" y="378" on="1"/>
        <pt x="267" y="399" on="1"/>
        <pt x="446" y="399" on="1"/>
        <pt x="447" y="380" on="1"/>
        <pt x="417" y="373" on="1"/>
        <pt x="273" y="231" on="1"/>
        <pt x="436" y="26" on="1"/>
        <pt x="467" y="19" on="1"/>
        <pt x="466" y="0" on="1"/>
        <pt x="333" y="0" on="1"/>
        <pt x="284" y="91" on="1"/>
      </contour>
    </TTGlyph>
    <TTGlyph name="l" xMin="45" yMin="0" xMax="203" yMax="614">
      <contour>
        <pt x="46" y="603" on="1"/>
        <pt x="175" y="614" on="1"/>
        <pt x="165" y="426" on="1"/>
        <pt x="165" y="177" on="1"/>
        <pt x="173" y="26" on="1"/>
        <pt x="203" y="19" on="1"/>
        <pt x="202" y="0" on="1"/>
        <pt x="50" y="0" on="1"/>
        <pt x="49" y="19" on="1"/>
        <pt x="79" y="26" on="1"/>
        <pt x="88" y="177" on="1"/>
        <pt x="88" y="426" on="1"/>
        <pt x="79" y="577" on="1"/>
        <pt x="45" y="584" on="1"/>
      </contour>
    </TTGlyph>
    <TTGlyph name="less" xMin="80" yMin="67" xMax="438" yMax="434">
      <contour>
        <pt x="144" y="250" on="1"/>
        <pt x="438" y="127" on="1"/>
        <pt x="429" y="67" on="1"/>
        <pt x="80" y="222" on="1"/>
        <pt x="80" y="279" on="1"/>
        <pt x="429" y="434" on="1"/>
        <pt x="438" y="374" on="1"/>
      </contour>
    </TTGlyph>
    <TTGlyph name="lessequal" xMin="80" yMin="0" xMax="438" yMax="454">
      <contour>
        <pt x="144" y="270" on="1"/>
        <pt x="438" y="147" on="1"/>
        <pt x="429" y="87" on="1"/>
        <pt x="80" y="242" on="1"/>
        <pt x="80" y="299" on="1"/>
        <pt x="429" y="454" on="1"/>
        <pt x="438" y="394" on="1"/>
      </contour>
      <contour>
        <pt x="80" y="0" on="1"/>
        <pt x="84" y="59" on="1"/>
        <pt x="438" y="59" on="1"/>
        <pt x="434" y="0" on="1"/>
      </contour>
    </TTGlyph>
    <TTGlyph name="logicalnot" xMin="81" yMin="118" xMax="435" yMax="280">
      <contour>
        <pt x="81" y="221" on="1"/>
        <pt x="81" y="280" on="1"/>
        <pt x="435" y="280" on="1"/>
        <pt x="435" y="118" on="1"/>
        <pt x="366" y="118" on="1"/>
        <pt x="366" y="221" on="1"/>
      </contour>
    </TTGlyph>
    <TTGlyph name="lozenge" xMin="20" yMin="-74" xMax="459" yMax="624">
      <contour>
        <pt x="459" y="275" on="1"/>
        <pt x="267" y="-74" on="1"/>
        <pt x="218" y="-74" on="1"/>
        <pt x="20" y="275" on="1"/>
        <pt x="218" y="624" on="1"/>
        <pt x="267" y="624" on="1"/>
      </contour>
      <contour>
        <pt x="372" y="275" on="1"/>
        <pt x="236" y="533" on="1"/>
        <pt x="91" y="275" on="1"/>
        <pt x="237" y="18" on="1"/>
      </contour>
    </TTGlyph>
    <TTGlyph name="lslash" xMin="30" yMin="0" xMax="237" yMax="614">
      <contour>
        <pt x="46" y="603" on="1"/>
        <pt x="175" y="614" on="1"/>
        <pt x="165" y="426" on="1"/>
        <pt x="165" y="386" on="1"/>
        <pt x="237" y="425" on="1"/>
        <pt x="237" y="364" on="1"/>
        <pt x="165" y="325" on="1"/>
        <pt x="165" y="177" on="1"/>
        <pt x="173" y="26" on="1"/>
        <pt x="203" y="19" on="1"/>
        <pt x="202" y="0" on="1"/>
        <pt x="50" y="0" on="1"/>
        <pt x="49" y="19" on="1"/>
        <pt x="79" y="26" on="1"/>
        <pt x="88" y="177" on="1"/>
        <pt x="88" y="283" on="1"/>
        <pt x="30" y="252" on="1"/>
        <pt x="30" y="313" on="1"/>
        <pt x="88" y="344" on="1"/>
        <pt x="88" y="426" on="1"/>
        <pt x="79" y="577" on="1"/>
        <pt x="45" y="584" on="1"/>
      </contour>
    </TTGlyph>
    <TTGlyph name="m" xMin="45" yMin="0" xMax="715" yMax="414">
      <contour>
        <pt x="714" y="0" on="1"/>
        <pt x="549" y="0" on="1"/>
        <pt x="548" y="21" on="1"/>
        <pt x="591" y="26" on="1"/>
        <pt x="600" y="177" on="1"/>
        <pt x="600" y="266" on="1"/>
        <pt x="600" y="304" on="0"/>
        <pt x="559" y="345" on="0"/>
        <pt x="467" y="345" on="0"/>
        <pt x="421" y="309" on="1"/>
        <pt x="421" y="177" on="1"/>
        <pt x="429" y="26" on="1"/>
        <pt x="430" y="26" on="1"/>
        <pt x="473" y="21" on="1"/>
        <pt x="472" y="0" on="1"/>
        <pt x="293" y="0" on="1"/>
        <pt x="292" y="21" on="1"/>
        <pt x="335" y="26" on="1"/>
        <pt x="344" y="177" on="1"/>
        <pt x="344" y="266" on="1"/>
        <pt x="344" y="304" on="0"/>
        <pt x="303" y="345" on="0"/>
        <pt x="215" y="345" on="0"/>
        <pt x="170" y="309" on="1"/>
        <pt x="165" y="221" on="1"/>
        <pt x="165" y="177" on="1"/>
        <pt x="173" y="26" on="1"/>
        <pt x="174" y="26" on="1"/>
        <pt x="217" y="21" on="1"/>
        <pt x="216" y="0" on="1"/>
        <pt x="50" y="0" on="1"/>
        <pt x="49" y="19" on="1"/>
        <pt x="79" y="26" on="1"/>
        <pt x="88" y="177" on="1"/>
        <pt x="88" y="221" on="1"/>
        <pt x="79" y="372" on="1"/>
        <pt x="45" y="379" on="1"/>
        <pt x="46" y="398" on="1"/>
        <pt x="175" y="409" on="1"/>
        <pt x="172" y="363" on="1"/>
        <pt x="238" y="414" on="0"/>
        <pt x="368" y="414" on="0"/>
        <pt x="402" y="357" on="1"/>
        <pt x="481" y="414" on="0"/>
        <pt x="556" y="414" on="1"/>
        <pt x="612" y="414" on="0"/>
        <pt x="677" y="337" on="0"/>
        <pt x="677" y="270" on="1"/>
        <pt x="677" y="177" on="1"/>
        <pt x="685" y="26" on="1"/>
        <pt x="686" y="26" on="1"/>
        <pt x="715" y="19" on="1"/>
      </contour>
    </TTGlyph>
    <TTGlyph name="macron" xMin="82" yMin="515" xMax="348" yMax="575">
      <contour>
        <pt x="348" y="515" on="1"/>
        <pt x="82" y="515" on="1"/>
        <pt x="82" y="575" on="1"/>
        <pt x="348" y="575" on="1"/>
      </contour>
    </TTGlyph>
    <TTGlyph name="minus" xMin="80" yMin="221" xMax="438" yMax="280">
      <contour>
        <pt x="80" y="221" on="1"/>
        <pt x="84" y="280" on="1"/>
        <pt x="438" y="280" on="1"/>
        <pt x="434" y="221" on="1"/>
      </contour>
    </TTGlyph>
    <TTGlyph name="mu" xMin="35" yMin="-219" xMax="464" yMax="409">
      <contour>
        <pt x="463" y="1" on="1"/>
        <pt x="334" y="-10" on="1"/>
        <pt x="336" y="36" on="1"/>
        <pt x="270" y="-15" on="0"/>
        <pt x="202" y="-15" on="1"/>
        <pt x="168" y="-15" on="0"/>
        <pt x="143" y="5" on="1"/>
        <pt x="164" y="-209" on="1"/>
        <pt x="67" y="-219" on="1"/>
        <pt x="78" y="-21" on="1"/>
        <pt x="78" y="221" on="1"/>
        <pt x="69" y="372" on="1"/>
        <pt x="35" y="379" on="1"/>
        <pt x="36" y="398" on="1"/>
        <pt x="165" y="409" on="1"/>
        <pt x="155" y="221" on="1"/>
        <pt x="155" y="133" on="1"/>
        <pt x="155" y="93" on="0"/>
        <pt x="200" y="54" on="0"/>
        <pt x="292" y="54" on="0"/>
        <pt x="339" y="90" on="1"/>
        <pt x="344" y="178" on="1"/>
        <pt x="344" y="221" on="1"/>
        <pt x="335" y="372" on="1"/>
        <pt x="301" y="379" on="1"/>
        <pt x="302" y="398" on="1"/>
        <pt x="431" y="409" on="1"/>
        <pt x="421" y="221" on="1"/>
        <pt x="421" y="178" on="1"/>
        <pt x="430" y="27" on="1"/>
        <pt x="464" y="20" on="1"/>
      </contour>
    </TTGlyph>
    <TTGlyph name="multiply" xMin="80" yMin="73" xMax="434" yMax="428">
      <contour>
        <pt x="129" y="73" on="1"/>
        <pt x="80" y="122" on="1"/>
        <pt x="208" y="250" on="1"/>
        <pt x="80" y="379" on="1"/>
        <pt x="129" y="428" on="1"/>
        <pt x="257" y="299" on="1"/>
        <pt x="385" y="428" on="1"/>
        <pt x="434" y="379" on="1"/>
        <pt x="306" y="250" on="1"/>
        <pt x="434" y="122" on="1"/>
        <pt x="385" y="73" on="1"/>
        <pt x="257" y="201" on="1"/>
      </contour>
    </TTGlyph>
    <TTGlyph name="n" xMin="45" yMin="0" xMax="469" yMax="414">
      <contour>
        <pt x="50" y="0" on="1"/>
        <pt x="49" y="19" on="1"/>
        <pt x="79" y="26" on="1"/>
        <pt x="88" y="177" on="1"/>
        <pt x="88" y="221" on="1"/>
        <pt x="79" y="372" on="1"/>
        <pt x="45" y="379" on="1"/>
        <pt x="46" y="398" on="1"/>
        <pt x="175" y="409" on="1"/>
        <pt x="172" y="363" on="1"/>
        <pt x="240" y="414" on="0"/>
        <pt x="366" y="414" on="0"/>
        <pt x="431" y="338" on="0"/>
        <pt x="431" y="270" on="1"/>
        <pt x="431" y="177" on="1"/>
        <pt x="439" y="26" on="1"/>
        <pt x="469" y="19" on="1"/>
        <pt x="468" y="0" on="1"/>
        <pt x="303" y="0" on="1"/>
        <pt x="302" y="21" on="1"/>
        <pt x="345" y="26" on="1"/>
        <pt x="354" y="177" on="1"/>
        <pt x="354" y="266" on="1"/>
        <pt x="354" y="304" on="0"/>
        <pt x="311" y="345" on="0"/>
        <pt x="220" y="345" on="0"/>
        <pt x="170" y="309" on="1"/>
        <pt x="165" y="221" on="1"/>
        <pt x="165" y="177" on="1"/>
        <pt x="173" y="26" on="1"/>
        <pt x="218" y="21" on="1"/>
        <pt x="217" y="0" on="1"/>
      </contour>
    </TTGlyph>
    <TTGlyph name="nine" xMin="40" yMin="-70" xMax="427" yMax="507">
      <contour>
        <pt x="40" y="395" on="0"/>
        <pt x="154" y="507" on="0"/>
        <pt x="331" y="507" on="0"/>
        <pt x="427" y="383" on="0"/>
        <pt x="427" y="268" on="1"/>
        <pt x="427" y="117" on="0"/>
        <pt x="256" y="-60" on="0"/>
        <pt x="101" y="-70" on="1"/>
        <pt x="97" y="-32" on="1"/>
        <pt x="225" y="-20" on="0"/>
        <pt x="344" y="119" on="0"/>
        <pt x="344" y="257" on="1"/>
        <pt x="344" y="361" on="0"/>
        <pt x="291" y="451" on="0"/>
        <pt x="228" y="451" on="1"/>
        <pt x="124" y="451" on="0"/>
        <pt x="124" y="322" on="1"/>
        <pt x="124" y="211" on="0"/>
        <pt x="244" y="211" on="1"/>
        <pt x="280" y="211" on="0"/>
        <pt x="316" y="217" on="1"/>
        <pt x="318" y="197" on="1"/>
        <pt x="237" y="162" on="0"/>
        <pt x="120" y="162" on="0"/>
        <pt x="40" y="247" on="0"/>
      </contour>
    </TTGlyph>
    <TTGlyph name="notequal" xMin="80" yMin="-2" xMax="434" yMax="481">
      <contour>
        <pt x="80" y="311" on="1"/>
        <pt x="80" y="380" on="1"/>
        <pt x="252" y="380" on="1"/>
        <pt x="271" y="481" on="1"/>
        <pt x="315" y="474" on="1"/>
        <pt x="297" y="380" on="1"/>
        <pt x="434" y="380" on="1"/>
        <pt x="434" y="311" on="1"/>
        <pt x="285" y="311" on="1"/>
        <pt x="262" y="190" on="1"/>
        <pt x="434" y="190" on="1"/>
        <pt x="434" y="121" on="1"/>
        <pt x="249" y="121" on="1"/>
        <pt x="227" y="-2" on="1"/>
        <pt x="183" y="5" on="1"/>
        <pt x="204" y="121" on="1"/>
        <pt x="80" y="121" on="1"/>
        <pt x="80" y="190" on="1"/>
        <pt x="217" y="190" on="1"/>
        <pt x="239" y="311" on="1"/>
      </contour>
    </TTGlyph>
    <TTGlyph name="ntilde" xMin="45" yMin="0" xMax="469" yMax="600">
      <contour>
        <pt x="50" y="0" on="1"/>
        <pt x="49" y="19" on="1"/>
        <pt x="79" y="26" on="1"/>
        <pt x="88" y="177" on="1"/>
        <pt x="88" y="221" on="1"/>
        <pt x="79" y="372" on="1"/>
        <pt x="45" y="379" on="1"/>
        <pt x="46" y="398" on="1"/>
        <pt x="175" y="409" on="1"/>
        <pt x="172" y="363" on="1"/>
        <pt x="240" y="414" on="0"/>
        <pt x="366" y="414" on="0"/>
        <pt x="431" y="338" on="0"/>
        <pt x="431" y="270" on="1"/>
        <pt x="431" y="177" on="1"/>
        <pt x="439" y="26" on="1"/>
        <pt x="469" y="19" on="1"/>
        <pt x="468" y="0" on="1"/>
        <pt x="303" y="0" on="1"/>
        <pt x="302" y="21" on="1"/>
        <pt x="345" y="26" on="1"/>
        <pt x="354" y="177" on="1"/>
        <pt x="354" y="266" on="1"/>
        <pt x="354" y="304" on="0"/>
        <pt x="311" y="345" on="0"/>
        <pt x="219" y="345" on="0"/>
        <pt x="170" y="309" on="1"/>
        <pt x="165" y="221" on="1"/>
        <pt x="165" y="177" on="1"/>
        <pt x="173" y="26" on="1"/>
        <pt x="218" y="21" on="1"/>
        <pt x="217" y="0" on="1"/>
      </contour>
      <contour>
        <pt x="389" y="599" on="1"/>
        <pt x="407" y="586" on="1"/>
        <pt x="370" y="528" on="0"/>
        <pt x="333" y="492" on="0"/>
        <pt x="295" y="492" on="0"/>
        <pt x="261" y="508" on="0"/>
        <pt x="190" y="549" on="1"/>
        <pt x="132" y="493" on="1"/>
        <pt x="114" y="506" on="1"/>
        <pt x="149" y="564" on="0"/>
        <pt x="187" y="600" on="0"/>
        <pt x="227" y="600" on="0"/>
        <pt x="267" y="581" on="0"/>
        <pt x="331" y="543" on="1"/>
      </contour>
    </TTGlyph>
    <TTGlyph name="numbersign" xMin="19" yMin="0" xMax="498" yMax="497">
      <contour>
        <pt x="330" y="0" on="1"/>
        <pt x="263" y="0" on="1"/>
        <pt x="287" y="121" on="1"/>
        <pt x="182" y="121" on="1"/>
        <pt x="158" y="0" on="1"/>
        <pt x="91" y="0" on="1"/>
        <pt x="115" y="121" on="1"/>
        <pt x="19" y="121" on="1"/>
        <pt x="34" y="190" on="1"/>
        <pt x="129" y="190" on="1"/>
        <pt x="149" y="291" on="1"/>
        <pt x="54" y="291" on="1"/>
        <pt x="68" y="360" on="1"/>
        <pt x="162" y="360" on="1"/>
        <pt x="191" y="497" on="1"/>
        <pt x="258" y="497" on="1"/>
        <pt x="229" y="360" on="1"/>
        <pt x="334" y="360" on="1"/>
        <pt x="363" y="497" on="1"/>
        <pt x="430" y="497" on="1"/>
        <pt x="401" y="360" on="1"/>
        <pt x="498" y="360" on="1"/>
        <pt x="484" y="291" on="1"/>
        <pt x="388" y="291" on="1"/>
        <pt x="368" y="190" on="1"/>
        <pt x="464" y="190" on="1"/>
        <pt x="449" y="121" on="1"/>
        <pt x="354" y="121" on="1"/>
      </contour>
      <contour>
        <pt x="216" y="291" on="1"/>
        <pt x="196" y="190" on="1"/>
        <pt x="301" y="190" on="1"/>
        <pt x="321" y="291" on="1"/>
      </contour>
    </TTGlyph>
    <TTGlyph name="o" xMin="40" yMin="-15" xMax="440" yMax="414">
      <contour>
        <pt x="247" y="41" on="1"/>
        <pt x="353" y="41" on="0"/>
        <pt x="353" y="188" on="1"/>
        <pt x="353" y="358" on="0"/>
        <pt x="230" y="358" on="1"/>
        <pt x="175" y="358" on="0"/>
        <pt x="126" y="289" on="0"/>
        <pt x="126" y="206" on="1"/>
        <pt x="126" y="41" on="0"/>
      </contour>
      <contour>
        <pt x="144" y="-15" on="0"/>
        <pt x="40" y="94" on="0"/>
        <pt x="40" y="293" on="0"/>
        <pt x="150" y="414" on="0"/>
        <pt x="337" y="414" on="0"/>
        <pt x="440" y="307" on="0"/>
        <pt x="440" y="106" on="0"/>
        <pt x="330" y="-15" on="0"/>
      </contour>
    </TTGlyph>
    <TTGlyph name="oacute" xMin="40" yMin="-15" xMax="440" yMax="620">
      <contour>
        <pt x="144" y="-15" on="0"/>
        <pt x="40" y="94" on="0"/>
        <pt x="40" y="293" on="0"/>
        <pt x="150" y="414" on="0"/>
        <pt x="337" y="414" on="0"/>
        <pt x="440" y="307" on="0"/>
        <pt x="440" y="106" on="0"/>
        <pt x="330" y="-15" on="0"/>
      </contour>
      <contour>
        <pt x="247" y="41" on="1"/>
        <pt x="353" y="41" on="0"/>
        <pt x="353" y="188" on="1"/>
        <pt x="353" y="358" on="0"/>
        <pt x="230" y="358" on="1"/>
        <pt x="175" y="358" on="0"/>
        <pt x="126" y="289" on="0"/>
        <pt x="126" y="206" on="1"/>
        <pt x="126" y="41" on="0"/>
      </contour>
      <contour>
        <pt x="196" y="481" on="1"/>
        <pt x="180" y="496" on="1"/>
        <pt x="271" y="614" on="1"/>
        <pt x="298" y="620" on="0"/>
        <pt x="362" y="620" on="0"/>
        <pt x="381" y="606" on="1"/>
        <pt x="382" y="588" on="1"/>
      </contour>
    </TTGlyph>
    <TTGlyph name="ocircumflex" xMin="40" yMin="-15" xMax="440" yMax="626">
      <contour>
        <pt x="144" y="-15" on="0"/>
        <pt x="40" y="94" on="0"/>
        <pt x="40" y="293" on="0"/>
        <pt x="150" y="414" on="0"/>
        <pt x="337" y="414" on="0"/>
        <pt x="440" y="307" on="0"/>
        <pt x="440" y="106" on="0"/>
        <pt x="330" y="-15" on="0"/>
      </contour>
      <contour>
        <pt x="247" y="41" on="1"/>
        <pt x="353" y="41" on="0"/>
        <pt x="353" y="188" on="1"/>
        <pt x="353" y="358" on="0"/>
        <pt x="230" y="358" on="1"/>
        <pt x="175" y="358" on="0"/>
        <pt x="126" y="289" on="0"/>
        <pt x="126" y="206" on="1"/>
        <pt x="126" y="41" on="0"/>
      </contour>
      <contour>
        <pt x="130" y="481" on="1"/>
        <pt x="114" y="496" on="1"/>
        <pt x="229" y="626" on="1"/>
        <pt x="256" y="626" on="1"/>
        <pt x="371" y="496" on="1"/>
        <pt x="355" y="481" on="1"/>
        <pt x="243" y="545" on="1"/>
      </contour>
    </TTGlyph>
    <TTGlyph name="odieresis" xMin="40" yMin="-15" xMax="440" yMax="608">
      <contour>
        <pt x="257" y="547" on="1"/>
        <pt x="284" y="587" on="0"/>
        <pt x="315" y="608" on="1"/>
        <pt x="351" y="583" on="0"/>
        <pt x="376" y="547" on="1"/>
        <pt x="353" y="511" on="0"/>
        <pt x="315" y="486" on="1"/>
        <pt x="282" y="507" on="0"/>
      </contour>
      <contour>
        <pt x="96" y="547" on="1"/>
        <pt x="121" y="585" on="0"/>
        <pt x="157" y="608" on="1"/>
        <pt x="187" y="585" on="0"/>
        <pt x="215" y="547" on="1"/>
        <pt x="187" y="507" on="0"/>
        <pt x="157" y="486" on="1"/>
        <pt x="120" y="510" on="0"/>
      </contour>
      <contour>
        <pt x="247" y="41" on="1"/>
        <pt x="353" y="41" on="0"/>
        <pt x="353" y="188" on="1"/>
        <pt x="353" y="358" on="0"/>
        <pt x="230" y="358" on="1"/>
        <pt x="175" y="358" on="0"/>
        <pt x="126" y="289" on="0"/>
        <pt x="126" y="206" on="1"/>
        <pt x="126" y="41" on="0"/>
      </contour>
      <contour>
        <pt x="144" y="-15" on="0"/>
        <pt x="40" y="94" on="0"/>
        <pt x="40" y="293" on="0"/>
        <pt x="150" y="414" on="0"/>
        <pt x="337" y="414" on="0"/>
        <pt x="440" y="307" on="0"/>
        <pt x="440" y="106" on="0"/>
        <pt x="330" y="-15" on="0"/>
      </contour>
    </TTGlyph>
    <TTGlyph name="oe" xMin="40" yMin="-15" xMax="718" yMax="414">
      <contour>
        <pt x="440" y="198" on="1"/>
        <pt x="439" y="187" on="1"/>
        <pt x="441" y="120" on="0"/>
        <pt x="503" y="41" on="0"/>
        <pt x="553" y="41" on="1"/>
        <pt x="619" y="41" on="0"/>
        <pt x="675" y="85" on="1"/>
        <pt x="682" y="126" on="1"/>
        <pt x="699" y="125" on="1"/>
        <pt x="706" y="-14" on="1"/>
        <pt x="690" y="-14" on="1"/>
        <pt x="681" y="9" on="1"/>
        <pt x="616" y="-15" on="0"/>
        <pt x="543" y="-15" on="1"/>
        <pt x="442" y="-15" on="0"/>
        <pt x="392" y="61" on="1"/>
        <pt x="339" y="-15" on="0"/>
        <pt x="144" y="-15" on="0"/>
        <pt x="40" y="94" on="0"/>
        <pt x="40" y="293" on="0"/>
        <pt x="150" y="414" on="0"/>
        <pt x="348" y="414" on="0"/>
        <pt x="401" y="339" on="1"/>
        <pt x="453" y="414" on="0"/>
        <pt x="634" y="414" on="0"/>
        <pt x="718" y="334" on="0"/>
        <pt x="718" y="249" on="1"/>
        <pt x="718" y="225" on="0"/>
        <pt x="715" y="198" on="1"/>
      </contour>
      <contour>
        <pt x="247" y="41" on="1"/>
        <pt x="353" y="41" on="0"/>
        <pt x="353" y="192" on="1"/>
        <pt x="353" y="358" on="0"/>
        <pt x="230" y="358" on="1"/>
        <pt x="175" y="358" on="0"/>
        <pt x="126" y="289" on="0"/>
        <pt x="126" y="206" on="1"/>
        <pt x="126" y="41" on="0"/>
      </contour>
      <contour>
        <pt x="441" y="250" on="1"/>
        <pt x="635" y="251" on="1"/>
        <pt x="635" y="308" on="0"/>
        <pt x="591" y="358" on="0"/>
        <pt x="544" y="358" on="1"/>
        <pt x="451" y="358" on="0"/>
      </contour>
    </TTGlyph>
    <TTGlyph name="ogonek" xMin="129" yMin="-221" xMax="326" yMax="10">
      <contour>
        <pt x="230" y="10" on="1"/>
        <pt x="272" y="10" on="1"/>
        <pt x="238" y="-28" on="0"/>
        <pt x="193" y="-113" on="0"/>
        <pt x="193" y="-138" on="1"/>
        <pt x="193" y="-178" on="0"/>
        <pt x="242" y="-178" on="1"/>
        <pt x="275" y="-178" on="0"/>
        <pt x="309" y="-161" on="1"/>
        <pt x="326" y="-185" on="1"/>
        <pt x="285" y="-221" on="0"/>
        <pt x="181" y="-221" on="0"/>
        <pt x="129" y="-179" on="0"/>
        <pt x="129" y="-145" on="1"/>
        <pt x="129" y="-79" on="0"/>
      </contour>
    </TTGlyph>
</ttFont>
